Uncut Sans-Light.ufo
<glyph name="exclam" format="2">
	<advance width="333"/>
	<unicode hex="0021"/>
	<outline>
		<contour>
			<point x="122" y="166" type="line"/>
			<point x="160" y="166" type="line"/>
			<point x="228" y="700" type="line"/>
			<point x="170" y="700" type="line"/>
		</contour>
		<contour>
			<point x="105" y="0" type="line"/>
			<point x="175" y="0" type="line"/>
			<point x="175" y="70" type="line"/>
			<point x="105" y="70" type="line"/>
		</contour>
	</outline>
</glyph>
<glyph name="numbersign" format="2">
	<advance width="701"/>
	<unicode hex="0023"/>
	<outline>
		<contour>
			<point x="347" y="0" type="line"/>
			<point x="400" y="0" type="line"/>
			<point x="608" y="716" type="line"/>
			<point x="555" y="716" type="line"/>
		</contour>
		<contour>
			<point x="45" y="182" type="line"/>
			<point x="596" y="182" type="line"/>
			<point x="596" y="230" type="line"/>
			<point x="45" y="230" type="line"/>
		</contour>
		<contour>
			<point x="92" y="0" type="line"/>
			<point x="145" y="0" type="line"/>
			<point x="353" y="716" type="line"/>
			<point x="300" y="716" type="line"/>
		</contour>
		<contour>
			<point x="105" y="452" type="line"/>
			<point x="656" y="452" type="line"/>
			<point x="656" y="500" type="line"/>
			<point x="105" y="500" type="line"/>
		</contour>
	</outline>
</glyph>
<glyph name="dollar" format="2">
	<advance width="581"/>
	<unicode hex="0024"/>
	<outline>
		<contour>
			<point x="305" y="-16" type="curve" smooth="yes"/>
			<point x="441" y="-16"/>
			<point x="526" y="75"/>
			<point x="526" y="171" type="curve" smooth="yes"/>
			<point x="526" y="423"/>
			<point x="147" y="362"/>
			<point x="147" y="548" type="curve" smooth="yes"/>
			<point x="147" y="625"/>
			<point x="211" y="663"/>
			<point x="295" y="663" type="curve" smooth="yes"/>
			<point x="387" y="663"/>
			<point x="437" y="598"/>
			<point x="441" y="509" type="curve"/>
			<point x="499" y="517" type="line"/>
			<point x="495" y="628"/>
			<point x="418" y="716"/>
			<point x="295" y="716" type="curve" smooth="yes"/>
			<point x="178" y="716"/>
			<point x="89" y="653"/>
			<point x="89" y="548" type="curve" smooth="yes"/>
			<point x="89" y="313"/>
			<point x="468" y="390"/>
			<point x="468" y="171" type="curve" smooth="yes"/>
			<point x="468" y="84"/>
			<point x="389" y="37"/>
			<point x="305" y="37" type="curve" smooth="yes"/>
			<point x="182" y="37"/>
			<point x="112" y="136"/>
			<point x="108" y="265" type="curve"/>
			<point x="50" y="257" type="line"/>
			<point x="53" y="114"/>
			<point x="134" y="-16"/>
		</contour>
		<contour>
			<point x="273" y="-116" type="line"/>
			<point x="316" y="-116" type="line"/>
			<point x="316" y="800" type="line"/>
			<point x="273" y="800" type="line"/>
		</contour>
	</outline>
</glyph>
<glyph name="percent" format="2">
	<advance width="770"/>
	<unicode hex="0025"/>
	<outline>
		<contour>
			<point x="100" y="0" type="line"/>
			<point x="161" y="0" type="line"/>
			<point x="670" y="716" type="line"/>
			<point x="609" y="716" type="line"/>
		</contour>
		<contour>
			<point x="205" y="396" type="curve" smooth="yes"/>
			<point x="293" y="396"/>
			<point x="365" y="468"/>
			<point x="365" y="556" type="curve" smooth="yes"/>
			<point x="365" y="644"/>
			<point x="293" y="716"/>
			<point x="205" y="716" type="curve" smooth="yes"/>
			<point x="117" y="716"/>
			<point x="45" y="644"/>
			<point x="45" y="556" type="curve" smooth="yes"/>
			<point x="45" y="468"/>
			<point x="117" y="396"/>
		</contour>
		<contour>
			<point x="205" y="449" type="curve" smooth="yes"/>
			<point x="146" y="449"/>
			<point x="98" y="497"/>
			<point x="98" y="556" type="curve" smooth="yes"/>
			<point x="98" y="615"/>
			<point x="146" y="663"/>
			<point x="205" y="663" type="curve" smooth="yes"/>
			<point x="264" y="663"/>
			<point x="312" y="615"/>
			<point x="312" y="556" type="curve" smooth="yes"/>
			<point x="312" y="497"/>
			<point x="264" y="449"/>
		</contour>
		<contour>
			<point x="565" y="-16" type="curve" smooth="yes"/>
			<point x="653" y="-16"/>
			<point x="725" y="56"/>
			<point x="725" y="144" type="curve" smooth="yes"/>
			<point x="725" y="232"/>
			<point x="653" y="304"/>
			<point x="565" y="304" type="curve" smooth="yes"/>
			<point x="477" y="304"/>
			<point x="405" y="232"/>
			<point x="405" y="144" type="curve" smooth="yes"/>
			<point x="405" y="56"/>
			<point x="477" y="-16"/>
		</contour>
		<contour>
			<point x="565" y="37" type="curve" smooth="yes"/>
			<point x="506" y="37"/>
			<point x="458" y="85"/>
			<point x="458" y="144" type="curve" smooth="yes"/>
			<point x="458" y="203"/>
			<point x="506" y="251"/>
			<point x="565" y="251" type="curve" smooth="yes"/>
			<point x="624" y="251"/>
			<point x="672" y="203"/>
			<point x="672" y="144" type="curve" smooth="yes"/>
			<point x="672" y="85"/>
			<point x="624" y="37"/>
		</contour>
	</outline>
</glyph>
<glyph name="ampersand" format="2">
	<advance width="650"/>
	<unicode hex="0026"/>
	<outline>
		<contour>
			<point x="271" y="-16" type="curve" smooth="yes"/>
			<point x="461" y="-16"/>
			<point x="562" y="194"/>
			<point x="562" y="364" type="curve"/>
			<point x="504" y="364" type="line"/>
			<point x="504" y="224"/>
			<point x="431" y="37"/>
			<point x="271" y="37" type="curve" smooth="yes"/>
			<point x="191" y="37"/>
			<point x="123" y="88"/>
			<point x="123" y="168" type="curve" smooth="yes"/>
			<point x="123" y="368"/>
			<point x="481" y="382"/>
			<point x="481" y="562" type="curve" smooth="yes"/>
			<point x="481" y="642"/>
			<point x="417" y="716"/>
			<point x="307" y="716" type="curve" smooth="yes"/>
			<point x="197" y="716"/>
			<point x="133" y="632"/>
			<point x="133" y="552" type="curve" smooth="yes"/>
			<point x="133" y="462"/>
			<point x="195" y="396"/>
			<point x="222" y="367" type="curve" smooth="yes"/>
			<point x="566" y="0" type="line"/>
			<point x="635" y="0" type="line"/>
			<point x="287" y="372" type="line" smooth="yes"/>
			<point x="232" y="430"/>
			<point x="191" y="472"/>
			<point x="191" y="552" type="curve" smooth="yes"/>
			<point x="191" y="612"/>
			<point x="237" y="663"/>
			<point x="307" y="663" type="curve" smooth="yes"/>
			<point x="377" y="663"/>
			<point x="423" y="622"/>
			<point x="423" y="562" type="curve" smooth="yes"/>
			<point x="423" y="412"/>
			<point x="65" y="398"/>
			<point x="65" y="168" type="curve" smooth="yes"/>
			<point x="65" y="58"/>
			<point x="151" y="-16"/>
		</contour>
	</outline>
</glyph>
<glyph name="quotesingle" format="2">
	<advance width="251"/>
	<unicode hex="0027"/>
	<outline>
		<contour>
			<point x="108" y="499" type="line"/>
			<point x="143" y="499" type="line"/>
			<point x="156" y="699" type="line"/>
			<point x="95" y="699" type="line"/>
		</contour>
	</outline>
</glyph>
<glyph name="parenleft" format="2">
	<advance width="313"/>
	<unicode hex="0028"/>
	<outline>
		<contour>
			<point x="236" y="-110" type="curve"/>
			<point x="288" y="-110" type="line"/>
			<point x="237" y="-47"/>
			<point x="143" y="109"/>
			<point x="143" y="303" type="curve" smooth="yes"/>
			<point x="143" y="497"/>
			<point x="237" y="653"/>
			<point x="288" y="716" type="curve"/>
			<point x="236" y="716" type="line"/>
			<point x="190" y="663"/>
			<point x="85" y="505"/>
			<point x="85" y="303" type="curve" smooth="yes"/>
			<point x="85" y="101"/>
			<point x="190" y="-57"/>
		</contour>
	</outline>
</glyph>
<glyph name="parenright" format="2">
	<advance width="313"/>
	<unicode hex="0029"/>
	<outline>
		<contour>
			<point x="25" y="-110" type="curve"/>
			<point x="77" y="-110" type="line"/>
			<point x="123" y="-57"/>
			<point x="228" y="101"/>
			<point x="228" y="303" type="curve" smooth="yes"/>
			<point x="228" y="505"/>
			<point x="123" y="663"/>
			<point x="77" y="716" type="curve"/>
			<point x="25" y="716" type="line"/>
			<point x="76" y="653"/>
			<point x="170" y="497"/>
			<point x="170" y="303" type="curve" smooth="yes"/>
			<point x="170" y="109"/>
			<point x="76" y="-47"/>
		</contour>
	</outline>
</glyph>
<glyph name="asterisk" format="2">
	<advance width="518"/>
	<unicode hex="002A"/>
	<outline>
		<contour>
			<point x="362" y="380" type="line"/>
			<point x="396" y="414" type="line"/>
			<point x="256" y="533" type="line"/>
			<point x="136" y="673" type="line"/>
			<point x="102" y="640" type="line"/>
			<point x="242" y="520" type="line"/>
		</contour>
		<contour>
			<point x="137" y="380" type="line"/>
			<point x="256" y="520" type="line"/>
			<point x="396" y="640" type="line"/>
			<point x="363" y="673" type="line"/>
			<point x="243" y="533" type="line"/>
			<point x="103" y="413" type="line"/>
		</contour>
		<contour>
			<point x="225" y="342" type="line"/>
			<point x="273" y="342" type="line"/>
			<point x="258" y="526" type="line"/>
			<point x="273" y="710" type="line"/>
			<point x="225" y="710" type="line"/>
			<point x="240" y="526" type="line"/>
		</contour>
		<contour>
			<point x="65" y="502" type="line"/>
			<point x="249" y="517" type="line"/>
			<point x="433" y="502" type="line"/>
			<point x="433" y="549" type="line"/>
			<point x="249" y="534" type="line"/>
			<point x="65" y="549" type="line"/>
		</contour>
	</outline>
</glyph>
<glyph name="plus" format="2">
	<advance width="589"/>
	<unicode hex="002B"/>
	<outline>
		<contour>
			<point x="268" y="87" type="line"/>
			<point x="321" y="87" type="line"/>
			<point x="321" y="506" type="line"/>
			<point x="268" y="506" type="line"/>
		</contour>
		<contour>
			<point x="85" y="269" type="line"/>
			<point x="504" y="269" type="line"/>
			<point x="504" y="322" type="line"/>
			<point x="85" y="322" type="line"/>
		</contour>
	</outline>
</glyph>
<glyph name="comma" format="2">
	<advance width="230"/>
	<unicode hex="002C"/>
	<outline>
		<contour>
			<point x="60" y="-128" type="line"/>
			<point x="120" y="-128"/>
			<point x="160" y="-90"/>
			<point x="160" y="0" type="curve"/>
			<point x="128" y="0" type="line"/>
			<point x="128" y="-60"/>
			<point x="110" y="-105"/>
			<point x="60" y="-105" type="curve"/>
		</contour>
		<contour>
			<point x="80" y="0" type="line"/>
			<point x="160" y="0" type="line"/>
			<point x="160" y="80" type="line"/>
			<point x="80" y="80" type="line"/>
		</contour>
	</outline>
</glyph>
<glyph name="hyphen" format="2">
	<advance width="485"/>
	<unicode hex="002D"/>
	<outline>
		<contour>
			<point x="85" y="269" type="line"/>
			<point x="400" y="269" type="line"/>
			<point x="400" y="322" type="line"/>
			<point x="85" y="322" type="line"/>
		</contour>
	</outline>
</glyph>
<glyph name="period" format="2">
	<advance width="220"/>
	<unicode hex="002E"/>
	<outline>
		<contour>
			<point x="70" y="0" type="line"/>
			<point x="150" y="0" type="line"/>
			<point x="150" y="80" type="line"/>
			<point x="70" y="80" type="line"/>
		</contour>
	</outline>
</glyph>
<glyph name="slash" format="2">
	<advance width="474"/>
	<unicode hex="002F"/>
	<outline>
		<contour>
			<point x="55" y="-110" type="line"/>
			<point x="112" y="-110" type="line"/>
			<point x="419" y="716" type="line"/>
			<point x="362" y="716" type="line"/>
		</contour>
	</outline>
</glyph>
<glyph name="zero" format="2">
	<advance width="656"/>
	<unicode hex="0030"/>
	<outline>
		<contour>
			<point x="328" y="-16" type="curve" smooth="yes"/>
			<point x="498" y="-16"/>
			<point x="591" y="130"/>
			<point x="591" y="350" type="curve" smooth="yes"/>
			<point x="591" y="570"/>
			<point x="498" y="716"/>
			<point x="328" y="716" type="curve" smooth="yes"/>
			<point x="158" y="716"/>
			<point x="65" y="570"/>
			<point x="65" y="350" type="curve" smooth="yes"/>
			<point x="65" y="130"/>
			<point x="158" y="-16"/>
		</contour>
		<contour>
			<point x="328" y="37" type="curve" smooth="yes"/>
			<point x="178" y="37"/>
			<point x="123" y="180"/>
			<point x="123" y="350" type="curve" smooth="yes"/>
			<point x="123" y="520"/>
			<point x="178" y="663"/>
			<point x="328" y="663" type="curve" smooth="yes"/>
			<point x="478" y="663"/>
			<point x="533" y="520"/>
			<point x="533" y="350" type="curve" smooth="yes"/>
			<point x="533" y="180"/>
			<point x="478" y="37"/>
		</contour>
	</outline>
</glyph>
<glyph name="one" format="2">
	<advance width="538"/>
	<unicode hex="0031"/>
	<outline>
		<contour>
			<point x="265" y="33" type="line"/>
			<point x="323" y="33" type="line"/>
			<point x="323" y="700" type="line"/>
			<point x="265" y="700" type="line"/>
			<point x="265" y="560"/>
			<point x="194" y="500"/>
			<point x="114" y="500" type="curve" smooth="yes"/>
			<point x="85" y="500" type="line"/>
			<point x="85" y="447" type="line"/>
			<point x="114" y="447" type="line" smooth="yes"/>
			<point x="184" y="447"/>
			<point x="272" y="500"/>
			<point x="272" y="620" type="curve"/>
			<point x="265" y="600" type="line"/>
		</contour>
		<contour>
			<point x="85" y="0" type="line"/>
			<point x="503" y="0" type="line"/>
			<point x="503" y="53" type="line"/>
			<point x="85" y="53" type="line"/>
		</contour>
	</outline>
</glyph>
<glyph name="two" format="2">
	<advance width="591"/>
	<unicode hex="0032"/>
	<outline>
		<contour>
			<point x="66" y="0" type="line"/>
			<point x="526" y="0" type="line"/>
			<point x="526" y="53" type="line"/>
			<point x="124" y="53" type="line"/>
			<point x="154" y="48" type="line"/>
			<point x="304" y="128"/>
			<point x="510" y="295"/>
			<point x="510" y="500" type="curve" smooth="yes"/>
			<point x="510" y="620"/>
			<point x="432" y="716"/>
			<point x="292" y="716" type="curve" smooth="yes"/>
			<point x="142" y="716"/>
			<point x="66" y="620"/>
			<point x="66" y="510" type="curve"/>
			<point x="124" y="501" type="line"/>
			<point x="124" y="601"/>
			<point x="182" y="663"/>
			<point x="292" y="663" type="curve" smooth="yes"/>
			<point x="382" y="663"/>
			<point x="452" y="600"/>
			<point x="452" y="500" type="curve" smooth="yes"/>
			<point x="452" y="310"/>
			<point x="262" y="157"/>
			<point x="66" y="53" type="curve"/>
		</contour>
	</outline>
</glyph>
<glyph name="three" format="2">
	<advance width="608"/>
	<unicode hex="0033"/>
	<outline>
		<contour>
			<point x="299" y="-16" type="curve" smooth="yes"/>
			<point x="449" y="-16"/>
			<point x="541" y="74"/>
			<point x="541" y="189" type="curve" smooth="yes"/>
			<point x="541" y="299"/>
			<point x="454" y="366"/>
			<point x="384" y="366" type="curve"/>
			<point x="384" y="362" type="line"/>
			<point x="444" y="362"/>
			<point x="517" y="436"/>
			<point x="517" y="527" type="curve" smooth="yes"/>
			<point x="517" y="623"/>
			<point x="449" y="716"/>
			<point x="299" y="716" type="curve" smooth="yes"/>
			<point x="149" y="716"/>
			<point x="90" y="617"/>
			<point x="82" y="550" type="curve"/>
			<point x="140" y="540" type="line"/>
			<point x="149" y="609"/>
			<point x="209" y="663"/>
			<point x="299" y="663" type="curve" smooth="yes"/>
			<point x="389" y="663"/>
			<point x="459" y="603"/>
			<point x="459" y="527" type="curve" smooth="yes"/>
			<point x="459" y="450"/>
			<point x="393" y="391"/>
			<point x="289" y="391" type="curve" smooth="yes"/>
			<point x="229" y="391" type="line"/>
			<point x="229" y="338" type="line"/>
			<point x="289" y="338" type="line" smooth="yes"/>
			<point x="382" y="338"/>
			<point x="483" y="286"/>
			<point x="483" y="189" type="curve" smooth="yes"/>
			<point x="483" y="92"/>
			<point x="389" y="39"/>
			<point x="299" y="39" type="curve" smooth="yes"/>
			<point x="209" y="39"/>
			<point x="120" y="88"/>
			<point x="113" y="193" type="curve"/>
			<point x="55" y="183" type="line"/>
			<point x="55" y="85"/>
			<point x="149" y="-16"/>
		</contour>
	</outline>
</glyph>
<glyph name="four" format="2">
	<advance width="699"/>
	<unicode hex="0034"/>
	<outline>
		<contour>
			<point x="45" y="203" type="line"/>
			<point x="649" y="203" type="line"/>
			<point x="649" y="256" type="line"/>
			<point x="94" y="256" type="line"/>
			<point x="83" y="231" type="line"/>
			<point x="288" y="360"/>
			<point x="301" y="530"/>
			<point x="301" y="700" type="curve"/>
			<point x="243" y="700" type="line"/>
			<point x="243" y="530"/>
			<point x="227" y="380"/>
			<point x="45" y="256" type="curve"/>
		</contour>
		<contour>
			<point x="471" y="0" type="line"/>
			<point x="529" y="0" type="line"/>
			<point x="529" y="700" type="line"/>
			<point x="471" y="700" type="line"/>
		</contour>
	</outline>
</glyph>
<glyph name="five" format="2">
	<advance width="598"/>
	<unicode hex="0035"/>
	<outline>
		<contour>
			<point x="298" y="-16" type="curve" smooth="yes"/>
			<point x="438" y="-16"/>
			<point x="533" y="78"/>
			<point x="533" y="228" type="curve" smooth="yes"/>
			<point x="533" y="378"/>
			<point x="438" y="468"/>
			<point x="308" y="468" type="curve" smooth="yes"/>
			<point x="228" y="468"/>
			<point x="166" y="430"/>
			<point x="119" y="368" type="curve"/>
			<point x="135" y="353" type="line"/>
			<point x="156" y="647" type="line"/>
			<point x="480" y="647" type="line"/>
			<point x="480" y="700" type="line"/>
			<point x="105" y="700" type="line"/>
			<point x="77" y="322" type="line"/>
			<point x="138" y="322" type="line"/>
			<point x="147" y="340"/>
			<point x="188" y="419"/>
			<point x="308" y="419" type="curve" smooth="yes"/>
			<point x="418" y="419"/>
			<point x="475" y="328"/>
			<point x="475" y="228" type="curve" smooth="yes"/>
			<point x="475" y="128"/>
			<point x="418" y="36"/>
			<point x="298" y="36" type="curve" smooth="yes"/>
			<point x="178" y="36"/>
			<point x="123" y="123"/>
			<point x="123" y="193" type="curve"/>
			<point x="65" y="183" type="line"/>
			<point x="65" y="83"/>
			<point x="158" y="-16"/>
		</contour>
	</outline>
</glyph>
<glyph name="six" format="2">
	<advance width="618"/>
	<unicode hex="0036"/>
	<outline>
		<contour>
			<point x="318" y="-16" type="curve" smooth="yes"/>
			<point x="448" y="-16"/>
			<point x="549" y="80"/>
			<point x="549" y="220" type="curve" smooth="yes"/>
			<point x="549" y="360"/>
			<point x="448" y="455"/>
			<point x="318" y="455" type="curve" smooth="yes"/>
			<point x="198" y="455"/>
			<point x="115" y="369"/>
			<point x="111" y="249" type="curve"/>
			<point x="120" y="251" type="line"/>
			<point x="95" y="510"/>
			<point x="178" y="663"/>
			<point x="328" y="663" type="curve" smooth="yes"/>
			<point x="418" y="663"/>
			<point x="461" y="604"/>
			<point x="491" y="530" type="curve"/>
			<point x="553" y="540" type="line"/>
			<point x="515" y="654"/>
			<point x="438" y="716"/>
			<point x="328" y="716" type="curve" smooth="yes"/>
			<point x="188" y="716"/>
			<point x="65" y="603"/>
			<point x="65" y="353" type="curve" smooth="yes"/>
			<point x="65" y="183"/>
			<point x="118" y="-16"/>
		</contour>
		<contour>
			<point x="318" y="37" type="curve" smooth="yes"/>
			<point x="210" y="37"/>
			<point x="142" y="120"/>
			<point x="142" y="220" type="curve" smooth="yes"/>
			<point x="142" y="320"/>
			<point x="218" y="402"/>
			<point x="318" y="402" type="curve" smooth="yes"/>
			<point x="418" y="402"/>
			<point x="491" y="320"/>
			<point x="491" y="220" type="curve" smooth="yes"/>
			<point x="491" y="120"/>
			<point x="424" y="37"/>
		</contour>
	</outline>
</glyph>
<glyph name="seven" format="2">
	<advance width="540"/>
	<unicode hex="0037"/>
	<outline>
		<contour>
			<point x="186" y="0" type="curve"/>
			<point x="244" y="0" type="line"/>
			<point x="244" y="280"/>
			<point x="268" y="501"/>
			<point x="495" y="647" type="curve"/>
			<point x="495" y="700" type="line"/>
			<point x="35" y="700" type="line"/>
			<point x="35" y="647" type="line"/>
			<point x="454" y="647" type="line"/>
			<point x="462" y="672" type="line"/>
			<point x="230" y="555"/>
			<point x="186" y="280"/>
		</contour>
	</outline>
</glyph>
<glyph name="eight" format="2">
	<advance width="608"/>
	<unicode hex="0038"/>
	<outline>
		<contour>
			<point x="304" y="-16" type="curve" smooth="yes"/>
			<point x="444" y="-16"/>
			<point x="553" y="58"/>
			<point x="553" y="188" type="curve" smooth="yes"/>
			<point x="553" y="288"/>
			<point x="464" y="366"/>
			<point x="394" y="366" type="curve"/>
			<point x="394" y="363" type="line"/>
			<point x="454" y="363"/>
			<point x="527" y="447"/>
			<point x="527" y="527" type="curve" smooth="yes"/>
			<point x="527" y="617"/>
			<point x="454" y="716"/>
			<point x="304" y="716" type="curve" smooth="yes"/>
			<point x="154" y="716"/>
			<point x="81" y="617"/>
			<point x="81" y="527" type="curve" smooth="yes"/>
			<point x="81" y="447"/>
			<point x="154" y="364"/>
			<point x="214" y="364" type="curve"/>
			<point x="214" y="366" type="line"/>
			<point x="144" y="366"/>
			<point x="55" y="288"/>
			<point x="55" y="188" type="curve" smooth="yes"/>
			<point x="55" y="58"/>
			<point x="164" y="-16"/>
		</contour>
		<contour>
			<point x="304" y="37" type="curve" smooth="yes"/>
			<point x="194" y="37"/>
			<point x="113" y="98"/>
			<point x="113" y="188" type="curve" smooth="yes"/>
			<point x="113" y="278"/>
			<point x="194" y="338"/>
			<point x="304" y="338" type="curve" smooth="yes"/>
			<point x="414" y="338"/>
			<point x="495" y="278"/>
			<point x="495" y="188" type="curve" smooth="yes"/>
			<point x="495" y="98"/>
			<point x="414" y="37"/>
		</contour>
		<contour>
			<point x="304" y="391" type="curve" smooth="yes"/>
			<point x="195" y="391"/>
			<point x="139" y="457"/>
			<point x="139" y="527" type="curve" smooth="yes"/>
			<point x="139" y="597"/>
			<point x="194" y="663"/>
			<point x="304" y="663" type="curve" smooth="yes"/>
			<point x="414" y="663"/>
			<point x="469" y="597"/>
			<point x="469" y="527" type="curve" smooth="yes"/>
			<point x="469" y="457"/>
			<point x="414" y="391"/>
		</contour>
	</outline>
</glyph>
<glyph name="nine" format="2">
	<advance width="618"/>
	<unicode hex="0039"/>
	<outline>
		<contour>
			<point x="290" y="-6" type="curve" smooth="yes"/>
			<point x="430" y="-6"/>
			<point x="553" y="107"/>
			<point x="553" y="357" type="curve" smooth="yes"/>
			<point x="553" y="527"/>
			<point x="500" y="726"/>
			<point x="300" y="726" type="curve" smooth="yes"/>
			<point x="170" y="726"/>
			<point x="69" y="630"/>
			<point x="69" y="490" type="curve" smooth="yes"/>
			<point x="69" y="350"/>
			<point x="170" y="255"/>
			<point x="300" y="255" type="curve" smooth="yes"/>
			<point x="420" y="255"/>
			<point x="503" y="341"/>
			<point x="507" y="461" type="curve"/>
			<point x="498" y="459" type="line"/>
			<point x="523" y="200"/>
			<point x="440" y="47"/>
			<point x="290" y="47" type="curve" smooth="yes"/>
			<point x="200" y="47"/>
			<point x="157" y="106"/>
			<point x="127" y="180" type="curve"/>
			<point x="65" y="170" type="line"/>
			<point x="103" y="56"/>
			<point x="180" y="-6"/>
		</contour>
		<contour>
			<point x="300" y="308" type="curve" smooth="yes"/>
			<point x="200" y="308"/>
			<point x="127" y="390"/>
			<point x="127" y="490" type="curve" smooth="yes"/>
			<point x="127" y="590"/>
			<point x="194" y="673"/>
			<point x="300" y="673" type="curve" smooth="yes"/>
			<point x="408" y="673"/>
			<point x="476" y="590"/>
			<point x="476" y="490" type="curve" smooth="yes"/>
			<point x="476" y="390"/>
			<point x="400" y="308"/>
		</contour>
	</outline>
</glyph>
<glyph name="less" format="2">
	<advance width="589"/>
	<unicode hex="003C"/>
	<outline>
		<contour>
			<point x="504" y="26" type="line"/>
			<point x="504" y="86" type="line"/>
			<point x="122" y="296" type="line"/>
			<point x="121" y="286" type="line"/>
			<point x="504" y="495" type="line"/>
			<point x="504" y="555" type="line"/>
			<point x="85" y="326" type="line"/>
			<point x="85" y="255" type="line"/>
		</contour>
	</outline>
</glyph>
<glyph name="equal" format="2">
	<advance width="589"/>
	<unicode hex="003D"/>
	<outline>
		<contour>
			<point x="85" y="366" type="line"/>
			<point x="504" y="366" type="line"/>
			<point x="504" y="419" type="line"/>
			<point x="85" y="419" type="line"/>
		</contour>
		<contour>
			<point x="85" y="173" type="line"/>
			<point x="504" y="173" type="line"/>
			<point x="504" y="226" type="line"/>
			<point x="85" y="226" type="line"/>
		</contour>
	</outline>
</glyph>
<glyph name="greater" format="2">
	<advance width="589"/>
	<unicode hex="003E"/>
	<outline>
		<contour>
			<point x="85" y="26" type="line"/>
			<point x="504" y="255" type="line"/>
			<point x="504" y="326" type="line"/>
			<point x="85" y="555" type="line"/>
			<point x="85" y="495" type="line"/>
			<point x="468" y="286" type="line"/>
			<point x="467" y="296" type="line"/>
			<point x="85" y="86" type="line"/>
		</contour>
	</outline>
</glyph>
<glyph name="question" format="2">
	<advance width="545"/>
	<unicode hex="003F"/>
	<outline>
		<contour>
			<point x="222" y="166" type="line"/>
			<point x="275" y="166" type="line"/>
			<point x="275" y="320" type="line"/>
			<point x="267" y="310" type="line"/>
			<point x="357" y="310"/>
			<point x="485" y="392"/>
			<point x="485" y="522" type="curve" smooth="yes"/>
			<point x="485" y="632"/>
			<point x="412" y="716"/>
			<point x="282" y="716" type="curve" smooth="yes"/>
			<point x="152" y="716"/>
			<point x="60" y="616"/>
			<point x="60" y="496" type="curve"/>
			<point x="113" y="486" type="line"/>
			<point x="113" y="596"/>
			<point x="182" y="663"/>
			<point x="282" y="663" type="curve" smooth="yes"/>
			<point x="372" y="663"/>
			<point x="427" y="602"/>
			<point x="427" y="522" type="curve" smooth="yes"/>
			<point x="427" y="432"/>
			<point x="352" y="350"/>
			<point x="222" y="350" type="curve"/>
		</contour>
		<contour>
			<point x="212" y="0" type="line"/>
			<point x="286" y="0" type="line"/>
			<point x="286" y="74" type="line"/>
			<point x="212" y="74" type="line"/>
		</contour>
	</outline>
</glyph>
<glyph name="at" format="2">
	<advance width="873"/>
	<unicode hex="0040"/>
	<outline>
		<contour>
			<point x="438" y="-103" type="curve" smooth="yes"/>
			<point x="538" y="-103"/>
			<point x="630" y="-64"/>
			<point x="698" y="0" type="curve"/>
			<point x="629" y="0" type="line"/>
			<point x="575" y="-38"/>
			<point x="509" y="-60"/>
			<point x="438" y="-60" type="curve" smooth="yes"/>
			<point x="250" y="-60"/>
			<point x="98" y="92"/>
			<point x="98" y="279" type="curve" smooth="yes"/>
			<point x="98" y="466"/>
			<point x="250" y="617"/>
			<point x="438" y="617" type="curve" smooth="yes"/>
			<point x="634" y="617"/>
			<point x="775" y="476"/>
			<point x="775" y="279" type="curve"/>
			<point x="818" y="279" type="line"/>
			<point x="818" y="500"/>
			<point x="658" y="660"/>
			<point x="438" y="660" type="curve" smooth="yes"/>
			<point x="226" y="660"/>
			<point x="55" y="490"/>
			<point x="55" y="279" type="curve" smooth="yes"/>
			<point x="55" y="68"/>
			<point x="226" y="-103"/>
		</contour>
		<contour>
			<point x="410" y="141" type="curve" smooth="yes"/>
			<point x="367" y="141"/>
			<point x="336" y="168"/>
			<point x="336" y="206" type="curve" smooth="yes"/>
			<point x="336" y="265"/>
			<point x="404" y="277"/>
			<point x="444" y="279" type="curve" smooth="yes"/>
			<point x="483" y="280"/>
			<point x="536" y="292"/>
			<point x="536" y="362" type="curve"/>
			<point x="523" y="320" type="line"/>
			<point x="523" y="274" type="line" smooth="yes"/>
			<point x="523" y="194"/>
			<point x="474" y="141"/>
		</contour>
		<contour>
			<point x="668" y="91" type="curve" smooth="yes"/>
			<point x="758" y="91"/>
			<point x="818" y="169"/>
			<point x="818" y="279" type="curve"/>
			<point x="775" y="279" type="line"/>
			<point x="775" y="189"/>
			<point x="728" y="136"/>
			<point x="668" y="136" type="curve" smooth="yes"/>
			<point x="608" y="136"/>
			<point x="569" y="174"/>
			<point x="569" y="244" type="curve" smooth="yes"/>
			<point x="569" y="343" type="line" smooth="yes"/>
			<point x="569" y="444"/>
			<point x="516" y="476"/>
			<point x="437" y="476" type="curve" smooth="yes"/>
			<point x="355" y="476"/>
			<point x="298" y="426"/>
			<point x="297" y="360" type="curve"/>
			<point x="342" y="350" type="line"/>
			<point x="344" y="407"/>
			<point x="381" y="431"/>
			<point x="437" y="431" type="curve" smooth="yes"/>
			<point x="488" y="431"/>
			<point x="517" y="414"/>
			<point x="521" y="377" type="curve" smooth="yes"/>
			<point x="524" y="350"/>
			<point x="513" y="326"/>
			<point x="453" y="324" type="curve" smooth="yes"/>
			<point x="383" y="320"/>
			<point x="288" y="296"/>
			<point x="288" y="206" type="curve" smooth="yes"/>
			<point x="288" y="143"/>
			<point x="334" y="96"/>
			<point x="403" y="96" type="curve" smooth="yes"/>
			<point x="475" y="96"/>
			<point x="532" y="148"/>
			<point x="538" y="225" type="curve"/>
			<point x="530" y="215" type="line"/>
			<point x="528" y="155"/>
			<point x="578" y="91"/>
		</contour>
	</outline>
</glyph>
<glyph name="A" format="2">
	<advance width="627"/>
	<unicode hex="0041"/>
	<outline>
		<contour>
			<point x="25" y="0" type="line"/>
			<point x="83" y="0" type="line"/>
			<point x="320" y="678" type="line"/>
			<point x="308" y="678" type="line"/>
			<point x="544" y="0" type="line"/>
			<point x="602" y="0" type="line"/>
			<point x="358" y="700" type="line"/>
			<point x="269" y="700" type="line"/>
		</contour>
		<contour>
			<point x="152" y="236" type="line"/>
			<point x="475" y="236" type="line"/>
			<point x="475" y="289" type="line"/>
			<point x="152" y="289" type="line"/>
		</contour>
	</outline>
</glyph>
<glyph name="C" format="2">
	<advance width="731"/>
	<unicode hex="0043"/>
	<outline>
		<contour>
			<point x="377" y="-16" type="curve" smooth="yes"/>
			<point x="527" y="-16"/>
			<point x="642" y="99"/>
			<point x="661" y="258" type="curve"/>
			<point x="602" y="266" type="line"/>
			<point x="587" y="147"/>
			<point x="507" y="37"/>
			<point x="377" y="37" type="curve" smooth="yes"/>
			<point x="217" y="37"/>
			<point x="123" y="180"/>
			<point x="123" y="350" type="curve" smooth="yes"/>
			<point x="123" y="520"/>
			<point x="217" y="662"/>
			<point x="377" y="662" type="curve" smooth="yes"/>
			<point x="507" y="662"/>
			<point x="584" y="547"/>
			<point x="601" y="428" type="curve"/>
			<point x="661" y="437" type="line"/>
			<point x="642" y="596"/>
			<point x="527" y="716"/>
			<point x="377" y="716" type="curve" smooth="yes"/>
			<point x="207" y="716"/>
			<point x="65" y="580"/>
			<point x="65" y="350" type="curve" smooth="yes"/>
			<point x="65" y="120"/>
			<point x="207" y="-16"/>
		</contour>
	</outline>
</glyph>
<glyph name="D" format="2">
	<advance width="648"/>
	<unicode hex="0044"/>
	<outline>
		<contour>
			<point x="138" y="0" type="line"/>
			<point x="280" y="0" type="line" smooth="yes"/>
			<point x="480" y="0"/>
			<point x="588" y="110"/>
			<point x="588" y="350" type="curve" smooth="yes"/>
			<point x="588" y="590"/>
			<point x="480" y="700"/>
			<point x="280" y="700" type="curve" smooth="yes"/>
			<point x="138" y="700" type="line"/>
			<point x="138" y="647" type="line"/>
			<point x="280" y="647" type="line" smooth="yes"/>
			<point x="450" y="647"/>
			<point x="530" y="550"/>
			<point x="530" y="350" type="curve" smooth="yes"/>
			<point x="530" y="150"/>
			<point x="450" y="53"/>
			<point x="280" y="53" type="curve" smooth="yes"/>
			<point x="138" y="53" type="line"/>
		</contour>
		<contour>
			<point x="90" y="0" type="line"/>
			<point x="148" y="0" type="line"/>
			<point x="148" y="700" type="line"/>
			<point x="90" y="700" type="line"/>
		</contour>
	</outline>
</glyph>
<glyph name="E" format="2">
	<advance width="538"/>
	<unicode hex="0045"/>
	<outline>
		<contour>
			<point x="90" y="0" type="line"/>
			<point x="148" y="0" type="line"/>
			<point x="148" y="700" type="line"/>
			<point x="90" y="700" type="line"/>
		</contour>
		<contour>
			<point x="138" y="0" type="line"/>
			<point x="478" y="0" type="line"/>
			<point x="478" y="53" type="line"/>
			<point x="138" y="53" type="line"/>
		</contour>
		<contour>
			<point x="138" y="337" type="line"/>
			<point x="418" y="337" type="line"/>
			<point x="418" y="390" type="line"/>
			<point x="138" y="390" type="line"/>
		</contour>
		<contour>
			<point x="138" y="647" type="line"/>
			<point x="478" y="647" type="line"/>
			<point x="478" y="700" type="line"/>
			<point x="138" y="700" type="line"/>
		</contour>
	</outline>
</glyph>
<glyph name="F" format="2">
	<advance width="523"/>
	<unicode hex="0046"/>
	<outline>
		<contour>
			<point x="90" y="0" type="line"/>
			<point x="148" y="0" type="line"/>
			<point x="148" y="700" type="line"/>
			<point x="90" y="700" type="line"/>
		</contour>
		<contour>
			<point x="138" y="337" type="line"/>
			<point x="428" y="337" type="line"/>
			<point x="428" y="390" type="line"/>
			<point x="138" y="390" type="line"/>
		</contour>
		<contour>
			<point x="138" y="647" type="line"/>
			<point x="478" y="647" type="line"/>
			<point x="478" y="700" type="line"/>
			<point x="138" y="700" type="line"/>
		</contour>
	</outline>
</glyph>
<glyph name="G" format="2">
	<advance width="775"/>
	<unicode hex="0047"/>
	<outline>
		<contour>
			<point x="377" y="-16" type="curve" smooth="yes"/>
			<point x="497" y="-16"/>
			<point x="650" y="71"/>
			<point x="670" y="301" type="curve"/>
			<point x="662" y="309" type="line"/>
			<point x="648" y="0" type="line"/>
			<point x="700" y="0" type="line"/>
			<point x="700" y="344" type="line"/>
			<point x="392" y="344" type="line"/>
			<point x="392" y="291" type="line"/>
			<point x="636" y="291" type="line"/>
			<point x="621" y="148"/>
			<point x="501" y="37"/>
			<point x="377" y="37" type="curve" smooth="yes"/>
			<point x="221" y="37"/>
			<point x="123" y="186"/>
			<point x="123" y="350" type="curve" smooth="yes"/>
			<point x="123" y="514"/>
			<point x="221" y="662"/>
			<point x="377" y="662" type="curve" smooth="yes"/>
			<point x="519" y="662"/>
			<point x="604" y="543"/>
			<point x="616" y="432" type="curve"/>
			<point x="674" y="440" type="line"/>
			<point x="657" y="600"/>
			<point x="527" y="715"/>
			<point x="377" y="715" type="curve" smooth="yes"/>
			<point x="211" y="715"/>
			<point x="65" y="576"/>
			<point x="65" y="350" type="curve" smooth="yes"/>
			<point x="65" y="124"/>
			<point x="211" y="-16"/>
		</contour>
	</outline>
</glyph>
<glyph name="H" format="2">
	<advance width="656"/>
	<unicode hex="0048"/>
	<outline>
		<contour>
			<point x="508" y="0" type="line"/>
			<point x="566" y="0" type="line"/>
			<point x="566" y="700" type="line"/>
			<point x="508" y="700" type="line"/>
		</contour>
		<contour>
			<point x="90" y="0" type="line"/>
			<point x="148" y="0" type="line"/>
			<point x="148" y="700" type="line"/>
			<point x="90" y="700" type="line"/>
		</contour>
		<contour>
			<point x="128" y="337" type="line"/>
			<point x="528" y="337" type="line"/>
			<point x="528" y="390" type="line"/>
			<point x="128" y="390" type="line"/>
		</contour>
	</outline>
</glyph>
<glyph name="J" format="2">
	<advance width="545"/>
	<unicode hex="004A"/>
	<outline>
		<contour>
			<point x="253" y="-16" type="curve" smooth="yes"/>
			<point x="383" y="-16"/>
			<point x="460" y="62"/>
			<point x="460" y="202" type="curve" smooth="yes"/>
			<point x="460" y="700" type="line"/>
			<point x="402" y="700" type="line"/>
			<point x="402" y="202" type="line" smooth="yes"/>
			<point x="402" y="92"/>
			<point x="343" y="37"/>
			<point x="253" y="37" type="curve" smooth="yes"/>
			<point x="163" y="37"/>
			<point x="103" y="92"/>
			<point x="103" y="202" type="curve" smooth="yes"/>
			<point x="103" y="270" type="line"/>
			<point x="45" y="270" type="line"/>
			<point x="45" y="202" type="line" smooth="yes"/>
			<point x="45" y="62"/>
			<point x="123" y="-16"/>
		</contour>
	</outline>
</glyph>
<glyph name="K" format="2">
	<advance width="587"/>
	<unicode hex="004B"/>
	<outline>
		<contour>
			<point x="148" y="248" type="line"/>
			<point x="530" y="700" type="line"/>
			<point x="467" y="700" type="line"/>
			<point x="110" y="281" type="line"/>
		</contour>
		<contour>
			<point x="90" y="0" type="line"/>
			<point x="148" y="0" type="line"/>
			<point x="148" y="700" type="line"/>
			<point x="90" y="700" type="line"/>
		</contour>
		<contour>
			<point x="496" y="0" type="line"/>
			<point x="562" y="0" type="line"/>
			<point x="280" y="437" type="line"/>
			<point x="249" y="388" type="line"/>
		</contour>
	</outline>
</glyph>
<glyph name="L" format="2">
	<advance width="498"/>
	<unicode hex="004C"/>
	<outline>
		<contour>
			<point x="90" y="0" type="line"/>
			<point x="148" y="0" type="line"/>
			<point x="148" y="700" type="line"/>
			<point x="90" y="700" type="line"/>
		</contour>
		<contour>
			<point x="133" y="0" type="line"/>
			<point x="473" y="0" type="line"/>
			<point x="473" y="53" type="line"/>
			<point x="133" y="53" type="line"/>
		</contour>
	</outline>
</glyph>
<glyph name="M" format="2">
	<advance width="818"/>
	<unicode hex="004D"/>
	<outline>
		<contour>
			<point x="90" y="0" type="line"/>
			<point x="148" y="0" type="line"/>
			<point x="148" y="632" type="line"/>
			<point x="145" y="632" type="line"/>
			<point x="386" y="0" type="line"/>
			<point x="432" y="0" type="line"/>
			<point x="673" y="632" type="line"/>
			<point x="670" y="632" type="line"/>
			<point x="670" y="0" type="line"/>
			<point x="728" y="0" type="line"/>
			<point x="728" y="700" type="line"/>
			<point x="641" y="700" type="line"/>
			<point x="405" y="81" type="line"/>
			<point x="413" y="81" type="line"/>
			<point x="176" y="700" type="line"/>
			<point x="90" y="700" type="line"/>
		</contour>
	</outline>
</glyph>
<glyph name="N" format="2">
	<advance width="701"/>
	<unicode hex="004E"/>
	<outline>
		<contour>
			<point x="533" y="0" type="line"/>
			<point x="593" y="0" type="line"/>
			<point x="168" y="700" type="line"/>
			<point x="108" y="700" type="line"/>
		</contour>
		<contour>
			<point x="90" y="0" type="line"/>
			<point x="149" y="0" type="line"/>
			<point x="149" y="700" type="line"/>
			<point x="90" y="700" type="line"/>
		</contour>
		<contour>
			<point x="552" y="0" type="line"/>
			<point x="611" y="0" type="line"/>
			<point x="611" y="700" type="line"/>
			<point x="552" y="700" type="line"/>
		</contour>
	</outline>
</glyph>
<glyph name="O" format="2">
	<advance width="754"/>
	<unicode hex="004F"/>
	<outline>
		<contour>
			<point x="377" y="-16" type="curve" smooth="yes"/>
			<point x="547" y="-16"/>
			<point x="689" y="120"/>
			<point x="689" y="350" type="curve" smooth="yes"/>
			<point x="689" y="580"/>
			<point x="547" y="716"/>
			<point x="377" y="716" type="curve" smooth="yes"/>
			<point x="207" y="716"/>
			<point x="65" y="580"/>
			<point x="65" y="350" type="curve" smooth="yes"/>
			<point x="65" y="120"/>
			<point x="207" y="-16"/>
		</contour>
		<contour>
			<point x="377" y="37" type="curve" smooth="yes"/>
			<point x="217" y="37"/>
			<point x="123" y="180"/>
			<point x="123" y="350" type="curve" smooth="yes"/>
			<point x="123" y="520"/>
			<point x="217" y="663"/>
			<point x="377" y="663" type="curve" smooth="yes"/>
			<point x="537" y="663"/>
			<point x="631" y="520"/>
			<point x="631" y="350" type="curve" smooth="yes"/>
			<point x="631" y="180"/>
			<point x="537" y="37"/>
		</contour>
	</outline>
</glyph>
<glyph name="P" format="2">
	<advance width="566"/>
	<unicode hex="0050"/>
	<outline>
		<contour>
			<point x="123" y="329" type="line"/>
			<point x="300" y="329" type="line" smooth="yes"/>
			<point x="427" y="329"/>
			<point x="521" y="395"/>
			<point x="521" y="514" type="curve" smooth="yes"/>
			<point x="521" y="643"/>
			<point x="427" y="700"/>
			<point x="300" y="700" type="curve" smooth="yes"/>
			<point x="123" y="700" type="line"/>
			<point x="123" y="647" type="line"/>
			<point x="300" y="647" type="line" smooth="yes"/>
			<point x="394" y="647"/>
			<point x="463" y="611"/>
			<point x="463" y="514" type="curve" smooth="yes"/>
			<point x="463" y="417"/>
			<point x="394" y="382"/>
			<point x="300" y="382" type="curve" smooth="yes"/>
			<point x="123" y="382" type="line"/>
		</contour>
		<contour>
			<point x="90" y="0" type="line"/>
			<point x="148" y="0" type="line"/>
			<point x="148" y="700" type="line"/>
			<point x="90" y="700" type="line"/>
		</contour>
	</outline>
</glyph>
<glyph name="Q" format="2">
	<advance width="775"/>
	<unicode hex="0051"/>
	<outline>
		<contour>
			<point x="668" y="-66" type="line"/>
			<point x="730" y="-66" type="line"/>
			<point x="401" y="346" type="line"/>
			<point x="339" y="346" type="line"/>
		</contour>
		<component base="O"/>
	</outline>
</glyph>
<glyph name="R" format="2">
	<advance width="600"/>
	<unicode hex="0052"/>
	<outline>
		<contour>
			<point x="90" y="0" type="line"/>
			<point x="148" y="0" type="line"/>
			<point x="148" y="329" type="line"/>
			<point x="321" y="329" type="line" smooth="yes"/>
			<point x="445" y="329"/>
			<point x="457" y="268"/>
			<point x="461" y="185" type="curve" smooth="yes"/>
			<point x="470" y="0" type="line"/>
			<point x="530" y="0" type="line"/>
			<point x="521" y="168" type="line" smooth="yes"/>
			<point x="513" y="317"/>
			<point x="481" y="352"/>
			<point x="355" y="352" type="curve"/>
			<point x="355" y="350" type="line"/>
			<point x="443" y="350"/>
			<point x="521" y="401"/>
			<point x="521" y="514" type="curve" smooth="yes"/>
			<point x="521" y="643"/>
			<point x="427" y="700"/>
			<point x="300" y="700" type="curve" smooth="yes"/>
			<point x="90" y="700" type="line"/>
		</contour>
		<contour>
			<point x="148" y="382" type="line"/>
			<point x="148" y="647" type="line"/>
			<point x="300" y="647" type="line" smooth="yes"/>
			<point x="394" y="647"/>
			<point x="463" y="611"/>
			<point x="463" y="514" type="curve" smooth="yes"/>
			<point x="463" y="417"/>
			<point x="394" y="382"/>
			<point x="300" y="382" type="curve" smooth="yes"/>
		</contour>
	</outline>
</glyph>
<glyph name="S" format="2">
	<advance width="581"/>
	<unicode hex="0053"/>
	<outline>
		<contour>
			<point x="305" y="-16" type="curve" smooth="yes"/>
			<point x="441" y="-16"/>
			<point x="526" y="75"/>
			<point x="526" y="171" type="curve" smooth="yes"/>
			<point x="526" y="423"/>
			<point x="147" y="362"/>
			<point x="147" y="548" type="curve" smooth="yes"/>
			<point x="147" y="625"/>
			<point x="211" y="663"/>
			<point x="295" y="663" type="curve" smooth="yes"/>
			<point x="397" y="663"/>
			<point x="441" y="599"/>
			<point x="441" y="509" type="curve"/>
			<point x="499" y="517" type="line"/>
			<point x="499" y="627"/>
			<point x="428" y="716"/>
			<point x="295" y="716" type="curve" smooth="yes"/>
			<point x="178" y="716"/>
			<point x="89" y="653"/>
			<point x="89" y="548" type="curve" smooth="yes"/>
			<point x="89" y="313"/>
			<point x="468" y="381"/>
			<point x="468" y="171" type="curve" smooth="yes"/>
			<point x="468" y="84"/>
			<point x="389" y="37"/>
			<point x="305" y="37" type="curve" smooth="yes"/>
			<point x="175" y="37"/>
			<point x="112" y="136"/>
			<point x="108" y="265" type="curve"/>
			<point x="50" y="257" type="line"/>
			<point x="53" y="114"/>
			<point x="134" y="-16"/>
		</contour>
	</outline>
</glyph>
<glyph name="T" format="2">
	<advance width="608"/>
	<unicode hex="0054"/>
	<outline>
		<contour>
			<point x="275" y="0" type="line"/>
			<point x="333" y="0" type="line"/>
			<point x="333" y="657" type="line"/>
			<point x="275" y="657" type="line"/>
		</contour>
		<contour>
			<point x="25" y="647" type="line"/>
			<point x="583" y="647" type="line"/>
			<point x="583" y="700" type="line"/>
			<point x="25" y="700" type="line"/>
		</contour>
	</outline>
</glyph>
<glyph name="U" format="2">
	<advance width="645"/>
	<unicode hex="0055"/>
	<outline>
		<contour>
			<point x="323" y="-16" type="curve" smooth="yes"/>
			<point x="459" y="-16"/>
			<point x="560" y="67"/>
			<point x="560" y="242" type="curve" smooth="yes"/>
			<point x="560" y="700" type="line"/>
			<point x="502" y="700" type="line"/>
			<point x="502" y="242" type="line" smooth="yes"/>
			<point x="502" y="96"/>
			<point x="417" y="37"/>
			<point x="323" y="37" type="curve" smooth="yes"/>
			<point x="229" y="37"/>
			<point x="143" y="96"/>
			<point x="143" y="242" type="curve" smooth="yes"/>
			<point x="143" y="700" type="line"/>
			<point x="85" y="700" type="line"/>
			<point x="85" y="242" type="line" smooth="yes"/>
			<point x="85" y="67"/>
			<point x="187" y="-16"/>
		</contour>
	</outline>
</glyph>
<glyph name="V" format="2">
	<advance width="584"/>
	<unicode hex="0056"/>
	<outline>
		<contour>
			<point x="251" y="0" type="line"/>
			<point x="333" y="0" type="line"/>
			<point x="559" y="700" type="line"/>
			<point x="502" y="700" type="line"/>
			<point x="288" y="36" type="line"/>
			<point x="295" y="36" type="line"/>
			<point x="82" y="700" type="line"/>
			<point x="25" y="700" type="line"/>
		</contour>
	</outline>
</glyph>
<glyph name="W" format="2">
	<advance width="819"/>
	<unicode hex="0057"/>
	<outline>
		<contour>
			<point x="207" y="0" type="line"/>
			<point x="276" y="0" type="line"/>
			<point x="410" y="587" type="line"/>
			<point x="409" y="587" type="line"/>
			<point x="543" y="0" type="line"/>
			<point x="612" y="0" type="line"/>
			<point x="779" y="700" type="line"/>
			<point x="726" y="700" type="line"/>
			<point x="572" y="38" type="line"/>
			<point x="589" y="38" type="line"/>
			<point x="439" y="700" type="line"/>
			<point x="380" y="700" type="line"/>
			<point x="230" y="38" type="line"/>
			<point x="251" y="38" type="line"/>
			<point x="93" y="700" type="line"/>
			<point x="40" y="700" type="line"/>
		</contour>
	</outline>
</glyph>
<glyph name="X" format="2">
	<advance width="569"/>
	<unicode hex="0058"/>
	<outline>
		<contour>
			<point x="482" y="0" type="line"/>
			<point x="544" y="0" type="line"/>
			<point x="87" y="700" type="line"/>
			<point x="25" y="700" type="line"/>
		</contour>
		<contour>
			<point x="25" y="0" type="line"/>
			<point x="87" y="0" type="line"/>
			<point x="544" y="700" type="line"/>
			<point x="482" y="700" type="line"/>
		</contour>
	</outline>
</glyph>
<glyph name="Y" format="2">
	<advance width="530"/>
	<unicode hex="0059"/>
	<outline>
		<contour>
			<point x="150" y="0" type="line"/>
			<point x="208" y="0" type="line"/>
			<point x="505" y="700" type="line"/>
			<point x="447" y="700" type="line"/>
		</contour>
		<contour>
			<point x="244" y="187" type="line"/>
			<point x="277" y="247" type="line"/>
			<point x="83" y="700" type="line"/>
			<point x="25" y="700" type="line"/>
		</contour>
	</outline>
</glyph>
<glyph name="Z" format="2">
	<advance width="570"/>
	<unicode hex="005A"/>
	<outline>
		<contour>
			<point x="65" y="53" type="line"/>
			<point x="128" y="53" type="line"/>
			<point x="495" y="647" type="line"/>
			<point x="432" y="647" type="line"/>
		</contour>
		<contour>
			<point x="65" y="0" type="line"/>
			<point x="495" y="0" type="line"/>
			<point x="495" y="53" type="line"/>
			<point x="65" y="53" type="line"/>
		</contour>
		<contour>
			<point x="65" y="647" type="line"/>
			<point x="495" y="647" type="line"/>
			<point x="495" y="700" type="line"/>
			<point x="65" y="700" type="line"/>
		</contour>
	</outline>
</glyph>
<glyph name="bracketleft" format="2">
	<advance width="363"/>
	<unicode hex="005B"/>
	<outline>
		<contour>
			<point x="105" y="-110" type="line"/>
			<point x="160" y="-110" type="line"/>
			<point x="160" y="716" type="line"/>
			<point x="105" y="716" type="line"/>
		</contour>
		<contour>
			<point x="150" y="-110" type="line"/>
			<point x="308" y="-110" type="line"/>
			<point x="308" y="-57" type="line"/>
			<point x="150" y="-57" type="line"/>
		</contour>
		<contour>
			<point x="150" y="664" type="line"/>
			<point x="308" y="664" type="line"/>
			<point x="308" y="716" type="line"/>
			<point x="150" y="716" type="line"/>
		</contour>
	</outline>
</glyph>
<glyph name="backslash" format="2">
	<advance width="474"/>
	<unicode hex="005C"/>
	<outline>
		<contour>
			<point x="362" y="-110" type="line"/>
			<point x="419" y="-110" type="line"/>
			<point x="112" y="716" type="line"/>
			<point x="55" y="716" type="line"/>
		</contour>
	</outline>
</glyph>
<glyph name="bracketright" format="2">
	<advance width="363"/>
	<unicode hex="005D"/>
	<outline>
		<contour>
			<point x="203" y="-110" type="line"/>
			<point x="258" y="-110" type="line"/>
			<point x="258" y="716" type="line"/>
			<point x="203" y="716" type="line"/>
		</contour>
		<contour>
			<point x="55" y="-110" type="line"/>
			<point x="213" y="-110" type="line"/>
			<point x="213" y="-57" type="line"/>
			<point x="55" y="-57" type="line"/>
		</contour>
		<contour>
			<point x="55" y="664" type="line"/>
			<point x="213" y="664" type="line"/>
			<point x="213" y="716" type="line"/>
			<point x="55" y="716" type="line"/>
		</contour>
	</outline>
</glyph>
<glyph name="underscore" format="2">
	<advance width="315"/>
	<unicode hex="005F"/>
	<outline>
		<contour>
			<point x="0" y="-69" type="line"/>
			<point x="315" y="-69" type="line"/>
			<point x="315" y="-16" type="line"/>
			<point x="0" y="-16" type="line"/>
		</contour>
	</outline>
</glyph>
<glyph name="grave" format="2">
	<advance width="400"/>
	<unicode hex="0060"/>
	<outline>
		<contour>
			<point x="218" y="590" type="line"/>
			<point x="260" y="590" type="line"/>
			<point x="208" y="720" type="line"/>
			<point x="140" y="720" type="line"/>
		</contour>
	</outline>
</glyph>
<glyph name="a" format="2">
	<advance width="516"/>
	<unicode hex="0061"/>
	<outline>
		<contour>
			<point x="214" y="-16" type="curve" smooth="yes"/>
			<point x="319" y="-16"/>
			<point x="401" y="63"/>
			<point x="401" y="180" type="curve"/>
			<point x="391" y="129" type="line"/>
			<point x="391" y="0" type="line"/>
			<point x="446" y="0" type="line"/>
			<point x="446" y="331" type="line" smooth="yes"/>
			<point x="446" y="471"/>
			<point x="373" y="516"/>
			<point x="263" y="516" type="curve" smooth="yes"/>
			<point x="150" y="516"/>
			<point x="72" y="447"/>
			<point x="68" y="357" type="curve"/>
			<point x="121" y="349" type="line"/>
			<point x="127" y="428"/>
			<point x="183" y="463"/>
			<point x="263" y="463" type="curve" smooth="yes"/>
			<point x="337" y="463"/>
			<point x="382" y="436"/>
			<point x="389" y="380" type="curve" smooth="yes"/>
			<point x="393" y="340"/>
			<point x="375" y="302"/>
			<point x="286" y="298" type="curve" smooth="yes"/>
			<point x="176" y="293"/>
			<point x="55" y="262"/>
			<point x="55" y="135" type="curve" smooth="yes"/>
			<point x="55" y="49"/>
			<point x="118" y="-16"/>
		</contour>
		<contour>
			<point x="224" y="37" type="curve" smooth="yes"/>
			<point x="160" y="37"/>
			<point x="113" y="78"/>
			<point x="113" y="135" type="curve" smooth="yes"/>
			<point x="113" y="224"/>
			<point x="202" y="243"/>
			<point x="273" y="245" type="curve" smooth="yes"/>
			<point x="322" y="247"/>
			<point x="401" y="251"/>
			<point x="401" y="339" type="curve"/>
			<point x="391" y="299" type="line"/>
			<point x="391" y="233" type="line" smooth="yes"/>
			<point x="391" y="107"/>
			<point x="319" y="37"/>
		</contour>
	</outline>
</glyph>
<glyph name="c" format="2">
	<advance width="535"/>
	<unicode hex="0063"/>
	<outline>
		<contour>
			<point x="276" y="-16" type="curve" smooth="yes"/>
			<point x="396" y="-16"/>
			<point x="472" y="69"/>
			<point x="485" y="188" type="curve"/>
			<point x="427" y="196" type="line"/>
			<point x="418" y="106"/>
			<point x="376" y="37"/>
			<point x="276" y="37" type="curve" smooth="yes"/>
			<point x="156" y="37"/>
			<point x="108" y="144"/>
			<point x="108" y="248" type="curve" smooth="yes"/>
			<point x="108" y="351"/>
			<point x="156" y="463"/>
			<point x="276" y="463" type="curve" smooth="yes"/>
			<point x="376" y="463"/>
			<point x="418" y="388"/>
			<point x="427" y="298" type="curve"/>
			<point x="485" y="306" type="line"/>
			<point x="472" y="425"/>
			<point x="396" y="516"/>
			<point x="276" y="516" type="curve" smooth="yes"/>
			<point x="156" y="516"/>
			<point x="50" y="428"/>
			<point x="50" y="248" type="curve" smooth="yes"/>
			<point x="50" y="68"/>
			<point x="156" y="-16"/>
		</contour>
	</outline>
</glyph>
<glyph name="e" format="2">
	<advance width="531"/>
	<unicode hex="0065"/>
	<outline>
		<contour>
			<point x="276" y="-16" type="curve" smooth="yes"/>
			<point x="396" y="-16"/>
			<point x="454" y="48"/>
			<point x="476" y="135" type="curve"/>
			<point x="417" y="143" type="line"/>
			<point x="403" y="95"/>
			<point x="376" y="37"/>
			<point x="276" y="37" type="curve" smooth="yes"/>
			<point x="166" y="37"/>
			<point x="108" y="140"/>
			<point x="108" y="240" type="curve"/>
			<point x="481" y="240" type="line"/>
			<point x="481" y="248" type="line" smooth="yes"/>
			<point x="481" y="428"/>
			<point x="387" y="516"/>
			<point x="267" y="516" type="curve" smooth="yes"/>
			<point x="147" y="516"/>
			<point x="50" y="418"/>
			<point x="50" y="248" type="curve" smooth="yes"/>
			<point x="50" y="78"/>
			<point x="156" y="-16"/>
		</contour>
		<contour>
			<point x="108" y="288" type="line"/>
			<point x="108" y="358"/>
			<point x="147" y="463"/>
			<point x="267" y="463" type="curve" smooth="yes"/>
			<point x="387" y="463"/>
			<point x="423" y="358"/>
			<point x="423" y="288" type="curve"/>
		</contour>
	</outline>
</glyph>
<glyph name="f" format="2">
	<advance width="363"/>
	<unicode hex="0066"/>
	<outline>
		<contour>
			<point x="133" y="0" type="line"/>
			<point x="188" y="0" type="line"/>
			<point x="188" y="587" type="line" smooth="yes"/>
			<point x="188" y="632"/>
			<point x="213" y="657"/>
			<point x="258" y="657" type="curve" smooth="yes"/>
			<point x="338" y="657" type="line"/>
			<point x="338" y="710" type="line"/>
			<point x="263" y="710" type="line" smooth="yes"/>
			<point x="177" y="710"/>
			<point x="133" y="666"/>
			<point x="133" y="580" type="curve" smooth="yes"/>
		</contour>
		<contour>
			<point x="25" y="447" type="line"/>
			<point x="338" y="447" type="line"/>
			<point x="338" y="500" type="line"/>
			<point x="25" y="500" type="line"/>
		</contour>
	</outline>
</glyph>
<glyph name="k" format="2">
	<advance width="498"/>
	<unicode hex="006B"/>
	<outline>
		<contour>
			<point x="102" y="127" type="line"/>
			<point x="450" y="500" type="line"/>
			<point x="383" y="500" type="line"/>
			<point x="102" y="201" type="line"/>
		</contour>
		<contour>
			<point x="80" y="0" type="line"/>
			<point x="135" y="0" type="line"/>
			<point x="135" y="700" type="line"/>
			<point x="80" y="700" type="line"/>
		</contour>
		<contour>
			<point x="404" y="0" type="line"/>
			<point x="468" y="0" type="line"/>
			<point x="268" y="343" type="line"/>
			<point x="239" y="290" type="line"/>
		</contour>
	</outline>
</glyph>
<glyph name="l" format="2">
	<advance width="215"/>
	<unicode hex="006C"/>
	<outline>
		<contour>
			<point x="80" y="0" type="line"/>
			<point x="135" y="0" type="line"/>
			<point x="135" y="710" type="line"/>
			<point x="80" y="710" type="line"/>
		</contour>
	</outline>
</glyph>
<glyph name="m" format="2">
	<advance width="846"/>
	<unicode hex="006D"/>
	<outline>
		<contour>
			<point x="80" y="0" type="line"/>
			<point x="135" y="0" type="line"/>
			<point x="135" y="500" type="line"/>
			<point x="80" y="500" type="line"/>
		</contour>
		<contour>
			<point x="398" y="0" type="line"/>
			<point x="453" y="0" type="line"/>
			<point x="453" y="339" type="line" smooth="yes"/>
			<point x="453" y="459"/>
			<point x="390" y="516"/>
			<point x="300" y="516" type="curve" smooth="yes"/>
			<point x="200" y="516"/>
			<point x="125" y="449"/>
			<point x="125" y="319" type="curve"/>
			<point x="135" y="243" type="line"/>
			<point x="135" y="403"/>
			<point x="200" y="463"/>
			<point x="285" y="463" type="curve" smooth="yes"/>
			<point x="365" y="463"/>
			<point x="398" y="409"/>
			<point x="398" y="309" type="curve" smooth="yes"/>
		</contour>
		<contour>
			<point x="716" y="0" type="line"/>
			<point x="771" y="0" type="line"/>
			<point x="771" y="339" type="line" smooth="yes"/>
			<point x="771" y="459"/>
			<point x="708" y="516"/>
			<point x="618" y="516" type="curve" smooth="yes"/>
			<point x="518" y="516"/>
			<point x="443" y="449"/>
			<point x="443" y="319" type="curve"/>
			<point x="453" y="243" type="line"/>
			<point x="453" y="403"/>
			<point x="518" y="463"/>
			<point x="603" y="463" type="curve" smooth="yes"/>
			<point x="683" y="463"/>
			<point x="716" y="409"/>
			<point x="716" y="309" type="curve" smooth="yes"/>
		</contour>
	</outline>
</glyph>
<glyph name="n" format="2">
	<advance width="538"/>
	<unicode hex="006E"/>
	<outline>
		<contour>
			<point x="408" y="0" type="line"/>
			<point x="463" y="0" type="line"/>
			<point x="463" y="339" type="line" smooth="yes"/>
			<point x="463" y="459"/>
			<point x="400" y="516"/>
			<point x="310" y="516" type="curve" smooth="yes"/>
			<point x="210" y="516"/>
			<point x="125" y="449"/>
			<point x="125" y="319" type="curve"/>
			<point x="135" y="243" type="line"/>
			<point x="135" y="403"/>
			<point x="210" y="463"/>
			<point x="295" y="463" type="curve" smooth="yes"/>
			<point x="375" y="463"/>
			<point x="408" y="409"/>
			<point x="408" y="309" type="curve" smooth="yes"/>
		</contour>
		<contour>
			<point x="80" y="0" type="line"/>
			<point x="135" y="0" type="line"/>
			<point x="135" y="500" type="line"/>
			<point x="80" y="500" type="line"/>
		</contour>
	</outline>
</glyph>
<glyph name="o" format="2">
	<advance width="552"/>
	<unicode hex="006F"/>
	<outline>
		<contour>
			<point x="276" y="-16" type="curve" smooth="yes"/>
			<point x="393" y="-16"/>
			<point x="502" y="75"/>
			<point x="502" y="250" type="curve" smooth="yes"/>
			<point x="502" y="425"/>
			<point x="393" y="516"/>
			<point x="276" y="516" type="curve" smooth="yes"/>
			<point x="159" y="516"/>
			<point x="50" y="425"/>
			<point x="50" y="250" type="curve" smooth="yes"/>
			<point x="50" y="75"/>
			<point x="159" y="-16"/>
		</contour>
		<contour>
			<point x="276" y="37" type="curve" smooth="yes"/>
			<point x="159" y="37"/>
			<point x="108" y="136"/>
			<point x="108" y="250" type="curve" smooth="yes"/>
			<point x="108" y="364"/>
			<point x="159" y="463"/>
			<point x="276" y="463" type="curve" smooth="yes"/>
			<point x="393" y="463"/>
			<point x="444" y="364"/>
			<point x="444" y="250" type="curve" smooth="yes"/>
			<point x="444" y="136"/>
			<point x="393" y="37"/>
		</contour>
	</outline>
</glyph>
<glyph name="q" format="2">
	<advance width="571"/>
	<unicode hex="0071"/>
	<outline>
		<contour>
			<point x="436" y="-200" type="line"/>
			<point x="491" y="-200" type="line"/>
			<point x="491" y="500" type="line"/>
			<point x="436" y="500" type="line"/>
		</contour>
		<contour>
			<point x="262" y="-16" type="curve" smooth="yes"/>
			<point x="362" y="-16"/>
			<point x="446" y="70"/>
			<point x="446" y="170" type="curve" smooth="yes"/>
			<point x="446" y="330" type="line" smooth="yes"/>
			<point x="446" y="430"/>
			<point x="362" y="516"/>
			<point x="262" y="516" type="curve" smooth="yes"/>
			<point x="132" y="516"/>
			<point x="50" y="390"/>
			<point x="50" y="250" type="curve" smooth="yes"/>
			<point x="50" y="110"/>
			<point x="132" y="-16"/>
		</contour>
		<contour>
			<point x="272" y="37" type="curve" smooth="yes"/>
			<point x="182" y="37"/>
			<point x="108" y="115"/>
			<point x="108" y="250" type="curve" smooth="yes"/>
			<point x="108" y="385"/>
			<point x="182" y="463"/>
			<point x="272" y="463" type="curve" smooth="yes"/>
			<point x="352" y="463"/>
			<point x="436" y="390"/>
			<point x="436" y="250" type="curve" smooth="yes"/>
			<point x="436" y="110"/>
			<point x="352" y="37"/>
		</contour>
	</outline>
</glyph>
<glyph name="r" format="2">
	<advance width="368"/>
	<unicode hex="0072"/>
	<outline>
		<contour>
			<point x="85" y="0" type="line"/>
			<point x="140" y="0" type="line"/>
			<point x="140" y="238" type="line" smooth="yes"/>
			<point x="140" y="372"/>
			<point x="184" y="447"/>
			<point x="271" y="447" type="curve" smooth="yes"/>
			<point x="343" y="447" type="line"/>
			<point x="343" y="500" type="line"/>
			<point x="261" y="500" type="line" smooth="yes"/>
			<point x="188" y="500"/>
			<point x="132" y="413"/>
			<point x="132" y="285" type="curve"/>
			<point x="140" y="346" type="line"/>
			<point x="140" y="500" type="line"/>
			<point x="85" y="500" type="line"/>
		</contour>
	</outline>
</glyph>
<glyph name="s" format="2">
	<advance width="498"/>
	<unicode hex="0073"/>
	<outline>
		<contour>
			<point x="256" y="-16" type="curve" smooth="yes"/>
			<point x="366" y="-16"/>
			<point x="448" y="46"/>
			<point x="448" y="146" type="curve" smooth="yes"/>
			<point x="448" y="336"/>
			<point x="124" y="253"/>
			<point x="124" y="373" type="curve" smooth="yes"/>
			<point x="124" y="433"/>
			<point x="172" y="463"/>
			<point x="246" y="463" type="curve" smooth="yes"/>
			<point x="313" y="463"/>
			<point x="369" y="436"/>
			<point x="374" y="373" type="curve"/>
			<point x="428" y="381" type="line"/>
			<point x="423" y="468"/>
			<point x="346" y="516"/>
			<point x="246" y="516" type="curve" smooth="yes"/>
			<point x="146" y="516"/>
			<point x="66" y="453"/>
			<point x="66" y="373" type="curve" smooth="yes"/>
			<point x="66" y="203"/>
			<point x="390" y="276"/>
			<point x="390" y="146" type="curve" smooth="yes"/>
			<point x="390" y="66"/>
			<point x="336" y="37"/>
			<point x="256" y="37" type="curve" smooth="yes"/>
			<point x="156" y="37"/>
			<point x="104" y="90"/>
			<point x="98" y="169" type="curve"/>
			<point x="45" y="161" type="line"/>
			<point x="50" y="53"/>
			<point x="126" y="-16"/>
		</contour>
	</outline>
</glyph>
<glyph name="t" format="2">
	<advance width="368"/>
	<unicode hex="0074"/>
	<outline>
		<contour>
			<point x="258" y="0" type="curve" smooth="yes"/>
			<point x="333" y="0" type="line"/>
			<point x="333" y="53" type="line"/>
			<point x="253" y="53" type="line" smooth="yes"/>
			<point x="208" y="53"/>
			<point x="183" y="78"/>
			<point x="183" y="123" type="curve" smooth="yes"/>
			<point x="183" y="660" type="line"/>
			<point x="128" y="660" type="line"/>
			<point x="128" y="130" type="line" smooth="yes"/>
			<point x="128" y="44"/>
			<point x="172" y="0"/>
		</contour>
		<contour>
			<point x="20" y="447" type="line"/>
			<point x="333" y="447" type="line"/>
			<point x="333" y="500" type="line"/>
			<point x="20" y="500" type="line"/>
		</contour>
	</outline>
</glyph>
<glyph name="u" format="2">
	<advance width="533"/>
	<unicode hex="0075"/>
	<outline>
		<contour>
			<point x="223" y="-16" type="curve" smooth="yes"/>
			<point x="323" y="-16"/>
			<point x="408" y="51"/>
			<point x="408" y="181" type="curve"/>
			<point x="398" y="257" type="line"/>
			<point x="398" y="97"/>
			<point x="323" y="37"/>
			<point x="238" y="37" type="curve" smooth="yes"/>
			<point x="158" y="37"/>
			<point x="125" y="91"/>
			<point x="125" y="191" type="curve" smooth="yes"/>
			<point x="125" y="500" type="line"/>
			<point x="70" y="500" type="line"/>
			<point x="70" y="161" type="line" smooth="yes"/>
			<point x="70" y="41"/>
			<point x="133" y="-16"/>
		</contour>
		<contour>
			<point x="398" y="0" type="line"/>
			<point x="453" y="0" type="line"/>
			<point x="453" y="500" type="line"/>
			<point x="398" y="500" type="line"/>
		</contour>
	</outline>
</glyph>
<glyph name="v" format="2">
	<advance width="472"/>
	<unicode hex="0076"/>
	<outline>
		<contour>
			<point x="196" y="0" type="line"/>
			<point x="266" y="0" type="line"/>
			<point x="452" y="500" type="line"/>
			<point x="395" y="500" type="line"/>
			<point x="216" y="19" type="line"/>
			<point x="247" y="19" type="line"/>
			<point x="77" y="500" type="line"/>
			<point x="20" y="500" type="line"/>
		</contour>
	</outline>
</glyph>
<glyph name="w" format="2">
	<advance width="757"/>
	<unicode hex="0077"/>
	<outline>
		<contour>
			<point x="157" y="0" type="line"/>
			<point x="235" y="0" type="line"/>
			<point x="384" y="446" type="line"/>
			<point x="374" y="446" type="line"/>
			<point x="522" y="0" type="line"/>
			<point x="600" y="0" type="line"/>
			<point x="722" y="500" type="line"/>
			<point x="665" y="500" type="line"/>
			<point x="553" y="41" type="line"/>
			<point x="560" y="40" type="line"/>
			<point x="407" y="500" type="line"/>
			<point x="350" y="500" type="line"/>
			<point x="197" y="40" type="line"/>
			<point x="204" y="41" type="line"/>
			<point x="92" y="500" type="line"/>
			<point x="35" y="500" type="line"/>
		</contour>
	</outline>
</glyph>
<glyph name="x" format="2">
	<advance width="464"/>
	<unicode hex="0078"/>
	<outline>
		<contour>
			<point x="377" y="0" type="line"/>
			<point x="439" y="0" type="line"/>
			<point x="87" y="500" type="line"/>
			<point x="25" y="500" type="line"/>
		</contour>
		<contour>
			<point x="25" y="0" type="line"/>
			<point x="87" y="0" type="line"/>
			<point x="439" y="500" type="line"/>
			<point x="377" y="500" type="line"/>
		</contour>
	</outline>
</glyph>
<glyph name="y" format="2">
	<advance width="487"/>
	<unicode hex="0079"/>
	<outline>
		<contour>
			<point x="207" y="0" type="line"/>
			<point x="263" y="0" type="line"/>
			<point x="77" y="500" type="line"/>
			<point x="20" y="500" type="line"/>
		</contour>
		<contour>
			<point x="126" y="-200" type="line"/>
			<point x="182" y="-200" type="line"/>
			<point x="467" y="500" type="line"/>
			<point x="411" y="500" type="line"/>
		</contour>
	</outline>
</glyph>
<glyph name="z" format="2">
	<advance width="472"/>
	<unicode hex="007A"/>
	<outline>
		<contour>
			<point x="50" y="48" type="line"/>
			<point x="111" y="48" type="line"/>
			<point x="427" y="452" type="line"/>
			<point x="367" y="452" type="line"/>
		</contour>
		<contour>
			<point x="50" y="0" type="line"/>
			<point x="427" y="0" type="line"/>
			<point x="427" y="48" type="line"/>
			<point x="50" y="48" type="line"/>
		</contour>
		<contour>
			<point x="50" y="452" type="line"/>
			<point x="427" y="452" type="line"/>
			<point x="427" y="500" type="line"/>
			<point x="50" y="500" type="line"/>
		</contour>
	</outline>
</glyph>
<glyph name="braceleft" format="2">
	<advance width="433"/>
	<unicode hex="007B"/>
	<outline>
		<contour>
			<point x="105" y="303" type="line"/>
			<point x="164" y="303" type="line"/>
			<point x="204" y="323"/>
			<point x="248" y="358"/>
			<point x="248" y="438" type="curve"/>
			<point x="248" y="601" type="line" smooth="yes"/>
			<point x="248" y="650"/>
			<point x="273" y="663"/>
			<point x="310" y="663" type="curve" smooth="yes"/>
			<point x="378" y="663" type="line"/>
			<point x="378" y="716" type="line"/>
			<point x="310" y="716" type="line" smooth="yes"/>
			<point x="246" y="716"/>
			<point x="200" y="684"/>
			<point x="200" y="602" type="curve" smooth="yes"/>
			<point x="200" y="448" type="line"/>
			<point x="200" y="348"/>
			<point x="115" y="327"/>
			<point x="105" y="327" type="curve"/>
		</contour>
		<contour>
			<point x="310" y="-110" type="curve" smooth="yes"/>
			<point x="378" y="-110" type="line"/>
			<point x="378" y="-57" type="line"/>
			<point x="310" y="-57" type="line" smooth="yes"/>
			<point x="273" y="-57"/>
			<point x="248" y="-44"/>
			<point x="248" y="5" type="curve" smooth="yes"/>
			<point x="248" y="168" type="line"/>
			<point x="248" y="248"/>
			<point x="204" y="283"/>
			<point x="164" y="303" type="curve"/>
			<point x="105" y="303" type="line"/>
			<point x="105" y="279" type="line"/>
			<point x="115" y="279"/>
			<point x="200" y="258"/>
			<point x="200" y="158" type="curve"/>
			<point x="200" y="4" type="line" smooth="yes"/>
			<point x="200" y="-78"/>
			<point x="246" y="-110"/>
		</contour>
	</outline>
</glyph>
<glyph name="bar" format="2">
	<advance width="263"/>
	<unicode hex="007C"/>
	<outline>
		<contour>
			<point x="105" y="-96" type="line"/>
			<point x="158" y="-96" type="line"/>
			<point x="158" y="780" type="line"/>
			<point x="105" y="780" type="line"/>
		</contour>
	</outline>
</glyph>
<glyph name="braceright" format="2">
	<advance width="433"/>
	<unicode hex="007D"/>
	<outline>
		<contour>
			<point x="269" y="303" type="curve"/>
			<point x="328" y="303" type="line"/>
			<point x="328" y="327" type="line"/>
			<point x="318" y="327"/>
			<point x="233" y="348"/>
			<point x="233" y="448" type="curve"/>
			<point x="233" y="602" type="line" smooth="yes"/>
			<point x="233" y="684"/>
			<point x="187" y="716"/>
			<point x="123" y="716" type="curve" smooth="yes"/>
			<point x="55" y="716" type="line"/>
			<point x="55" y="663" type="line"/>
			<point x="123" y="663" type="line" smooth="yes"/>
			<point x="160" y="663"/>
			<point x="185" y="650"/>
			<point x="185" y="601" type="curve" smooth="yes"/>
			<point x="185" y="438" type="line"/>
			<point x="185" y="358"/>
			<point x="229" y="323"/>
		</contour>
		<contour>
			<point x="55" y="-110" type="line"/>
			<point x="123" y="-110" type="line" smooth="yes"/>
			<point x="187" y="-110"/>
			<point x="233" y="-78"/>
			<point x="233" y="4" type="curve" smooth="yes"/>
			<point x="233" y="158" type="line"/>
			<point x="233" y="258"/>
			<point x="318" y="279"/>
			<point x="328" y="279" type="curve"/>
			<point x="328" y="303" type="line"/>
			<point x="269" y="303" type="line"/>
			<point x="229" y="283"/>
			<point x="185" y="248"/>
			<point x="185" y="168" type="curve"/>
			<point x="185" y="5" type="line" smooth="yes"/>
			<point x="185" y="-44"/>
			<point x="160" y="-57"/>
			<point x="123" y="-57" type="curve" smooth="yes"/>
			<point x="55" y="-57" type="line"/>
		</contour>
	</outline>
</glyph>
<glyph name="asciitilde" format="2">
	<advance width="472"/>
	<unicode hex="007E"/>
	<outline>
		<contour>
			<point x="118" y="236" type="line"/>
			<point x="120" y="261"/>
			<point x="128" y="301"/>
			<point x="164" y="301" type="curve" smooth="yes"/>
			<point x="209" y="301"/>
			<point x="252" y="245"/>
			<point x="318" y="245" type="curve" smooth="yes"/>
			<point x="371" y="245"/>
			<point x="404" y="284"/>
			<point x="407" y="345" type="curve"/>
			<point x="354" y="353" type="line"/>
			<point x="354" y="328"/>
			<point x="351" y="288"/>
			<point x="308" y="288" type="curve" smooth="yes"/>
			<point x="263" y="288"/>
			<point x="220" y="344"/>
			<point x="154" y="344" type="curve" smooth="yes"/>
			<point x="99" y="344"/>
			<point x="68" y="305"/>
			<point x="65" y="244" type="curve"/>
		</contour>
	</outline>
</glyph>
<glyph name="cent" format="2">
	<advance width="535"/>
	<unicode hex="00A2"/>
	<outline>
		<contour>
			<point x="276" y="76" type="curve" smooth="yes"/>
			<point x="396" y="76"/>
			<point x="472" y="161"/>
			<point x="485" y="280" type="curve"/>
			<point x="427" y="288" type="line"/>
			<point x="418" y="198"/>
			<point x="376" y="129"/>
			<point x="276" y="129" type="curve" smooth="yes"/>
			<point x="156" y="129"/>
			<point x="108" y="236"/>
			<point x="108" y="340" type="curve" smooth="yes"/>
			<point x="108" y="443"/>
			<point x="156" y="555"/>
			<point x="276" y="555" type="curve" smooth="yes"/>
			<point x="376" y="555"/>
			<point x="418" y="480"/>
			<point x="427" y="390" type="curve"/>
			<point x="485" y="398" type="line"/>
			<point x="472" y="517"/>
			<point x="396" y="608"/>
			<point x="276" y="608" type="curve" smooth="yes"/>
			<point x="156" y="608"/>
			<point x="50" y="520"/>
			<point x="50" y="340" type="curve" smooth="yes"/>
			<point x="50" y="160"/>
			<point x="156" y="76"/>
		</contour>
		<contour>
			<point x="255" y="-116" type="line"/>
			<point x="298" y="-116" type="line"/>
			<point x="298" y="800" type="line"/>
			<point x="255" y="800" type="line"/>
		</contour>
	</outline>
</glyph>
<glyph name="sterling" format="2">
	<advance width="672"/>
	<unicode hex="00A3"/>
	<outline>
		<contour>
			<point x="85" y="0" type="line"/>
			<point x="567" y="0" type="line"/>
			<point x="567" y="53" type="line"/>
			<point x="140" y="53" type="line"/>
			<point x="130" y="44" type="line"/>
			<point x="340" y="189"/>
			<point x="200" y="316"/>
			<point x="200" y="514" type="curve" smooth="yes"/>
			<point x="200" y="614"/>
			<point x="273" y="663"/>
			<point x="365" y="663" type="curve" smooth="yes"/>
			<point x="474" y="663"/>
			<point x="528" y="576"/>
			<point x="534" y="496" type="curve"/>
			<point x="587" y="506" type="line"/>
			<point x="582" y="616"/>
			<point x="505" y="716"/>
			<point x="365" y="716" type="curve" smooth="yes"/>
			<point x="219" y="716"/>
			<point x="142" y="625"/>
			<point x="142" y="513" type="curve" smooth="yes"/>
			<point x="142" y="295"/>
			<point x="282" y="221"/>
			<point x="85" y="58" type="curve"/>
		</contour>
		<contour>
			<point x="25" y="307" type="line"/>
			<point x="444" y="307" type="line"/>
			<point x="444" y="360" type="line"/>
			<point x="25" y="360" type="line"/>
		</contour>
	</outline>
</glyph>
<glyph name="currency" format="2">
	<advance width="628"/>
	<unicode hex="00A4"/>
	<outline>
		<contour>
			<point x="314" y="88" type="curve" smooth="yes"/>
			<point x="428" y="88"/>
			<point x="520" y="180"/>
			<point x="520" y="294" type="curve" smooth="yes"/>
			<point x="520" y="408"/>
			<point x="428" y="500"/>
			<point x="314" y="500" type="curve" smooth="yes"/>
			<point x="200" y="500"/>
			<point x="108" y="408"/>
			<point x="108" y="294" type="curve" smooth="yes"/>
			<point x="108" y="180"/>
			<point x="200" y="88"/>
		</contour>
		<contour>
			<point x="122" y="65" type="line"/>
			<point x="198" y="139" type="line"/>
			<point x="170" y="188" type="line"/>
			<point x="85" y="103" type="line"/>
		</contour>
		<contour>
			<point x="506" y="65" type="line"/>
			<point x="543" y="103" type="line"/>
			<point x="466" y="180" type="line"/>
			<point x="423" y="148" type="line"/>
		</contour>
		<contour>
			<point x="315" y="141" type="curve" smooth="yes"/>
			<point x="230" y="141"/>
			<point x="161" y="210"/>
			<point x="161" y="295" type="curve" smooth="yes"/>
			<point x="161" y="379"/>
			<point x="230" y="448"/>
			<point x="315" y="448" type="curve" smooth="yes"/>
			<point x="399" y="448"/>
			<point x="468" y="379"/>
			<point x="468" y="295" type="curve" smooth="yes"/>
			<point x="468" y="210"/>
			<point x="399" y="141"/>
		</contour>
		<contour>
			<point x="163" y="408" type="line"/>
			<point x="203" y="442" type="line"/>
			<point x="123" y="523" type="line"/>
			<point x="85" y="486" type="line"/>
		</contour>
		<contour>
			<point x="467" y="410" type="line"/>
			<point x="543" y="486" type="line"/>
			<point x="505" y="523" type="line"/>
			<point x="428" y="446" type="line"/>
		</contour>
	</outline>
</glyph>
<glyph name="yen" format="2">
	<advance width="602"/>
	<unicode hex="00A5"/>
	<outline>
		<contour>
			<point x="317" y="260" type="line"/>
			<point x="577" y="700" type="line"/>
			<point x="513" y="700" type="line"/>
			<point x="288" y="319" type="line"/>
		</contour>
		<contour>
			<point x="92" y="270" type="line"/>
			<point x="510" y="270" type="line"/>
			<point x="510" y="313" type="line"/>
			<point x="92" y="313" type="line"/>
		</contour>
		<contour>
			<point x="92" y="147" type="line"/>
			<point x="510" y="147" type="line"/>
			<point x="510" y="190" type="line"/>
			<point x="92" y="190" type="line"/>
		</contour>
		<contour>
			<point x="272" y="0" type="line"/>
			<point x="330" y="0" type="line"/>
			<point x="330" y="324" type="line"/>
			<point x="272" y="324" type="line"/>
		</contour>
		<contour>
			<point x="285" y="260" type="line"/>
			<point x="314" y="319" type="line"/>
			<point x="89" y="700" type="line"/>
			<point x="25" y="700" type="line"/>
		</contour>
	</outline>
</glyph>
<glyph name="brokenbar" format="2">
	<advance width="263"/>
	<unicode hex="00A6"/>
	<outline>
		<contour>
			<point x="105" y="392" type="line"/>
			<point x="158" y="392" type="line"/>
			<point x="158" y="780" type="line"/>
			<point x="105" y="780" type="line"/>
		</contour>
		<contour>
			<point x="105" y="-96" type="line"/>
			<point x="158" y="-96" type="line"/>
			<point x="158" y="292" type="line"/>
			<point x="105" y="292" type="line"/>
		</contour>
	</outline>
</glyph>
<glyph name="section" format="2">
	<advance width="470"/>
	<unicode hex="00A7"/>
	<outline>
		<contour>
			<point x="299" y="182" type="line"/>
			<point x="319" y="184"/>
			<point x="415" y="202"/>
			<point x="415" y="288" type="curve" smooth="yes"/>
			<point x="415" y="457"/>
			<point x="126" y="437"/>
			<point x="126" y="568" type="curve" smooth="yes"/>
			<point x="126" y="613"/>
			<point x="165" y="663"/>
			<point x="231" y="663" type="curve" smooth="yes"/>
			<point x="293" y="663"/>
			<point x="342" y="620"/>
			<point x="347" y="551" type="curve"/>
			<point x="405" y="559" type="line"/>
			<point x="400" y="642"/>
			<point x="333" y="716"/>
			<point x="231" y="716" type="curve" smooth="yes"/>
			<point x="126" y="716"/>
			<point x="68" y="644"/>
			<point x="68" y="568" type="curve" smooth="yes"/>
			<point x="68" y="390"/>
			<point x="357" y="430"/>
			<point x="357" y="288" type="curve" smooth="yes"/>
			<point x="357" y="241"/>
			<point x="319" y="208"/>
			<point x="275" y="198" type="curve"/>
		</contour>
		<contour>
			<point x="239" y="-84" type="curve" smooth="yes"/>
			<point x="344" y="-84"/>
			<point x="402" y="-12"/>
			<point x="402" y="64" type="curve" smooth="yes"/>
			<point x="402" y="242"/>
			<point x="113" y="202"/>
			<point x="113" y="344" type="curve" smooth="yes"/>
			<point x="113" y="391"/>
			<point x="151" y="424"/>
			<point x="195" y="434" type="curve"/>
			<point x="171" y="450" type="line"/>
			<point x="151" y="448"/>
			<point x="55" y="430"/>
			<point x="55" y="344" type="curve" smooth="yes"/>
			<point x="55" y="175"/>
			<point x="344" y="195"/>
			<point x="344" y="64" type="curve" smooth="yes"/>
			<point x="344" y="19"/>
			<point x="305" y="-31"/>
			<point x="239" y="-31" type="curve" smooth="yes"/>
			<point x="177" y="-31"/>
			<point x="128" y="12"/>
			<point x="123" y="81" type="curve"/>
			<point x="65" y="73" type="line"/>
			<point x="70" y="-10"/>
			<point x="137" y="-84"/>
		</contour>
	</outline>
</glyph>
<glyph name="dieresis" format="2">
	<advance width="458"/>
	<unicode hex="00A8"/>
	<outline>
		<contour>
			<point x="258" y="590" type="line"/>
			<point x="318" y="590" type="line"/>
			<point x="318" y="650" type="line"/>
			<point x="258" y="650" type="line"/>
		</contour>
		<contour>
			<point x="140" y="590" type="line"/>
			<point x="200" y="590" type="line"/>
			<point x="200" y="650" type="line"/>
			<point x="140" y="650" type="line"/>
		</contour>
	</outline>
</glyph>
<glyph name="copyright" format="2">
	<advance width="842"/>
	<unicode hex="00A9"/>
	<outline>
		<contour>
			<point x="427" y="146" type="curve" smooth="yes"/>
			<point x="520" y="146"/>
			<point x="579" y="213"/>
			<point x="588" y="296" type="curve"/>
			<point x="537" y="297" type="line"/>
			<point x="530" y="244"/>
			<point x="501" y="193"/>
			<point x="427" y="193" type="curve" smooth="yes"/>
			<point x="340" y="193"/>
			<point x="305" y="271"/>
			<point x="305" y="348" type="curve" smooth="yes"/>
			<point x="305" y="424"/>
			<point x="340" y="505"/>
			<point x="427" y="505" type="curve" smooth="yes"/>
			<point x="501" y="505"/>
			<point x="530" y="450"/>
			<point x="537" y="398" type="curve"/>
			<point x="588" y="398" type="line"/>
			<point x="579" y="480"/>
			<point x="521" y="553"/>
			<point x="427" y="553" type="curve" smooth="yes"/>
			<point x="335" y="553"/>
			<point x="253" y="485"/>
			<point x="253" y="348" type="curve" smooth="yes"/>
			<point x="253" y="211"/>
			<point x="335" y="146"/>
		</contour>
		<component base="whiteCircle" xOffset="-30"/>
	</outline>
</glyph>
<glyph name="logicalnot" format="2">
	<advance width="651"/>
	<unicode hex="00AC"/>
	<outline>
		<contour>
			<point x="105" y="280" type="line"/>
			<point x="546" y="280" type="line"/>
			<point x="546" y="326" type="line"/>
			<point x="105" y="326" type="line"/>
		</contour>
		<contour>
			<point x="500" y="86" type="line"/>
			<point x="546" y="86" type="line"/>
			<point x="546" y="290" type="line"/>
			<point x="500" y="290" type="line"/>
		</contour>
	</outline>
</glyph>
<glyph name="registered" format="2">
	<advance width="540"/>
	<unicode hex="00AE"/>
	<outline>
		<contour>
			<point x="270" y="286" type="curve" smooth="yes"/>
			<point x="390" y="286"/>
			<point x="485" y="381"/>
			<point x="485" y="501" type="curve" smooth="yes"/>
			<point x="485" y="621"/>
			<point x="390" y="716"/>
			<point x="270" y="716" type="curve" smooth="yes"/>
			<point x="151" y="716"/>
			<point x="55" y="621"/>
			<point x="55" y="501" type="curve" smooth="yes"/>
			<point x="55" y="381"/>
			<point x="151" y="286"/>
		</contour>
		<contour>
			<point x="270" y="313" type="curve" smooth="yes"/>
			<point x="165" y="313"/>
			<point x="82" y="396"/>
			<point x="82" y="501" type="curve" smooth="yes"/>
			<point x="82" y="607"/>
			<point x="165" y="689"/>
			<point x="270" y="689" type="curve" smooth="yes"/>
			<point x="377" y="689"/>
			<point x="458" y="607"/>
			<point x="458" y="501" type="curve" smooth="yes"/>
			<point x="458" y="396"/>
			<point x="377" y="313"/>
		</contour>
		<contour>
			<point x="202" y="393" type="line"/>
			<point x="229" y="393" type="line"/>
			<point x="229" y="490" type="line"/>
			<point x="276" y="490" type="line" smooth="yes"/>
			<point x="310" y="490"/>
			<point x="312" y="476"/>
			<point x="313" y="451" type="curve" smooth="yes"/>
			<point x="316" y="393" type="line"/>
			<point x="344" y="393" type="line"/>
			<point x="341" y="446" type="line" smooth="yes"/>
			<point x="338" y="494"/>
			<point x="327" y="502"/>
			<point x="282" y="502" type="curve"/>
			<point x="282" y="501" type="line"/>
			<point x="312" y="501"/>
			<point x="341" y="510"/>
			<point x="341" y="550" type="curve" smooth="yes"/>
			<point x="341" y="592"/>
			<point x="310" y="611"/>
			<point x="270" y="611" type="curve" smooth="yes"/>
			<point x="202" y="611" type="line"/>
		</contour>
		<contour>
			<point x="229" y="516" type="line"/>
			<point x="229" y="585" type="line"/>
			<point x="270" y="585" type="line" smooth="yes"/>
			<point x="297" y="585"/>
			<point x="314" y="576"/>
			<point x="314" y="550" type="curve" smooth="yes"/>
			<point x="314" y="524"/>
			<point x="297" y="516"/>
			<point x="270" y="516" type="curve" smooth="yes"/>
		</contour>
	</outline>
</glyph>
<glyph name="degree" format="2">
	<advance width="430"/>
	<unicode hex="00B0"/>
	<outline>
		<contour>
			<point x="215" y="392" type="curve" smooth="yes"/>
			<point x="309" y="392"/>
			<point x="385" y="469"/>
			<point x="385" y="562" type="curve" smooth="yes"/>
			<point x="385" y="656"/>
			<point x="309" y="732"/>
			<point x="215" y="732" type="curve" smooth="yes"/>
			<point x="122" y="732"/>
			<point x="45" y="656"/>
			<point x="45" y="562" type="curve" smooth="yes"/>
			<point x="45" y="469"/>
			<point x="122" y="392"/>
		</contour>
		<contour>
			<point x="215" y="445" type="curve" smooth="yes"/>
			<point x="153" y="445"/>
			<point x="98" y="500"/>
			<point x="98" y="562" type="curve" smooth="yes"/>
			<point x="98" y="624"/>
			<point x="153" y="679"/>
			<point x="215" y="679" type="curve" smooth="yes"/>
			<point x="277" y="679"/>
			<point x="332" y="624"/>
			<point x="332" y="562" type="curve" smooth="yes"/>
			<point x="332" y="500"/>
			<point x="277" y="445"/>
		</contour>
	</outline>
</glyph>
<glyph name="acute" format="2">
	<advance width="400"/>
	<unicode hex="00B4"/>
	<outline>
		<contour>
			<point x="140" y="590" type="line"/>
			<point x="182" y="590" type="line"/>
			<point x="260" y="720" type="line"/>
			<point x="192" y="720" type="line"/>
		</contour>
	</outline>
</glyph>
<glyph name="paragraph" format="2">
	<advance width="669"/>
	<unicode hex="00B6"/>
	<outline>
		<contour>
			<point x="276" y="329" type="curve" smooth="yes"/>
			<point x="376" y="329" type="line"/>
			<point x="376" y="382" type="line"/>
			<point x="296" y="382" type="line" smooth="yes"/>
			<point x="182" y="382"/>
			<point x="113" y="417"/>
			<point x="113" y="514" type="curve" smooth="yes"/>
			<point x="113" y="611"/>
			<point x="182" y="647"/>
			<point x="296" y="647" type="curve" smooth="yes"/>
			<point x="604" y="647" type="line"/>
			<point x="604" y="700" type="line"/>
			<point x="276" y="700" type="line" smooth="yes"/>
			<point x="217" y="700"/>
			<point x="55" y="680"/>
			<point x="55" y="514" type="curve" smooth="yes"/>
			<point x="55" y="349"/>
			<point x="217" y="329"/>
		</contour>
		<contour>
			<point x="328" y="-70" type="line"/>
			<point x="386" y="-70" type="line"/>
			<point x="386" y="700" type="line"/>
			<point x="328" y="700" type="line"/>
		</contour>
		<contour>
			<point x="486" y="-70" type="line"/>
			<point x="544" y="-70" type="line"/>
			<point x="544" y="700" type="line"/>
			<point x="486" y="700" type="line"/>
		</contour>
	</outline>
</glyph>
<glyph name="periodcentered" format="2">
	<advance width="230"/>
	<unicode hex="00B7"/>
	<outline>
		<contour>
			<point x="85" y="305" type="line"/>
			<point x="145" y="305" type="line"/>
			<point x="145" y="395" type="line"/>
			<point x="85" y="395" type="line"/>
		</contour>
	</outline>
</glyph>
<glyph name="cedilla" format="2">
	<advance width="436"/>
	<unicode hex="00B8"/>
	<outline>
		<contour>
			<point x="217" y="-206" type="curve" smooth="yes"/>
			<point x="261" y="-206"/>
			<point x="296" y="-171"/>
			<point x="296" y="-127" type="curve" smooth="yes"/>
			<point x="296" y="-83"/>
			<point x="261" y="-48"/>
			<point x="217" y="-48" type="curve" smooth="yes"/>
			<point x="190" y="-48"/>
			<point x="166" y="-62"/>
			<point x="151" y="-83" type="curve"/>
			<point x="184" y="-98" type="line"/>
			<point x="192" y="-89"/>
			<point x="203" y="-84"/>
			<point x="217" y="-84" type="curve" smooth="yes"/>
			<point x="242" y="-84"/>
			<point x="261" y="-101"/>
			<point x="261" y="-127" type="curve" smooth="yes"/>
			<point x="261" y="-152"/>
			<point x="242" y="-171"/>
			<point x="217" y="-171" type="curve" smooth="yes"/>
			<point x="199" y="-171"/>
			<point x="185" y="-161"/>
			<point x="178" y="-146" type="curve"/>
			<point x="140" y="-153" type="line"/>
			<point x="148" y="-187"/>
			<point x="179" y="-206"/>
		</contour>
		<contour>
			<point x="182" y="-97" type="line"/>
			<point x="242" y="15" type="line"/>
			<point x="203" y="15" type="line"/>
			<point x="149" y="-83" type="line"/>
		</contour>
	</outline>
</glyph>
<glyph name="AE" format="2">
	<advance width="845"/>
	<unicode hex="00C6"/>
	<outline>
		<contour>
			<point x="344" y="647" type="line"/>
			<point x="785" y="647" type="line"/>
			<point x="785" y="700" type="line"/>
			<point x="344" y="700" type="line"/>
		</contour>
		<component base="A"/>
		<contour>
			<point x="559" y="0" type="line"/>
			<point x="785" y="0" type="line"/>
			<point x="785" y="53" type="line"/>
			<point x="559" y="53" type="line"/>
		</contour>
		<contour>
			<point x="445" y="337" type="line"/>
			<point x="725" y="337" type="line"/>
			<point x="725" y="390" type="line"/>
			<point x="445" y="390" type="line"/>
		</contour>
	</outline>
</glyph>
<glyph name="multiply" format="2">
	<advance width="533"/>
	<unicode hex="00D7"/>
	<outline>
		<contour>
			<point x="123" y="116" type="line"/>
			<point x="448" y="440" type="line"/>
			<point x="411" y="478" type="line"/>
			<point x="86" y="153" type="line"/>
		</contour>
		<contour>
			<point x="410" y="115" type="line"/>
			<point x="447" y="152" type="line"/>
			<point x="123" y="477" type="line"/>
			<point x="85" y="440" type="line"/>
		</contour>
	</outline>
</glyph>
<glyph name="Oslash" format="2">
	<advance width="731"/>
	<unicode hex="00D8"/>
	<outline>
		<contour>
			<point x="15" y="-56" type="line"/>
			<point x="77" y="-56" type="line"/>
			<point x="716" y="755" type="line"/>
			<point x="654" y="755" type="line"/>
		</contour>
		<component base="O" xOffset="-11"/>
	</outline>
</glyph>
<glyph name="Thorn" format="2">
	<advance width="586"/>
	<unicode hex="00DE"/>
	<outline>
		<contour>
			<point x="123" y="165" type="line"/>
			<point x="300" y="165" type="line" smooth="yes"/>
			<point x="427" y="165"/>
			<point x="521" y="231"/>
			<point x="521" y="350" type="curve" smooth="yes"/>
			<point x="521" y="479"/>
			<point x="427" y="536"/>
			<point x="300" y="536" type="curve" smooth="yes"/>
			<point x="123" y="536" type="line"/>
			<point x="123" y="483" type="line"/>
			<point x="300" y="483" type="line" smooth="yes"/>
			<point x="394" y="483"/>
			<point x="463" y="447"/>
			<point x="463" y="350" type="curve" smooth="yes"/>
			<point x="463" y="253"/>
			<point x="394" y="218"/>
			<point x="300" y="218" type="curve" smooth="yes"/>
			<point x="123" y="218" type="line"/>
		</contour>
		<contour>
			<point x="90" y="0" type="line"/>
			<point x="148" y="0" type="line"/>
			<point x="148" y="700" type="line"/>
			<point x="90" y="700" type="line"/>
		</contour>
	</outline>
</glyph>
<glyph name="germandbls" format="2">
	<advance width="547"/>
	<unicode hex="00DF"/>
	<outline>
		<contour>
			<point x="245" y="0" type="line"/>
			<point x="275" y="0" type="line" smooth="yes"/>
			<point x="439" y="0"/>
			<point x="497" y="109"/>
			<point x="497" y="196" type="curve" smooth="yes"/>
			<point x="497" y="281"/>
			<point x="443" y="366"/>
			<point x="315" y="370" type="curve"/>
			<point x="315" y="366" type="line"/>
			<point x="404" y="372"/>
			<point x="463" y="458"/>
			<point x="463" y="535" type="curve" smooth="yes"/>
			<point x="463" y="650"/>
			<point x="372" y="716"/>
			<point x="275" y="716" type="curve" smooth="yes"/>
			<point x="171" y="716"/>
			<point x="84" y="648"/>
			<point x="80" y="510" type="curve"/>
			<point x="135" y="510" type="line"/>
			<point x="139" y="609"/>
			<point x="193" y="663"/>
			<point x="275" y="663" type="curve" smooth="yes"/>
			<point x="353" y="663"/>
			<point x="405" y="611"/>
			<point x="405" y="535" type="curve" smooth="yes"/>
			<point x="405" y="460"/>
			<point x="354" y="392"/>
			<point x="270" y="392" type="curve" smooth="yes"/>
			<point x="245" y="392" type="line"/>
			<point x="245" y="339" type="line"/>
			<point x="285" y="339" type="line" smooth="yes"/>
			<point x="392" y="339"/>
			<point x="439" y="260"/>
			<point x="439" y="196" type="curve" smooth="yes"/>
			<point x="439" y="132"/>
			<point x="392" y="53"/>
			<point x="285" y="53" type="curve" smooth="yes"/>
			<point x="245" y="53" type="line"/>
		</contour>
		<contour>
			<point x="80" y="0" type="line"/>
			<point x="135" y="0" type="line"/>
			<point x="135" y="510" type="line"/>
			<point x="80" y="510" type="line"/>
		</contour>
	</outline>
</glyph>
<glyph name="ae" format="2">
	<advance width="872"/>
	<unicode hex="00E6"/>
	<outline>
		<contour>
			<point x="617" y="-16" type="curve" smooth="yes"/>
			<point x="737" y="-16"/>
			<point x="795" y="48"/>
			<point x="817" y="135" type="curve"/>
			<point x="758" y="143" type="line"/>
			<point x="744" y="95"/>
			<point x="717" y="37"/>
			<point x="617" y="37" type="curve" smooth="yes"/>
			<point x="507" y="37"/>
			<point x="449" y="140"/>
			<point x="449" y="240" type="curve"/>
			<point x="822" y="240" type="line"/>
			<point x="822" y="248" type="line" smooth="yes"/>
			<point x="822" y="428"/>
			<point x="728" y="516"/>
			<point x="608" y="516" type="curve" smooth="yes"/>
			<point x="488" y="516"/>
			<point x="391" y="418"/>
			<point x="391" y="248" type="curve" smooth="yes"/>
			<point x="391" y="78"/>
			<point x="497" y="-16"/>
		</contour>
		<contour>
			<point x="224" y="37" type="curve" smooth="yes"/>
			<point x="160" y="37"/>
			<point x="113" y="78"/>
			<point x="113" y="135" type="curve" smooth="yes"/>
			<point x="113" y="224"/>
			<point x="202" y="243"/>
			<point x="273" y="245" type="curve" smooth="yes"/>
			<point x="322" y="247"/>
			<point x="401" y="251"/>
			<point x="401" y="339" type="curve"/>
			<point x="391" y="299" type="line"/>
			<point x="391" y="233" type="line" smooth="yes"/>
			<point x="391" y="107"/>
			<point x="319" y="37"/>
		</contour>
		<contour>
			<point x="214" y="-16" type="curve" smooth="yes"/>
			<point x="319" y="-16"/>
			<point x="421" y="53"/>
			<point x="421" y="210" type="curve"/>
			<point x="446" y="331" type="line"/>
			<point x="446" y="471"/>
			<point x="373" y="516"/>
			<point x="263" y="516" type="curve" smooth="yes"/>
			<point x="150" y="516"/>
			<point x="72" y="447"/>
			<point x="68" y="357" type="curve"/>
			<point x="121" y="349" type="line"/>
			<point x="127" y="428"/>
			<point x="183" y="463"/>
			<point x="263" y="463" type="curve" smooth="yes"/>
			<point x="337" y="463"/>
			<point x="382" y="436"/>
			<point x="389" y="380" type="curve" smooth="yes"/>
			<point x="393" y="340"/>
			<point x="375" y="302"/>
			<point x="286" y="298" type="curve" smooth="yes"/>
			<point x="176" y="293"/>
			<point x="55" y="262"/>
			<point x="55" y="135" type="curve" smooth="yes"/>
			<point x="55" y="49"/>
			<point x="118" y="-16"/>
		</contour>
		<contour>
			<point x="449" y="288" type="line"/>
			<point x="449" y="358"/>
			<point x="488" y="463"/>
			<point x="608" y="463" type="curve" smooth="yes"/>
			<point x="728" y="463"/>
			<point x="764" y="358"/>
			<point x="764" y="288" type="curve"/>
		</contour>
	</outline>
</glyph>
<glyph name="eth" format="2">
	<advance width="579"/>
	<unicode hex="00F0"/>
	<outline>
		<contour>
			<point x="281" y="-16" type="curve" smooth="yes"/>
			<point x="441" y="-16"/>
			<point x="514" y="128"/>
			<point x="514" y="256" type="curve" smooth="yes"/>
			<point x="514" y="546"/>
			<point x="371" y="706"/>
			<point x="171" y="706" type="curve"/>
			<point x="171" y="658" type="line"/>
			<point x="331" y="658"/>
			<point x="464" y="515"/>
			<point x="464" y="285" type="curve"/>
			<point x="468" y="289" type="line"/>
			<point x="468" y="389"/>
			<point x="384" y="454"/>
			<point x="281" y="454" type="curve" smooth="yes"/>
			<point x="151" y="454"/>
			<point x="50" y="350"/>
			<point x="50" y="220" type="curve" smooth="yes"/>
			<point x="50" y="90"/>
			<point x="151" y="-16"/>
		</contour>
		<contour>
			<point x="281" y="37" type="curve" smooth="yes"/>
			<point x="181" y="37"/>
			<point x="108" y="120"/>
			<point x="108" y="220" type="curve" smooth="yes"/>
			<point x="108" y="320"/>
			<point x="181" y="401"/>
			<point x="281" y="401" type="curve" smooth="yes"/>
			<point x="381" y="401"/>
			<point x="457" y="320"/>
			<point x="457" y="220" type="curve" smooth="yes"/>
			<point x="457" y="120"/>
			<point x="381" y="37"/>
		</contour>
		<contour>
			<point x="194" y="505" type="line"/>
			<point x="493" y="645" type="line"/>
			<point x="475" y="681" type="line"/>
			<point x="176" y="541" type="line"/>
		</contour>
	</outline>
</glyph>
<glyph name="divide" format="2">
	<advance width="589"/>
	<unicode hex="00F7"/>
	<outline>
		<contour>
			<point x="85" y="269" type="line"/>
			<point x="504" y="269" type="line"/>
			<point x="504" y="322" type="line"/>
			<point x="85" y="322" type="line"/>
		</contour>
		<contour>
			<point x="295" y="89" type="curve" smooth="yes"/>
			<point x="318" y="89"/>
			<point x="335" y="106"/>
			<point x="335" y="129" type="curve" smooth="yes"/>
			<point x="335" y="152"/>
			<point x="318" y="169"/>
			<point x="295" y="169" type="curve" smooth="yes"/>
			<point x="272" y="169"/>
			<point x="255" y="152"/>
			<point x="255" y="129" type="curve" smooth="yes"/>
			<point x="255" y="106"/>
			<point x="272" y="89"/>
		</contour>
		<contour>
			<point x="295" y="422" type="curve" smooth="yes"/>
			<point x="318" y="422"/>
			<point x="335" y="439"/>
			<point x="335" y="462" type="curve" smooth="yes"/>
			<point x="335" y="485"/>
			<point x="318" y="502"/>
			<point x="295" y="502" type="curve" smooth="yes"/>
			<point x="272" y="502"/>
			<point x="255" y="485"/>
			<point x="255" y="462" type="curve" smooth="yes"/>
			<point x="255" y="439"/>
			<point x="272" y="422"/>
		</contour>
	</outline>
</glyph>
<glyph name="oslash" format="2">
	<advance width="544"/>
	<unicode hex="00F8"/>
	<outline>
		<contour>
			<point x="15" y="-56" type="line"/>
			<point x="67" y="-56" type="line"/>
			<point x="524" y="556" type="line"/>
			<point x="472" y="556" type="line"/>
		</contour>
		<component base="o" xOffset="-6"/>
	</outline>
</glyph>
<glyph name="thorn" format="2">
	<advance width="571"/>
	<unicode hex="00FE"/>
	<outline>
		<contour>
			<point x="80" y="-200" type="line"/>
			<point x="135" y="-200" type="line"/>
			<point x="135" y="700" type="line"/>
			<point x="80" y="700" type="line"/>
		</contour>
		<contour>
			<point x="309" y="-16" type="curve" smooth="yes"/>
			<point x="439" y="-16"/>
			<point x="521" y="110"/>
			<point x="521" y="250" type="curve" smooth="yes"/>
			<point x="521" y="390"/>
			<point x="439" y="516"/>
			<point x="309" y="516" type="curve" smooth="yes"/>
			<point x="209" y="516"/>
			<point x="125" y="430"/>
			<point x="125" y="330" type="curve" smooth="yes"/>
			<point x="125" y="170" type="line" smooth="yes"/>
			<point x="125" y="70"/>
			<point x="209" y="-16"/>
		</contour>
		<contour>
			<point x="299" y="37" type="curve" smooth="yes"/>
			<point x="219" y="37"/>
			<point x="135" y="110"/>
			<point x="135" y="250" type="curve" smooth="yes"/>
			<point x="135" y="390"/>
			<point x="219" y="463"/>
			<point x="299" y="463" type="curve" smooth="yes"/>
			<point x="389" y="463"/>
			<point x="463" y="385"/>
			<point x="463" y="250" type="curve" smooth="yes"/>
			<point x="463" y="115"/>
			<point x="389" y="37"/>
		</contour>
	</outline>
</glyph>
<glyph name="dcroat" format="2">
	<advance width="584"/>
	<unicode hex="0111"/>
	<outline>
		<contour>
			<point x="254" y="583" type="line"/>
			<point x="594" y="583" type="line"/>
			<point x="594" y="617" type="line"/>
			<point x="254" y="617" type="line"/>
		</contour>
		<component base="d"/>
	</outline>
</glyph>
<glyph name="Hbar" format="2">
	<advance width="666"/>
	<unicode hex="0126"/>
	<outline>
		<contour>
			<point x="25" y="540" type="line"/>
			<point x="641" y="540" type="line"/>
			<point x="641" y="580" type="line"/>
			<point x="25" y="580" type="line"/>
		</contour>
		<component base="H" xOffset="5"/>
	</outline>
</glyph>
<glyph name="hbar" format="2">
	<advance width="538"/>
	<unicode hex="0127"/>
	<outline>
		<contour>
			<point x="-10" y="583" type="line"/>
			<point x="330" y="583" type="line"/>
			<point x="330" y="617" type="line"/>
			<point x="-10" y="617" type="line"/>
		</contour>
		<component base="h"/>
	</outline>
</glyph>
<glyph name="ibreve" format="2">
	<advance width="160"/>
	<unicode hex="012D"/>
	<outline>
		<contour>
			<point x="80" y="590" type="curve" smooth="yes"/>
			<point x="154" y="590"/>
			<point x="187" y="644"/>
			<point x="190" y="720" type="curve"/>
			<point x="146" y="720" type="line"/>
			<point x="143" y="664"/>
			<point x="121" y="634"/>
			<point x="80" y="634" type="curve" smooth="yes"/>
			<point x="39" y="634"/>
			<point x="17" y="664"/>
			<point x="14" y="720" type="curve"/>
			<point x="-30" y="720" type="line"/>
			<point x="-27" y="644"/>
			<point x="5" y="590"/>
		</contour>
		<component base="idotless" xOffset="-27"/>
	</outline>
</glyph>
<glyph name="idotless" format="2">
	<advance width="215"/>
	<unicode hex="0131"/>
	<outline>
		<contour>
			<point x="80" y="0" type="line"/>
			<point x="135" y="0" type="line"/>
			<point x="135" y="500" type="line"/>
			<point x="80" y="500" type="line"/>
		</contour>
	</outline>
</glyph>
<glyph name="Lslash" format="2">
	<advance width="498"/>
	<unicode hex="0141"/>
	<outline>
		<contour>
			<point x="10" y="260" type="line"/>
			<point x="330" y="402" type="line"/>
			<point x="330" y="440" type="line"/>
			<point x="10" y="298" type="line"/>
		</contour>
		<component base="L"/>
	</outline>
</glyph>
<glyph name="lslash" format="2">
	<advance width="280"/>
	<unicode hex="0142"/>
	<outline>
		<component base="l" xOffset="33"/>
		<contour>
			<point x="50" y="283" type="line"/>
			<point x="230" y="391" type="line"/>
			<point x="230" y="427" type="line"/>
			<point x="50" y="319" type="line"/>
		</contour>
	</outline>
</glyph>
<glyph name="Eng" format="2">
	<advance width="701"/>
	<unicode hex="014A"/>
	<outline>
		<contour>
			<point x="423" y="-190" type="line"/>
			<point x="482" y="-190" type="line" smooth="yes"/>
			<point x="565" y="-190"/>
			<point x="611" y="-158"/>
			<point x="611" y="-76" type="curve" smooth="yes"/>
			<point x="611" y="0" type="line"/>
			<point x="553" y="0" type="line"/>
			<point x="553" y="-55" type="line" smooth="yes"/>
			<point x="553" y="-124"/>
			<point x="528" y="-137"/>
			<point x="470" y="-137" type="curve" smooth="yes"/>
			<point x="423" y="-137" type="line"/>
		</contour>
		<component base="N"/>
	</outline>
</glyph>
<glyph name="eng" format="2">
	<advance width="543"/>
	<unicode hex="014B"/>
	<outline>
		<contour>
			<point x="278" y="-190" type="line"/>
			<point x="337" y="-190" type="line" smooth="yes"/>
			<point x="420" y="-190"/>
			<point x="463" y="-158"/>
			<point x="463" y="-76" type="curve" smooth="yes"/>
			<point x="463" y="0" type="line"/>
			<point x="408" y="0" type="line"/>
			<point x="408" y="-55" type="line" smooth="yes"/>
			<point x="408" y="-124"/>
			<point x="383" y="-137"/>
			<point x="325" y="-137" type="curve" smooth="yes"/>
			<point x="278" y="-137" type="line"/>
		</contour>
		<component base="n"/>
	</outline>
</glyph>
<glyph name="tbar" format="2">
	<advance width="368"/>
	<unicode hex="0167"/>
	<outline>
		<contour>
			<point x="20" y="270" type="line"/>
			<point x="333" y="270" type="line"/>
			<point x="333" y="310" type="line"/>
			<point x="20" y="310" type="line"/>
		</contour>
		<component base="t"/>
	</outline>
</glyph>
<glyph name="florin" format="2">
	<advance width="428"/>
	<unicode hex="0192"/>
	<outline>
		<contour>
			<point x="15" y="-216" type="line"/>
			<point x="74" y="-216" type="line" smooth="yes"/>
			<point x="156" y="-216"/>
			<point x="192" y="-184"/>
			<point x="203" y="-71" type="curve" smooth="yes"/>
			<point x="263" y="546" type="line" smooth="yes"/>
			<point x="273" y="644"/>
			<point x="287" y="657"/>
			<point x="346" y="657" type="curve" smooth="yes"/>
			<point x="393" y="657" type="line"/>
			<point x="393" y="710" type="line"/>
			<point x="334" y="710" type="line" smooth="yes"/>
			<point x="252" y="710"/>
			<point x="216" y="678"/>
			<point x="205" y="565" type="curve" smooth="yes"/>
			<point x="145" y="-52" type="line" smooth="yes"/>
			<point x="135" y="-150"/>
			<point x="121" y="-163"/>
			<point x="62" y="-163" type="curve" smooth="yes"/>
			<point x="15" y="-163" type="line"/>
		</contour>
		<contour>
			<point x="88" y="357" type="line"/>
			<point x="356" y="357" type="line"/>
			<point x="356" y="410" type="line"/>
			<point x="88" y="410" type="line"/>
		</contour>
	</outline>
</glyph>
<glyph name="jdotless" format="2">
	<advance width="255"/>
	<unicode hex="0237"/>
	<outline>
		<contour>
			<point x="-30" y="-200" type="line"/>
			<point x="45" y="-200" type="line" smooth="yes"/>
			<point x="131" y="-200"/>
			<point x="175" y="-156"/>
			<point x="175" y="-70" type="curve" smooth="yes"/>
			<point x="175" y="500" type="line"/>
			<point x="120" y="500" type="line"/>
			<point x="120" y="-77" type="line" smooth="yes"/>
			<point x="120" y="-122"/>
			<point x="95" y="-147"/>
			<point x="50" y="-147" type="curve" smooth="yes"/>
			<point x="-30" y="-147" type="line"/>
		</contour>
	</outline>
</glyph>
<glyph name="circumflex" format="2">
	<advance width="502"/>
	<unicode hex="02C6"/>
	<outline>
		<contour>
			<point x="140" y="590" type="line"/>
			<point x="181" y="590" type="line"/>
			<point x="251" y="700" type="line"/>
			<point x="321" y="590" type="line"/>
			<point x="362" y="590" type="line"/>
			<point x="302" y="720" type="line"/>
			<point x="200" y="720" type="line"/>
		</contour>
	</outline>
</glyph>
<glyph name="caron" format="2">
	<advance width="502"/>
	<unicode hex="02C7"/>
	<outline>
		<contour>
			<point x="200" y="590" type="line"/>
			<point x="302" y="590" type="line"/>
			<point x="362" y="720" type="line"/>
			<point x="321" y="720" type="line"/>
			<point x="251" y="610" type="line"/>
			<point x="181" y="720" type="line"/>
			<point x="140" y="720" type="line"/>
		</contour>
	</outline>
</glyph>
<glyph name="breve" format="2">
	<advance width="560"/>
	<unicode hex="02D8"/>
	<outline>
		<contour>
			<point x="280" y="590" type="curve" smooth="yes"/>
			<point x="356" y="590"/>
			<point x="415" y="645"/>
			<point x="420" y="720" type="curve"/>
			<point x="375" y="720" type="line"/>
			<point x="370" y="671"/>
			<point x="329" y="634"/>
			<point x="280" y="634" type="curve" smooth="yes"/>
			<point x="231" y="634"/>
			<point x="190" y="671"/>
			<point x="185" y="720" type="curve"/>
			<point x="140" y="720" type="line"/>
			<point x="145" y="645"/>
			<point x="204" y="590"/>
		</contour>
	</outline>
</glyph>
<glyph name="dotaccent" format="2">
	<advance width="354"/>
	<unicode hex="02D9"/>
	<outline>
		<contour>
			<point x="140" y="590" type="line"/>
			<point x="214" y="590" type="line"/>
			<point x="214" y="664" type="line"/>
			<point x="140" y="664" type="line"/>
		</contour>
	</outline>
</glyph>
<glyph name="ring" format="2">
	<advance width="470"/>
	<unicode hex="02DA"/>
	<outline>
		<contour>
			<point x="235" y="586" type="curve" smooth="yes"/>
			<point x="288" y="586"/>
			<point x="330" y="628"/>
			<point x="330" y="681" type="curve" smooth="yes"/>
			<point x="330" y="734"/>
			<point x="288" y="776"/>
			<point x="235" y="776" type="curve" smooth="yes"/>
			<point x="182" y="776"/>
			<point x="140" y="734"/>
			<point x="140" y="681" type="curve" smooth="yes"/>
			<point x="140" y="628"/>
			<point x="182" y="586"/>
		</contour>
		<contour>
			<point x="235" y="631" type="curve" smooth="yes"/>
			<point x="207" y="631"/>
			<point x="185" y="653"/>
			<point x="185" y="681" type="curve" smooth="yes"/>
			<point x="185" y="709"/>
			<point x="207" y="731"/>
			<point x="235" y="731" type="curve" smooth="yes"/>
			<point x="263" y="731"/>
			<point x="285" y="709"/>
			<point x="285" y="681" type="curve" smooth="yes"/>
			<point x="285" y="653"/>
			<point x="263" y="631"/>
		</contour>
	</outline>
</glyph>
<glyph name="ogonek" format="2">
	<advance width="418"/>
	<unicode hex="02DB"/>
	<outline>
		<contour>
			<point x="202" y="-158" type="curve" smooth="yes"/>
			<point x="262" y="-158"/>
			<point x="278" y="-109"/>
			<point x="278" y="-79" type="curve"/>
			<point x="240" y="-69" type="line"/>
			<point x="240" y="-99"/>
			<point x="227" y="-113"/>
			<point x="207" y="-113" type="curve" smooth="yes"/>
			<point x="187" y="-113"/>
			<point x="180" y="-97"/>
			<point x="180" y="-77" type="curve" smooth="yes"/>
			<point x="180" y="-47"/>
			<point x="203" y="-16"/>
			<point x="240" y="0" type="curve"/>
			<point x="202" y="0" type="line"/>
			<point x="174" y="-10"/>
			<point x="140" y="-49"/>
			<point x="140" y="-89" type="curve" smooth="yes"/>
			<point x="140" y="-129"/>
			<point x="162" y="-158"/>
		</contour>
	</outline>
</glyph>
<glyph name="tilde" format="2">
	<advance width="582"/>
	<unicode hex="02DC"/>
	<outline>
		<contour>
			<point x="194" y="591" type="line"/>
			<point x="196" y="611"/>
			<point x="205" y="646"/>
			<point x="239" y="646" type="curve" smooth="yes"/>
			<point x="276" y="646"/>
			<point x="300" y="590"/>
			<point x="353" y="590" type="curve" smooth="yes"/>
			<point x="405" y="590"/>
			<point x="438" y="628"/>
			<point x="442" y="680" type="curve"/>
			<point x="389" y="688" type="line"/>
			<point x="389" y="668"/>
			<point x="383" y="633"/>
			<point x="343" y="633" type="curve" smooth="yes"/>
			<point x="306" y="633"/>
			<point x="282" y="689"/>
			<point x="229" y="689" type="curve" smooth="yes"/>
			<point x="174" y="689"/>
			<point x="143" y="651"/>
			<point x="140" y="599" type="curve"/>
		</contour>
	</outline>
</glyph>
<glyph name="commaaccentcomb" format="2">
	<advance width="370"/>
	<unicode hex="0326"/>
	<outline>
		<contour>
			<point x="140" y="-218" type="line"/>
			<point x="190" y="-218"/>
			<point x="230" y="-190"/>
			<point x="230" y="-120" type="curve"/>
			<point x="198" y="-120" type="line"/>
			<point x="198" y="-170"/>
			<point x="180" y="-195"/>
			<point x="140" y="-195" type="curve"/>
		</contour>
		<contour>
			<point x="150" y="-120" type="line"/>
			<point x="230" y="-120" type="line"/>
			<point x="230" y="-60" type="line"/>
			<point x="150" y="-60" type="line"/>
		</contour>
	</outline>
</glyph>
<glyph name="Omega" format="2">
	<advance width="770"/>
	<unicode hex="03A9"/>
	<outline>
		<contour>
			<point x="45" y="10" type="line"/>
			<point x="315" y="10" type="line"/>
			<point x="315" y="69" type="line"/>
			<point x="196" y="169"/>
			<point x="125" y="261"/>
			<point x="125" y="394" type="curve" smooth="yes"/>
			<point x="125" y="529"/>
			<point x="219" y="653"/>
			<point x="385" y="653" type="curve" smooth="yes"/>
			<point x="551" y="653"/>
			<point x="646" y="529"/>
			<point x="645" y="394" type="curve" smooth="yes"/>
			<point x="644" y="262"/>
			<point x="574" y="169"/>
			<point x="455" y="69" type="curve"/>
			<point x="455" y="10" type="line"/>
			<point x="725" y="10" type="line"/>
			<point x="725" y="64" type="line"/>
			<point x="525" y="64" type="line"/>
			<point x="525" y="73" type="line"/>
			<point x="610" y="134"/>
			<point x="703" y="229"/>
			<point x="703" y="394" type="curve" smooth="yes"/>
			<point x="703" y="570"/>
			<point x="581" y="706"/>
			<point x="385" y="706" type="curve" smooth="yes"/>
			<point x="189" y="706"/>
			<point x="67" y="570"/>
			<point x="67" y="394" type="curve" smooth="yes"/>
			<point x="67" y="229"/>
			<point x="160" y="134"/>
			<point x="245" y="73" type="curve"/>
			<point x="245" y="64" type="line"/>
			<point x="45" y="64" type="line"/>
		</contour>
	</outline>
</glyph>
<glyph name="mu" format="2">
	<advance width="543"/>
	<unicode hex="03BC"/>
	<outline>
		<contour>
			<point x="233" y="-16" type="curve" smooth="yes"/>
			<point x="333" y="-16"/>
			<point x="418" y="51"/>
			<point x="418" y="181" type="curve"/>
			<point x="408" y="257" type="line"/>
			<point x="408" y="97"/>
			<point x="333" y="47"/>
			<point x="248" y="47" type="curve" smooth="yes"/>
			<point x="168" y="47"/>
			<point x="135" y="91"/>
			<point x="135" y="191" type="curve" smooth="yes"/>
			<point x="135" y="200" type="line"/>
			<point x="80" y="200" type="line"/>
			<point x="80" y="161" type="line" smooth="yes"/>
			<point x="80" y="41"/>
			<point x="143" y="-16"/>
		</contour>
		<contour>
			<point x="80" y="-200" type="line"/>
			<point x="135" y="-200" type="line"/>
			<point x="135" y="500" type="line"/>
			<point x="80" y="500" type="line"/>
		</contour>
		<contour>
			<point x="408" y="0" type="line"/>
			<point x="463" y="0" type="line"/>
			<point x="463" y="500" type="line"/>
			<point x="408" y="500" type="line"/>
		</contour>
	</outline>
</glyph>
<glyph name="pi" format="2">
	<advance width="680"/>
	<unicode hex="03C0"/>
	<outline>
		<contour>
			<point x="575" y="0" type="curve" smooth="yes"/>
			<point x="600" y="0" type="line"/>
			<point x="600" y="53" type="line"/>
			<point x="570" y="53" type="line" smooth="yes"/>
			<point x="525" y="53"/>
			<point x="500" y="78"/>
			<point x="500" y="123" type="curve" smooth="yes"/>
			<point x="500" y="500" type="line"/>
			<point x="445" y="500" type="line"/>
			<point x="445" y="130" type="line" smooth="yes"/>
			<point x="445" y="44"/>
			<point x="489" y="0"/>
		</contour>
		<contour>
			<point x="180" y="0" type="line"/>
			<point x="235" y="0" type="line"/>
			<point x="235" y="500" type="line"/>
			<point x="180" y="500" type="line"/>
		</contour>
		<contour>
			<point x="80" y="447" type="line"/>
			<point x="600" y="447" type="line"/>
			<point x="600" y="500" type="line"/>
			<point x="80" y="500" type="line"/>
		</contour>
	</outline>
</glyph>
<glyph name="Germandbls" format="2">
	<advance width="650"/>
	<unicode hex="1E9E"/>
	<outline>
		<contour>
			<point x="268" y="0" type="line"/>
			<point x="338" y="0" type="line" smooth="yes"/>
			<point x="488" y="0"/>
			<point x="580" y="82"/>
			<point x="580" y="207" type="curve" smooth="yes"/>
			<point x="580" y="327"/>
			<point x="491" y="410"/>
			<point x="350" y="410" type="curve"/>
			<point x="351" y="407" type="line"/>
			<point x="514" y="603" type="line" smooth="yes"/>
			<point x="552" y="648"/>
			<point x="528" y="700"/>
			<point x="470" y="700" type="curve" smooth="yes"/>
			<point x="120" y="700" type="line"/>
			<point x="120" y="647" type="line"/>
			<point x="480" y="647" type="line"/>
			<point x="298" y="419" type="line"/>
			<point x="298" y="357" type="line"/>
			<point x="348" y="357" type="line" smooth="yes"/>
			<point x="438" y="357"/>
			<point x="522" y="315"/>
			<point x="522" y="207" type="curve" smooth="yes"/>
			<point x="522" y="99"/>
			<point x="438" y="58"/>
			<point x="348" y="58" type="curve" smooth="yes"/>
			<point x="268" y="58" type="line"/>
		</contour>
		<contour>
			<point x="90" y="0" type="line"/>
			<point x="148" y="0" type="line"/>
			<point x="148" y="700" type="line"/>
			<point x="90" y="700" type="line"/>
		</contour>
	</outline>
</glyph>
<glyph name="endash" format="2">
	<advance width="665"/>
	<unicode hex="2013"/>
	<outline>
		<contour>
			<point x="85" y="269" type="line"/>
			<point x="580" y="269" type="line"/>
			<point x="580" y="322" type="line"/>
			<point x="85" y="322" type="line"/>
		</contour>
	</outline>
</glyph>
<glyph name="dagger" format="2">
	<advance width="393"/>
	<unicode hex="2020"/>
	<outline>
		<contour>
			<point x="175" y="216" type="line"/>
			<point x="218" y="216" type="line"/>
			<point x="218" y="716" type="line"/>
			<point x="175" y="716" type="line"/>
		</contour>
		<contour>
			<point x="45" y="533" type="line"/>
			<point x="348" y="533" type="line"/>
			<point x="348" y="576" type="line"/>
			<point x="45" y="576" type="line"/>
		</contour>
	</outline>
</glyph>
<glyph name="daggerdbl" format="2">
	<advance width="393"/>
	<unicode hex="2021"/>
	<outline>
		<contour>
			<point x="175" y="216" type="line"/>
			<point x="218" y="216" type="line"/>
			<point x="218" y="716" type="line"/>
			<point x="175" y="716" type="line"/>
		</contour>
		<contour>
			<point x="45" y="356" type="line"/>
			<point x="348" y="356" type="line"/>
			<point x="348" y="399" type="line"/>
			<point x="45" y="399" type="line"/>
		</contour>
		<contour>
			<point x="45" y="533" type="line"/>
			<point x="348" y="533" type="line"/>
			<point x="348" y="576" type="line"/>
			<point x="45" y="576" type="line"/>
		</contour>
	</outline>
</glyph>
<glyph name="bullet" format="2">
	<advance width="360"/>
	<unicode hex="2022"/>
	<outline>
		<contour>
			<point x="180" y="255" type="curve" smooth="yes"/>
			<point x="233" y="255"/>
			<point x="275" y="297"/>
			<point x="275" y="350" type="curve" smooth="yes"/>
			<point x="275" y="403"/>
			<point x="233" y="445"/>
			<point x="180" y="445" type="curve" smooth="yes"/>
			<point x="127" y="445"/>
			<point x="85" y="403"/>
			<point x="85" y="350" type="curve" smooth="yes"/>
			<point x="85" y="297"/>
			<point x="127" y="255"/>
		</contour>
	</outline>
</glyph>
<glyph name="perthousand" format="2">
	<advance width="1150"/>
	<unicode hex="2030"/>
	<outline>
		<contour>
			<point x="105" y="0" type="line"/>
			<point x="166" y="0" type="line"/>
			<point x="675" y="716" type="line"/>
			<point x="614" y="716" type="line"/>
		</contour>
		<contour>
			<point x="205" y="396" type="curve" smooth="yes"/>
			<point x="293" y="396"/>
			<point x="365" y="468"/>
			<point x="365" y="556" type="curve" smooth="yes"/>
			<point x="365" y="644"/>
			<point x="293" y="716"/>
			<point x="205" y="716" type="curve" smooth="yes"/>
			<point x="117" y="716"/>
			<point x="45" y="644"/>
			<point x="45" y="556" type="curve" smooth="yes"/>
			<point x="45" y="468"/>
			<point x="117" y="396"/>
		</contour>
		<contour>
			<point x="205" y="449" type="curve" smooth="yes"/>
			<point x="146" y="449"/>
			<point x="98" y="497"/>
			<point x="98" y="556" type="curve" smooth="yes"/>
			<point x="98" y="615"/>
			<point x="146" y="663"/>
			<point x="205" y="663" type="curve" smooth="yes"/>
			<point x="264" y="663"/>
			<point x="312" y="615"/>
			<point x="312" y="556" type="curve" smooth="yes"/>
			<point x="312" y="497"/>
			<point x="264" y="449"/>
		</contour>
		<contour>
			<point x="575" y="-16" type="curve" smooth="yes"/>
			<point x="663" y="-16"/>
			<point x="735" y="56"/>
			<point x="735" y="144" type="curve" smooth="yes"/>
			<point x="735" y="232"/>
			<point x="663" y="304"/>
			<point x="575" y="304" type="curve" smooth="yes"/>
			<point x="487" y="304"/>
			<point x="415" y="232"/>
			<point x="415" y="144" type="curve" smooth="yes"/>
			<point x="415" y="56"/>
			<point x="487" y="-16"/>
		</contour>
		<contour>
			<point x="575" y="37" type="curve" smooth="yes"/>
			<point x="516" y="37"/>
			<point x="468" y="85"/>
			<point x="468" y="144" type="curve" smooth="yes"/>
			<point x="468" y="203"/>
			<point x="516" y="251"/>
			<point x="575" y="251" type="curve" smooth="yes"/>
			<point x="634" y="251"/>
			<point x="682" y="203"/>
			<point x="682" y="144" type="curve" smooth="yes"/>
			<point x="682" y="85"/>
			<point x="634" y="37"/>
		</contour>
		<contour>
			<point x="945" y="-16" type="curve" smooth="yes"/>
			<point x="1033" y="-16"/>
			<point x="1105" y="56"/>
			<point x="1105" y="144" type="curve" smooth="yes"/>
			<point x="1105" y="232"/>
			<point x="1033" y="304"/>
			<point x="945" y="304" type="curve" smooth="yes"/>
			<point x="857" y="304"/>
			<point x="785" y="232"/>
			<point x="785" y="144" type="curve" smooth="yes"/>
			<point x="785" y="56"/>
			<point x="857" y="-16"/>
		</contour>
		<contour>
			<point x="945" y="37" type="curve" smooth="yes"/>
			<point x="886" y="37"/>
			<point x="838" y="85"/>
			<point x="838" y="144" type="curve" smooth="yes"/>
			<point x="838" y="203"/>
			<point x="886" y="251"/>
			<point x="945" y="251" type="curve" smooth="yes"/>
			<point x="1004" y="251"/>
			<point x="1052" y="203"/>
			<point x="1052" y="144" type="curve" smooth="yes"/>
			<point x="1052" y="85"/>
			<point x="1004" y="37"/>
		</contour>
	</outline>
</glyph>
<glyph name="guilsinglleft" format="2">
	<advance width="268"/>
	<unicode hex="2039"/>
	<outline>
		<contour>
			<point x="170" y="70" type="line"/>
			<point x="223" y="70" type="line"/>
			<point x="80" y="309" type="line"/>
			<point x="80" y="231" type="line"/>
			<point x="223" y="470" type="line"/>
			<point x="170" y="470" type="line"/>
			<point x="50" y="270" type="line"/>
		</contour>
	</outline>
</glyph>
<glyph name="guilsinglright" format="2">
	<advance width="268"/>
	<unicode hex="203A"/>
	<outline>
		<contour>
			<point x="45" y="70" type="line"/>
			<point x="98" y="70" type="line"/>
			<point x="218" y="270" type="line"/>
			<point x="98" y="470" type="line"/>
			<point x="45" y="470" type="line"/>
			<point x="188" y="231" type="line"/>
			<point x="188" y="309" type="line"/>
		</contour>
	</outline>
</glyph>
<glyph name="fraction" format="2">
	<advance width="138"/>
	<unicode hex="2044"/>
	<outline>
		<contour>
			<point x="-180" y="0" type="line"/>
			<point x="-131" y="0" type="line"/>
			<point x="368" y="700" type="line"/>
			<point x="319" y="700" type="line"/>
		</contour>
	</outline>
</glyph>
<glyph name="won" format="2">
	<advance width="837"/>
	<unicode hex="20A9"/>
	<outline>
		<contour>
			<point x="207" y="0" type="line"/>
			<point x="285" y="0" type="line"/>
			<point x="419" y="587" type="line"/>
			<point x="418" y="587" type="line"/>
			<point x="552" y="0" type="line"/>
			<point x="630" y="0" type="line"/>
			<point x="797" y="700" type="line"/>
			<point x="740" y="700" type="line"/>
			<point x="586" y="38" type="line"/>
			<point x="593" y="38" type="line"/>
			<point x="443" y="700" type="line"/>
			<point x="394" y="700" type="line"/>
			<point x="244" y="38" type="line"/>
			<point x="255" y="38" type="line"/>
			<point x="97" y="700" type="line"/>
			<point x="40" y="700" type="line"/>
		</contour>
		<contour>
			<point x="51" y="224" type="line"/>
			<point x="787" y="224" type="line"/>
			<point x="787" y="267" type="line"/>
			<point x="51" y="267" type="line"/>
		</contour>
		<contour>
			<point x="51" y="387" type="line"/>
			<point x="787" y="387" type="line"/>
			<point x="787" y="430" type="line"/>
			<point x="51" y="430" type="line"/>
		</contour>
	</outline>
</glyph>
<glyph name="euro" format="2">
	<advance width="792"/>
	<unicode hex="20AC"/>
	<outline>
		<contour>
			<point x="438" y="-16" type="curve" smooth="yes"/>
			<point x="588" y="-16"/>
			<point x="703" y="99"/>
			<point x="722" y="258" type="curve"/>
			<point x="663" y="266" type="line"/>
			<point x="648" y="147"/>
			<point x="568" y="37"/>
			<point x="438" y="37" type="curve" smooth="yes"/>
			<point x="278" y="37"/>
			<point x="184" y="180"/>
			<point x="184" y="350" type="curve" smooth="yes"/>
			<point x="184" y="520"/>
			<point x="278" y="662"/>
			<point x="438" y="662" type="curve" smooth="yes"/>
			<point x="568" y="662"/>
			<point x="645" y="547"/>
			<point x="662" y="428" type="curve"/>
			<point x="722" y="437" type="line"/>
			<point x="703" y="596"/>
			<point x="588" y="716"/>
			<point x="438" y="716" type="curve" smooth="yes"/>
			<point x="268" y="716"/>
			<point x="126" y="580"/>
			<point x="126" y="350" type="curve" smooth="yes"/>
			<point x="126" y="120"/>
			<point x="268" y="-16"/>
		</contour>
		<contour>
			<point x="55" y="254" type="line"/>
			<point x="484" y="254" type="line"/>
			<point x="484" y="297" type="line"/>
			<point x="55" y="297" type="line"/>
		</contour>
		<contour>
			<point x="55" y="397" type="line"/>
			<point x="484" y="397" type="line"/>
			<point x="484" y="440" type="line"/>
			<point x="55" y="440" type="line"/>
		</contour>
	</outline>
</glyph>
<glyph name="rupeeIndian" format="2">
	<advance width="611"/>
	<unicode hex="20B9"/>
	<outline>
		<contour>
			<point x="320" y="0" type="line"/>
			<point x="388" y="0" type="line"/>
			<point x="142" y="336" type="line"/>
			<point x="139" y="329" type="line"/>
			<point x="205" y="329" type="line" smooth="yes"/>
			<point x="264" y="329"/>
			<point x="426" y="349"/>
			<point x="426" y="514" type="curve" smooth="yes"/>
			<point x="426" y="680"/>
			<point x="264" y="700"/>
			<point x="205" y="700" type="curve" smooth="yes"/>
			<point x="85" y="700" type="line"/>
			<point x="85" y="647" type="line"/>
			<point x="185" y="647" type="line" smooth="yes"/>
			<point x="299" y="647"/>
			<point x="368" y="611"/>
			<point x="368" y="514" type="curve" smooth="yes"/>
			<point x="368" y="417"/>
			<point x="299" y="382"/>
			<point x="185" y="382" type="curve" smooth="yes"/>
			<point x="85" y="382" type="line"/>
			<point x="85" y="322" type="line"/>
		</contour>
		<contour>
			<point x="85" y="502" type="line"/>
			<point x="546" y="502" type="line"/>
			<point x="546" y="545" type="line"/>
			<point x="85" y="545" type="line"/>
		</contour>
		<contour>
			<point x="85" y="657" type="line"/>
			<point x="546" y="657" type="line"/>
			<point x="546" y="700" type="line"/>
			<point x="85" y="700" type="line"/>
		</contour>
	</outline>
</glyph>
<glyph name="liraTurkish" format="2">
	<advance width="672"/>
	<unicode hex="20BA"/>
	<outline>
		<contour>
			<point x="182" y="0" type="line"/>
			<point x="405" y="0" type="line" smooth="yes"/>
			<point x="526" y="0"/>
			<point x="622" y="84"/>
			<point x="627" y="202" type="curve"/>
			<point x="574" y="210" type="line"/>
			<point x="568" y="123"/>
			<point x="494" y="53"/>
			<point x="405" y="53" type="curve" smooth="yes"/>
			<point x="240" y="53" type="line"/>
			<point x="240" y="700" type="line"/>
			<point x="182" y="700" type="line"/>
		</contour>
		<contour>
			<point x="65" y="257" type="line"/>
			<point x="484" y="372" type="line"/>
			<point x="484" y="414" type="line"/>
			<point x="65" y="299" type="line"/>
		</contour>
		<contour>
			<point x="65" y="400" type="line"/>
			<point x="484" y="515" type="line"/>
			<point x="484" y="557" type="line"/>
			<point x="65" y="442" type="line"/>
		</contour>
	</outline>
</glyph>
<glyph name="bitcoin" format="2">
	<advance width="586"/>
	<unicode hex="20BF"/>
	<outline>
		<contour>
			<point x="123" y="0" type="line"/>
			<point x="300" y="0" type="line" smooth="yes"/>
			<point x="399" y="0"/>
			<point x="521" y="39"/>
			<point x="521" y="191" type="curve" smooth="yes"/>
			<point x="521" y="294"/>
			<point x="448" y="361"/>
			<point x="338" y="361" type="curve"/>
			<point x="338" y="357" type="line"/>
			<point x="438" y="357"/>
			<point x="481" y="441"/>
			<point x="481" y="515" type="curve" smooth="yes"/>
			<point x="481" y="648"/>
			<point x="368" y="700"/>
			<point x="260" y="700" type="curve" smooth="yes"/>
			<point x="103" y="700" type="line"/>
			<point x="103" y="647" type="line"/>
			<point x="260" y="647" type="line" smooth="yes"/>
			<point x="364" y="647"/>
			<point x="423" y="601"/>
			<point x="423" y="515" type="curve" smooth="yes"/>
			<point x="423" y="429"/>
			<point x="364" y="382"/>
			<point x="260" y="382" type="curve" smooth="yes"/>
			<point x="103" y="382" type="line"/>
			<point x="103" y="329" type="line"/>
			<point x="300" y="329" type="line" smooth="yes"/>
			<point x="394" y="329"/>
			<point x="463" y="288"/>
			<point x="463" y="191" type="curve" smooth="yes"/>
			<point x="463" y="94"/>
			<point x="394" y="53"/>
			<point x="300" y="53" type="curve" smooth="yes"/>
			<point x="123" y="53" type="line"/>
		</contour>
		<contour>
			<point x="168" y="-100" type="line"/>
			<point x="211" y="-100" type="line"/>
			<point x="211" y="33" type="line"/>
			<point x="168" y="33" type="line"/>
		</contour>
		<contour>
			<point x="311" y="-100" type="line"/>
			<point x="354" y="-100" type="line"/>
			<point x="354" y="33" type="line"/>
			<point x="311" y="33" type="line"/>
		</contour>
		<contour>
			<point x="90" y="0" type="line"/>
			<point x="143" y="0" type="line"/>
			<point x="143" y="700" type="line"/>
			<point x="90" y="700" type="line"/>
		</contour>
		<contour>
			<point x="168" y="667" type="line"/>
			<point x="211" y="667" type="line"/>
			<point x="211" y="800" type="line"/>
			<point x="168" y="800" type="line"/>
		</contour>
		<contour>
			<point x="311" y="667" type="line"/>
			<point x="354" y="667" type="line"/>
			<point x="354" y="800" type="line"/>
			<point x="311" y="800" type="line"/>
		</contour>
	</outline>
</glyph>
<glyph name="literSign" format="2">
	<advance width="656"/>
	<unicode hex="2113"/>
	<outline>
		<contour>
			<point x="336" y="-16" type="curve" smooth="yes"/>
			<point x="436" y="-16"/>
			<point x="488" y="77"/>
			<point x="492" y="152" type="curve"/>
			<point x="434" y="160" type="line"/>
			<point x="430" y="92"/>
			<point x="390" y="41"/>
			<point x="336" y="41" type="curve" smooth="yes"/>
			<point x="215" y="41"/>
			<point x="193" y="262"/>
			<point x="224" y="421" type="curve" smooth="yes"/>
			<point x="253" y="562"/>
			<point x="336" y="658"/>
			<point x="411" y="658" type="curve" smooth="yes"/>
			<point x="499" y="658"/>
			<point x="514" y="551"/>
			<point x="472" y="452" type="curve" smooth="yes"/>
			<point x="417" y="321"/>
			<point x="273" y="233"/>
			<point x="65" y="230" type="curve"/>
			<point x="65" y="172" type="line"/>
			<point x="306" y="175"/>
			<point x="460" y="289"/>
			<point x="520" y="432" type="curve" smooth="yes"/>
			<point x="581" y="577"/>
			<point x="553" y="716"/>
			<point x="421" y="716" type="curve" smooth="yes"/>
			<point x="315" y="716"/>
			<point x="203" y="600"/>
			<point x="166" y="417" type="curve" smooth="yes"/>
			<point x="135" y="261"/>
			<point x="155" y="-16"/>
		</contour>
	</outline>
</glyph>
<glyph name="numero" format="2">
	<advance width="1194"/>
	<unicode hex="2116"/>
	<outline>
		<contour>
			<point x="899" y="173" type="curve" smooth="yes"/>
			<point x="1015" y="173"/>
			<point x="1104" y="262"/>
			<point x="1104" y="378" type="curve" smooth="yes"/>
			<point x="1104" y="494"/>
			<point x="1015" y="583"/>
			<point x="899" y="583" type="curve" smooth="yes"/>
			<point x="784" y="583"/>
			<point x="694" y="494"/>
			<point x="694" y="378" type="curve" smooth="yes"/>
			<point x="694" y="262"/>
			<point x="784" y="173"/>
		</contour>
		<component base="N"/>
		<contour>
			<point x="742" y="0" type="line"/>
			<point x="1057" y="0" type="line"/>
			<point x="1057" y="53" type="line"/>
			<point x="742" y="53" type="line"/>
		</contour>
		<contour>
			<point x="899" y="226" type="curve" smooth="yes"/>
			<point x="815" y="226"/>
			<point x="747" y="294"/>
			<point x="747" y="378" type="curve" smooth="yes"/>
			<point x="747" y="463"/>
			<point x="815" y="530"/>
			<point x="899" y="530" type="curve" smooth="yes"/>
			<point x="985" y="530"/>
			<point x="1051" y="463"/>
			<point x="1051" y="378" type="curve" smooth="yes"/>
			<point x="1051" y="294"/>
			<point x="985" y="226"/>
		</contour>
	</outline>
</glyph>
<glyph name="published" format="2">
	<advance width="540"/>
	<unicode hex="2117"/>
	<outline>
		<contour>
			<point x="270" y="286" type="curve" smooth="yes"/>
			<point x="390" y="286"/>
			<point x="485" y="381"/>
			<point x="485" y="501" type="curve" smooth="yes"/>
			<point x="485" y="621"/>
			<point x="390" y="716"/>
			<point x="270" y="716" type="curve" smooth="yes"/>
			<point x="151" y="716"/>
			<point x="55" y="621"/>
			<point x="55" y="501" type="curve" smooth="yes"/>
			<point x="55" y="381"/>
			<point x="151" y="286"/>
		</contour>
		<contour>
			<point x="216" y="393" type="line"/>
			<point x="243" y="393" type="line"/>
			<point x="243" y="611" type="line"/>
			<point x="216" y="611" type="line"/>
		</contour>
		<contour>
			<point x="270" y="313" type="curve" smooth="yes"/>
			<point x="165" y="313"/>
			<point x="82" y="396"/>
			<point x="82" y="501" type="curve" smooth="yes"/>
			<point x="82" y="607"/>
			<point x="165" y="689"/>
			<point x="270" y="689" type="curve" smooth="yes"/>
			<point x="377" y="689"/>
			<point x="458" y="607"/>
			<point x="458" y="501" type="curve" smooth="yes"/>
			<point x="458" y="396"/>
			<point x="377" y="313"/>
		</contour>
		<contour>
			<point x="226" y="490" type="line"/>
			<point x="284" y="490" type="line" smooth="yes"/>
			<point x="324" y="490"/>
			<point x="355" y="512"/>
			<point x="355" y="550" type="curve" smooth="yes"/>
			<point x="355" y="592"/>
			<point x="324" y="611"/>
			<point x="284" y="611" type="curve" smooth="yes"/>
			<point x="226" y="611" type="line"/>
			<point x="226" y="585" type="line"/>
			<point x="284" y="585" type="line" smooth="yes"/>
			<point x="311" y="585"/>
			<point x="328" y="576"/>
			<point x="328" y="550" type="curve" smooth="yes"/>
			<point x="328" y="524"/>
			<point x="311" y="516"/>
			<point x="284" y="516" type="curve" smooth="yes"/>
			<point x="226" y="516" type="line"/>
		</contour>
	</outline>
</glyph>
<glyph name="trademark" format="2">
	<advance width="778"/>
	<unicode hex="2122"/>
	<outline>
		<contour>
			<point x="380" y="336" type="line"/>
			<point x="419" y="336" type="line"/>
			<point x="419" y="617" type="line"/>
			<point x="417" y="617" type="line"/>
			<point x="515" y="336" type="line"/>
			<point x="558" y="336" type="line"/>
			<point x="656" y="617" type="line"/>
			<point x="654" y="617" type="line"/>
			<point x="654" y="336" type="line"/>
			<point x="693" y="336" type="line"/>
			<point x="693" y="700" type="line"/>
			<point x="651" y="700" type="line"/>
			<point x="536" y="373" type="line"/>
			<point x="538" y="373" type="line"/>
			<point x="422" y="700" type="line"/>
			<point x="380" y="700" type="line"/>
		</contour>
		<contour>
			<point x="143" y="336" type="line"/>
			<point x="182" y="336" type="line"/>
			<point x="182" y="675" type="line"/>
			<point x="143" y="675" type="line"/>
		</contour>
		<contour>
			<point x="15" y="666" type="line"/>
			<point x="310" y="666" type="line"/>
			<point x="310" y="700" type="line"/>
			<point x="15" y="700" type="line"/>
		</contour>
	</outline>
</glyph>
<glyph name="upArrow" format="2">
	<advance width="660"/>
	<unicode hex="2191"/>
	<outline>
		<contour>
			<point x="85" y="396" type="line"/>
			<point x="245" y="396"/>
			<point x="316" y="507"/>
			<point x="316" y="577" type="curve"/>
			<point x="344" y="577" type="line"/>
			<point x="344" y="507"/>
			<point x="415" y="396"/>
			<point x="575" y="396" type="curve"/>
			<point x="575" y="444" type="line"/>
			<point x="425" y="444"/>
			<point x="353" y="569"/>
			<point x="353" y="639" type="curve"/>
			<point x="307" y="639" type="line"/>
			<point x="307" y="569"/>
			<point x="235" y="444"/>
			<point x="85" y="444" type="curve"/>
		</contour>
		<contour>
			<point x="307" y="-24" type="line"/>
			<point x="353" y="-24" type="line"/>
			<point x="353" y="607" type="line"/>
			<point x="307" y="607" type="line"/>
		</contour>
	</outline>
</glyph>
<glyph name="rightArrow" format="2">
	<advance width="833"/>
	<unicode hex="2192"/>
	<outline>
		<contour>
			<point x="505" y="58" type="curve"/>
			<point x="553" y="58" type="line"/>
			<point x="553" y="208"/>
			<point x="678" y="280"/>
			<point x="748" y="280" type="curve"/>
			<point x="748" y="326" type="line"/>
			<point x="678" y="326"/>
			<point x="553" y="398"/>
			<point x="553" y="548" type="curve"/>
			<point x="505" y="548" type="line"/>
			<point x="505" y="388"/>
			<point x="616" y="317"/>
			<point x="686" y="317" type="curve"/>
			<point x="686" y="289" type="line"/>
			<point x="616" y="289"/>
			<point x="505" y="218"/>
		</contour>
		<contour>
			<point x="85" y="280" type="line"/>
			<point x="716" y="280" type="line"/>
			<point x="716" y="326" type="line"/>
			<point x="85" y="326" type="line"/>
		</contour>
	</outline>
</glyph>
<glyph name="downArrow" format="2">
	<advance width="660"/>
	<unicode hex="2193"/>
	<outline>
		<contour>
			<point x="307" y="-34" type="curve"/>
			<point x="353" y="-34" type="line"/>
			<point x="353" y="36"/>
			<point x="425" y="161"/>
			<point x="575" y="161" type="curve"/>
			<point x="575" y="209" type="line"/>
			<point x="415" y="209"/>
			<point x="344" y="98"/>
			<point x="344" y="28" type="curve"/>
			<point x="316" y="28" type="line"/>
			<point x="316" y="98"/>
			<point x="245" y="209"/>
			<point x="85" y="209" type="curve"/>
			<point x="85" y="161" type="line"/>
			<point x="235" y="161"/>
			<point x="307" y="36"/>
		</contour>
		<contour>
			<point x="307" y="-2" type="line"/>
			<point x="353" y="-2" type="line"/>
			<point x="353" y="629" type="line"/>
			<point x="307" y="629" type="line"/>
		</contour>
	</outline>
</glyph>
<glyph name="upDownArrow" format="2">
	<advance width="660"/>
	<unicode hex="2195"/>
	<outline>
		<contour>
			<point x="85" y="431" type="line"/>
			<point x="245" y="431"/>
			<point x="316" y="542"/>
			<point x="316" y="612" type="curve"/>
			<point x="344" y="612" type="line"/>
			<point x="344" y="542"/>
			<point x="415" y="431"/>
			<point x="575" y="431" type="curve"/>
			<point x="575" y="479" type="line"/>
			<point x="425" y="479"/>
			<point x="353" y="604"/>
			<point x="353" y="674" type="curve"/>
			<point x="307" y="674" type="line"/>
			<point x="307" y="604"/>
			<point x="235" y="479"/>
			<point x="85" y="479" type="curve"/>
		</contour>
		<contour>
			<point x="307" y="-61" type="curve"/>
			<point x="353" y="-61" type="line"/>
			<point x="353" y="9"/>
			<point x="425" y="134"/>
			<point x="575" y="134" type="curve"/>
			<point x="575" y="182" type="line"/>
			<point x="415" y="182"/>
			<point x="344" y="71"/>
			<point x="344" y="1" type="curve"/>
			<point x="316" y="1" type="line"/>
			<point x="316" y="71"/>
			<point x="245" y="182"/>
			<point x="85" y="182" type="curve"/>
			<point x="85" y="134" type="line"/>
			<point x="235" y="134"/>
			<point x="307" y="9"/>
		</contour>
		<contour>
			<point x="307" y="-29" type="line"/>
			<point x="353" y="-29" type="line"/>
			<point x="353" y="642" type="line"/>
			<point x="307" y="642" type="line"/>
		</contour>
	</outline>
</glyph>
<glyph name="northWestArrow" format="2">
	<advance width="690"/>
	<unicode hex="2196"/>
	<outline>
		<contour>
			<point x="573" y="56" type="line"/>
			<point x="605" y="88" type="line"/>
			<point x="159" y="535" type="line"/>
			<point x="127" y="502" type="line"/>
		</contour>
		<contour>
			<point x="119" y="196" type="line"/>
			<point x="232" y="309"/>
			<point x="204" y="438"/>
			<point x="154" y="487" type="curve"/>
			<point x="174" y="507" type="line"/>
			<point x="223" y="457"/>
			<point x="352" y="429"/>
			<point x="465" y="542" type="curve"/>
			<point x="431" y="576" type="line"/>
			<point x="325" y="470"/>
			<point x="186" y="508"/>
			<point x="136" y="557" type="curve"/>
			<point x="104" y="525" type="line"/>
			<point x="153" y="475"/>
			<point x="191" y="336"/>
			<point x="85" y="230" type="curve"/>
		</contour>
	</outline>
</glyph>
<glyph name="northEastArrow" format="2">
	<advance width="690"/>
	<unicode hex="2197"/>
	<outline>
		<contour>
			<point x="117" y="56" type="line"/>
			<point x="563" y="502" type="line"/>
			<point x="531" y="535" type="line"/>
			<point x="85" y="88" type="line"/>
		</contour>
		<contour>
			<point x="571" y="196" type="curve"/>
			<point x="605" y="230" type="line"/>
			<point x="499" y="336"/>
			<point x="537" y="475"/>
			<point x="586" y="525" type="curve"/>
			<point x="554" y="557" type="line"/>
			<point x="504" y="508"/>
			<point x="365" y="470"/>
			<point x="259" y="576" type="curve"/>
			<point x="225" y="542" type="line"/>
			<point x="338" y="429"/>
			<point x="467" y="457"/>
			<point x="516" y="507" type="curve"/>
			<point x="536" y="487" type="line"/>
			<point x="486" y="438"/>
			<point x="458" y="309"/>
		</contour>
	</outline>
</glyph>
<glyph name="southEastArrow" format="2">
	<advance width="690"/>
	<unicode hex="2198"/>
	<outline>
		<contour>
			<point x="531" y="85" type="line"/>
			<point x="563" y="118" type="line"/>
			<point x="117" y="564" type="line"/>
			<point x="85" y="532" type="line"/>
		</contour>
		<contour>
			<point x="259" y="44" type="line"/>
			<point x="365" y="150"/>
			<point x="504" y="112"/>
			<point x="554" y="63" type="curve"/>
			<point x="586" y="95" type="line"/>
			<point x="537" y="145"/>
			<point x="499" y="284"/>
			<point x="605" y="390" type="curve"/>
			<point x="571" y="424" type="line"/>
			<point x="458" y="311"/>
			<point x="486" y="182"/>
			<point x="536" y="133" type="curve"/>
			<point x="516" y="113" type="line"/>
			<point x="467" y="163"/>
			<point x="338" y="191"/>
			<point x="225" y="78" type="curve"/>
		</contour>
	</outline>
</glyph>
<glyph name="southWestArrow" format="2">
	<advance width="690"/>
	<unicode hex="2199"/>
	<outline>
		<contour>
			<point x="159" y="85" type="line"/>
			<point x="605" y="532" type="line"/>
			<point x="573" y="564" type="line"/>
			<point x="127" y="118" type="line"/>
		</contour>
		<contour>
			<point x="431" y="44" type="curve"/>
			<point x="465" y="78" type="line"/>
			<point x="352" y="191"/>
			<point x="223" y="163"/>
			<point x="174" y="113" type="curve"/>
			<point x="154" y="133" type="line"/>
			<point x="204" y="182"/>
			<point x="232" y="311"/>
			<point x="119" y="424" type="curve"/>
			<point x="85" y="390" type="line"/>
			<point x="191" y="284"/>
			<point x="153" y="145"/>
			<point x="104" y="95" type="curve"/>
			<point x="136" y="63" type="line"/>
			<point x="186" y="112"/>
			<point x="325" y="150"/>
		</contour>
	</outline>
</glyph>
<glyph name="leftHookArrow" format="2">
	<advance width="1054"/>
	<unicode hex="21A9"/>
	<outline>
		<contour>
			<point x="117" y="280" type="line"/>
			<point x="758" y="280" type="line" smooth="yes"/>
			<point x="877" y="280"/>
			<point x="969" y="372"/>
			<point x="969" y="490" type="curve" smooth="yes"/>
			<point x="969" y="608"/>
			<point x="877" y="700"/>
			<point x="758" y="700" type="curve" smooth="yes"/>
			<point x="598" y="700" type="line"/>
			<point x="598" y="654" type="line"/>
			<point x="758" y="654" type="line" smooth="yes"/>
			<point x="849" y="654"/>
			<point x="923" y="580"/>
			<point x="923" y="490" type="curve" smooth="yes"/>
			<point x="923" y="400"/>
			<point x="849" y="326"/>
			<point x="758" y="326" type="curve" smooth="yes"/>
			<point x="117" y="326" type="line"/>
		</contour>
		<contour>
			<point x="280" y="58" type="curve"/>
			<point x="328" y="58" type="line"/>
			<point x="328" y="218"/>
			<point x="217" y="289"/>
			<point x="147" y="289" type="curve"/>
			<point x="147" y="317" type="line"/>
			<point x="217" y="317"/>
			<point x="328" y="388"/>
			<point x="328" y="548" type="curve"/>
			<point x="280" y="548" type="line"/>
			<point x="280" y="398"/>
			<point x="155" y="326"/>
			<point x="85" y="326" type="curve"/>
			<point x="85" y="280" type="line"/>
			<point x="155" y="280"/>
			<point x="280" y="208"/>
		</contour>
	</outline>
</glyph>
<glyph name="rightHookArrow" format="2">
	<advance width="1054"/>
	<unicode hex="21AA"/>
	<outline>
		<contour>
			<point x="296" y="280" type="curve" smooth="yes"/>
			<point x="937" y="280" type="line"/>
			<point x="937" y="326" type="line"/>
			<point x="296" y="326" type="line" smooth="yes"/>
			<point x="205" y="326"/>
			<point x="131" y="400"/>
			<point x="131" y="490" type="curve" smooth="yes"/>
			<point x="131" y="580"/>
			<point x="205" y="654"/>
			<point x="296" y="654" type="curve" smooth="yes"/>
			<point x="456" y="654" type="line"/>
			<point x="456" y="700" type="line"/>
			<point x="296" y="700" type="line" smooth="yes"/>
			<point x="177" y="700"/>
			<point x="85" y="608"/>
			<point x="85" y="490" type="curve" smooth="yes"/>
			<point x="85" y="372"/>
			<point x="177" y="280"/>
		</contour>
		<contour>
			<point x="726" y="58" type="curve"/>
			<point x="774" y="58" type="line"/>
			<point x="774" y="208"/>
			<point x="899" y="280"/>
			<point x="969" y="280" type="curve"/>
			<point x="969" y="326" type="line"/>
			<point x="899" y="326"/>
			<point x="774" y="398"/>
			<point x="774" y="548" type="curve"/>
			<point x="726" y="548" type="line"/>
			<point x="726" y="388"/>
			<point x="837" y="317"/>
			<point x="907" y="317" type="curve"/>
			<point x="907" y="289" type="line"/>
			<point x="837" y="289"/>
			<point x="726" y="218"/>
		</contour>
	</outline>
</glyph>
<glyph name="upTipRightArrow" format="2">
	<advance width="773"/>
	<unicode hex="21B1"/>
	<outline>
		<contour>
			<point x="445" y="58" type="curve"/>
			<point x="493" y="58" type="line"/>
			<point x="493" y="208"/>
			<point x="618" y="280"/>
			<point x="688" y="280" type="curve"/>
			<point x="688" y="326" type="line"/>
			<point x="618" y="326"/>
			<point x="493" y="398"/>
			<point x="493" y="548" type="curve"/>
			<point x="445" y="548" type="line"/>
			<point x="445" y="388"/>
			<point x="556" y="317"/>
			<point x="626" y="317" type="curve"/>
			<point x="626" y="289" type="line"/>
			<point x="556" y="289"/>
			<point x="445" y="218"/>
		</contour>
		<contour>
			<point x="85" y="-84" type="line"/>
			<point x="131" y="-84" type="line"/>
			<point x="131" y="326" type="line"/>
			<point x="85" y="326" type="line"/>
		</contour>
		<contour>
			<point x="85" y="280" type="line"/>
			<point x="656" y="280" type="line"/>
			<point x="656" y="326" type="line"/>
			<point x="85" y="326" type="line"/>
		</contour>
	</outline>
</glyph>
<glyph name="downTipLeftArrow" format="2">
	<advance width="773"/>
	<unicode hex="21B2"/>
	<outline>
		<contour>
			<point x="280" y="58" type="curve"/>
			<point x="328" y="58" type="line"/>
			<point x="328" y="218"/>
			<point x="217" y="289"/>
			<point x="147" y="289" type="curve"/>
			<point x="147" y="317" type="line"/>
			<point x="217" y="317"/>
			<point x="328" y="388"/>
			<point x="328" y="548" type="curve"/>
			<point x="280" y="548" type="line"/>
			<point x="280" y="398"/>
			<point x="155" y="326"/>
			<point x="85" y="326" type="curve"/>
			<point x="85" y="280" type="line"/>
			<point x="155" y="280"/>
			<point x="280" y="208"/>
		</contour>
		<contour>
			<point x="117" y="280" type="line"/>
			<point x="688" y="280" type="line"/>
			<point x="688" y="326" type="line"/>
			<point x="117" y="326" type="line"/>
		</contour>
		<contour>
			<point x="642" y="280" type="line"/>
			<point x="688" y="280" type="line"/>
			<point x="688" y="690" type="line"/>
			<point x="642" y="690" type="line"/>
		</contour>
	</outline>
</glyph>
<glyph name="partialdiff" format="2">
	<advance width="674"/>
	<unicode hex="2202"/>
	<outline>
		<contour>
			<point x="336" y="-16" type="curve" smooth="yes"/>
			<point x="509" y="-16"/>
			<point x="569" y="128"/>
			<point x="569" y="256" type="curve" smooth="yes"/>
			<point x="569" y="517"/>
			<point x="446" y="709"/>
			<point x="286" y="716" type="curve"/>
			<point x="286" y="668" type="line"/>
			<point x="398" y="660"/>
			<point x="509" y="521"/>
			<point x="519" y="285" type="curve"/>
			<point x="533" y="289" type="line"/>
			<point x="505" y="386"/>
			<point x="439" y="465"/>
			<point x="336" y="465" type="curve" smooth="yes"/>
			<point x="207" y="465"/>
			<point x="105" y="353"/>
			<point x="105" y="224" type="curve" smooth="yes"/>
			<point x="105" y="96"/>
			<point x="207" y="-16"/>
		</contour>
		<contour>
			<point x="336" y="37" type="curve" smooth="yes"/>
			<point x="238" y="37"/>
			<point x="163" y="129"/>
			<point x="163" y="226" type="curve" smooth="yes"/>
			<point x="163" y="323"/>
			<point x="239" y="412"/>
			<point x="336" y="412" type="curve" smooth="yes"/>
			<point x="433" y="412"/>
			<point x="512" y="323"/>
			<point x="512" y="226" type="curve" smooth="yes"/>
			<point x="512" y="129"/>
			<point x="433" y="37"/>
		</contour>
	</outline>
</glyph>
<glyph name="emptyset" format="2">
	<advance width="942"/>
	<unicode hex="2205"/>
	<outline>
		<contour>
			<point x="193" y="14" type="line"/>
			<point x="781" y="654" type="line"/>
			<point x="749" y="686" type="line"/>
			<point x="161" y="46" type="line"/>
		</contour>
		<contour>
			<point x="471" y="-16" type="curve" smooth="yes"/>
			<point x="673" y="-16"/>
			<point x="837" y="148"/>
			<point x="837" y="350" type="curve" smooth="yes"/>
			<point x="837" y="552"/>
			<point x="673" y="716"/>
			<point x="471" y="716" type="curve" smooth="yes"/>
			<point x="269" y="716"/>
			<point x="105" y="552"/>
			<point x="105" y="350" type="curve" smooth="yes"/>
			<point x="105" y="148"/>
			<point x="269" y="-16"/>
		</contour>
		<contour>
			<point x="471" y="42" type="curve" smooth="yes"/>
			<point x="301" y="42"/>
			<point x="163" y="180"/>
			<point x="163" y="350" type="curve" smooth="yes"/>
			<point x="163" y="520"/>
			<point x="301" y="658"/>
			<point x="471" y="658" type="curve" smooth="yes"/>
			<point x="639" y="658"/>
			<point x="779" y="520"/>
			<point x="779" y="350" type="curve" smooth="yes"/>
			<point x="779" y="180"/>
			<point x="639" y="42"/>
		</contour>
	</outline>
</glyph>
<glyph name="increment" format="2">
	<advance width="760"/>
	<unicode hex="2206"/>
	<outline>
		<contour>
			<point x="105" y="0" type="line"/>
			<point x="655" y="0" type="line"/>
			<point x="419" y="700" type="line"/>
			<point x="351" y="700" type="line"/>
		</contour>
		<contour>
			<point x="176" y="42" type="line"/>
			<point x="395" y="664" type="line"/>
			<point x="374" y="664" type="line"/>
			<point x="584" y="42" type="line"/>
			<point x="592" y="53" type="line"/>
			<point x="168" y="53" type="line"/>
		</contour>
	</outline>
</glyph>
<glyph name="product" format="2">
	<advance width="696"/>
	<unicode hex="220F"/>
	<outline>
		<contour>
			<point x="533" y="-216" type="line"/>
			<point x="591" y="-216" type="line"/>
			<point x="591" y="700" type="line"/>
			<point x="533" y="700" type="line"/>
		</contour>
		<contour>
			<point x="105" y="-216" type="line"/>
			<point x="163" y="-216" type="line"/>
			<point x="163" y="700" type="line"/>
			<point x="105" y="700" type="line"/>
		</contour>
		<contour>
			<point x="105" y="647" type="line"/>
			<point x="591" y="647" type="line"/>
			<point x="591" y="700" type="line"/>
			<point x="105" y="700" type="line"/>
		</contour>
	</outline>
</glyph>
<glyph name="summation" format="2">
	<advance width="672"/>
	<unicode hex="2211"/>
	<outline>
		<contour>
			<point x="105" y="-216" type="line"/>
			<point x="567" y="-216" type="line"/>
			<point x="567" y="-163" type="line"/>
			<point x="152" y="-163" type="line"/>
			<point x="156" y="-171" type="line"/>
			<point x="438" y="242" type="line"/>
			<point x="156" y="655" type="line"/>
			<point x="152" y="647" type="line"/>
			<point x="567" y="647" type="line"/>
			<point x="567" y="700" type="line"/>
			<point x="105" y="700" type="line"/>
			<point x="105" y="640" type="line"/>
			<point x="380" y="237" type="line"/>
			<point x="380" y="247" type="line"/>
			<point x="105" y="-156" type="line"/>
		</contour>
	</outline>
</glyph>
<glyph name="radical" format="2">
	<advance width="638"/>
	<unicode hex="221A"/>
	<outline>
		<contour>
			<point x="269" y="-216" type="line"/>
			<point x="355" y="-216" type="line"/>
			<point x="583" y="700" type="line"/>
			<point x="526" y="700" type="line"/>
			<point x="313" y="-157" type="line"/>
			<point x="309" y="-157" type="line"/>
			<point x="195" y="288" type="line"/>
			<point x="55" y="288" type="line"/>
			<point x="55" y="240" type="line"/>
			<point x="159" y="240" type="line"/>
			<point x="148" y="248" type="line"/>
		</contour>
	</outline>
</glyph>
<glyph name="infinity" format="2">
	<advance width="916"/>
	<unicode hex="221E"/>
	<outline>
		<contour>
			<point x="645" y="55" type="curve" smooth="yes"/>
			<point x="745" y="55"/>
			<point x="831" y="135"/>
			<point x="831" y="261" type="curve" smooth="yes"/>
			<point x="831" y="385"/>
			<point x="745" y="467"/>
			<point x="645" y="467" type="curve" smooth="yes"/>
			<point x="415" y="467"/>
			<point x="461" y="108"/>
			<point x="271" y="108" type="curve" smooth="yes"/>
			<point x="181" y="108"/>
			<point x="143" y="191"/>
			<point x="143" y="261" type="curve" smooth="yes"/>
			<point x="143" y="331"/>
			<point x="181" y="414"/>
			<point x="271" y="414" type="curve" smooth="yes"/>
			<point x="461" y="414"/>
			<point x="415" y="55"/>
		</contour>
		<contour>
			<point x="271" y="55" type="curve" smooth="yes"/>
			<point x="501" y="55"/>
			<point x="455" y="414"/>
			<point x="645" y="414" type="curve" smooth="yes"/>
			<point x="725" y="414"/>
			<point x="773" y="331"/>
			<point x="773" y="261" type="curve" smooth="yes"/>
			<point x="773" y="191"/>
			<point x="725" y="108"/>
			<point x="645" y="108" type="curve" smooth="yes"/>
			<point x="455" y="108"/>
			<point x="501" y="467"/>
			<point x="271" y="467" type="curve" smooth="yes"/>
			<point x="171" y="467"/>
			<point x="85" y="385"/>
			<point x="85" y="261" type="curve" smooth="yes"/>
			<point x="85" y="135"/>
			<point x="171" y="55"/>
		</contour>
	</outline>
</glyph>
<glyph name="integral" format="2">
	<advance width="588"/>
	<unicode hex="222B"/>
	<outline>
		<contour>
			<point x="105" y="-206" type="line"/>
			<point x="164" y="-206" type="line" smooth="yes"/>
			<point x="246" y="-206"/>
			<point x="281" y="-174"/>
			<point x="293" y="-61" type="curve" smooth="yes"/>
			<point x="353" y="536" type="line" smooth="yes"/>
			<point x="363" y="634"/>
			<point x="377" y="647"/>
			<point x="436" y="647" type="curve" smooth="yes"/>
			<point x="483" y="647" type="line"/>
			<point x="483" y="700" type="line"/>
			<point x="424" y="700" type="line" smooth="yes"/>
			<point x="342" y="700"/>
			<point x="307" y="668"/>
			<point x="295" y="555" type="curve" smooth="yes"/>
			<point x="235" y="-42" type="line" smooth="yes"/>
			<point x="225" y="-140"/>
			<point x="211" y="-153"/>
			<point x="152" y="-153" type="curve" smooth="yes"/>
			<point x="105" y="-153" type="line"/>
		</contour>
	</outline>
</glyph>
<glyph name="approxequal" format="2">
	<advance width="589"/>
	<unicode hex="2248"/>
	<outline>
		<contour>
			<point x="85" y="371" type="line"/>
			<point x="104" y="384"/>
			<point x="137" y="399"/>
			<point x="195" y="399" type="curve" smooth="yes"/>
			<point x="280" y="399"/>
			<point x="319" y="339"/>
			<point x="394" y="339" type="curve" smooth="yes"/>
			<point x="463" y="339"/>
			<point x="492" y="362"/>
			<point x="504" y="373" type="curve"/>
			<point x="504" y="420" type="line"/>
			<point x="485" y="407"/>
			<point x="452" y="392"/>
			<point x="394" y="392" type="curve" smooth="yes"/>
			<point x="309" y="392"/>
			<point x="270" y="452"/>
			<point x="195" y="452" type="curve" smooth="yes"/>
			<point x="126" y="452"/>
			<point x="97" y="429"/>
			<point x="85" y="418" type="curve"/>
		</contour>
		<contour>
			<point x="85" y="158" type="line"/>
			<point x="104" y="171"/>
			<point x="137" y="186"/>
			<point x="195" y="186" type="curve" smooth="yes"/>
			<point x="280" y="186"/>
			<point x="319" y="126"/>
			<point x="394" y="126" type="curve" smooth="yes"/>
			<point x="463" y="126"/>
			<point x="492" y="149"/>
			<point x="504" y="160" type="curve"/>
			<point x="504" y="207" type="line"/>
			<point x="485" y="194"/>
			<point x="452" y="179"/>
			<point x="394" y="179" type="curve" smooth="yes"/>
			<point x="309" y="179"/>
			<point x="270" y="239"/>
			<point x="195" y="239" type="curve" smooth="yes"/>
			<point x="126" y="239"/>
			<point x="97" y="216"/>
			<point x="85" y="205" type="curve"/>
		</contour>
	</outline>
</glyph>
<glyph name="notequal" format="2">
	<advance width="589"/>
	<unicode hex="2260"/>
	<outline>
		<contour>
			<point x="168" y="32" type="line"/>
			<point x="216" y="32" type="line"/>
			<point x="420" y="569" type="line"/>
			<point x="373" y="569" type="line"/>
		</contour>
		<contour>
			<point x="85" y="153" type="line"/>
			<point x="504" y="153" type="line"/>
			<point x="504" y="206" type="line"/>
			<point x="85" y="206" type="line"/>
		</contour>
		<contour>
			<point x="85" y="386" type="line"/>
			<point x="504" y="386" type="line"/>
			<point x="504" y="439" type="line"/>
			<point x="85" y="439" type="line"/>
		</contour>
	</outline>
</glyph>
<glyph name="lessequal" format="2">
	<advance width="589"/>
	<unicode hex="2264"/>
	<outline>
		<contour>
			<point x="504" y="181" type="line"/>
			<point x="504" y="242" type="line"/>
			<point x="150" y="379" type="line"/>
			<point x="150" y="377" type="line"/>
			<point x="504" y="513" type="line"/>
			<point x="504" y="574" type="line"/>
			<point x="85" y="412" type="line"/>
			<point x="85" y="343" type="line"/>
		</contour>
		<contour>
			<point x="504" y="-1" type="line"/>
			<point x="504" y="52" type="line"/>
			<point x="85" y="52" type="line"/>
			<point x="85" y="-1" type="line"/>
		</contour>
	</outline>
</glyph>
<glyph name="two.circled" format="2">
	<advance width="902"/>
	<unicode hex="2461"/>
	<outline>
		<contour>
			<point x="343" y="190" type="line"/>
			<point x="566" y="190" type="line"/>
			<point x="566" y="230" type="line"/>
			<point x="377" y="230" type="line"/>
			<point x="381" y="217" type="line"/>
			<point x="462" y="253"/>
			<point x="558" y="323"/>
			<point x="558" y="423" type="curve" smooth="yes"/>
			<point x="558" y="483"/>
			<point x="522" y="528"/>
			<point x="452" y="528" type="curve" smooth="yes"/>
			<point x="372" y="528"/>
			<point x="343" y="470"/>
			<point x="343" y="420" type="curve"/>
			<point x="385" y="415" type="line"/>
			<point x="385" y="455"/>
			<point x="402" y="488"/>
			<point x="452" y="488" type="curve" smooth="yes"/>
			<point x="492" y="488"/>
			<point x="516" y="463"/>
			<point x="516" y="423" type="curve" smooth="yes"/>
			<point x="516" y="343"/>
			<point x="433" y="274"/>
			<point x="343" y="230" type="curve"/>
		</contour>
		<component base="whiteCircle"/>
	</outline>
</glyph>
<glyph name="four.circled" format="2">
	<advance width="902"/>
	<unicode hex="2463"/>
	<outline>
		<contour>
			<point x="297" y="281" type="line"/>
			<point x="585" y="281" type="line"/>
			<point x="585" y="321" type="line"/>
			<point x="322" y="321" type="line"/>
			<point x="305" y="290" type="line"/>
			<point x="426" y="358"/>
			<point x="428" y="441"/>
			<point x="428" y="521" type="curve"/>
			<point x="386" y="521" type="line"/>
			<point x="386" y="440"/>
			<point x="382" y="374"/>
			<point x="297" y="317" type="curve"/>
		</contour>
		<component base="whiteCircle"/>
		<contour>
			<point x="489" y="190" type="line"/>
			<point x="531" y="190" type="line"/>
			<point x="531" y="521" type="line"/>
			<point x="489" y="521" type="line"/>
		</contour>
	</outline>
</glyph>
<glyph name="five.circled" format="2">
	<advance width="902"/>
	<unicode hex="2464"/>
	<outline>
		<contour>
			<point x="451" y="182" type="curve" smooth="yes"/>
			<point x="518" y="182"/>
			<point x="564" y="228"/>
			<point x="564" y="300" type="curve" smooth="yes"/>
			<point x="564" y="371"/>
			<point x="518" y="416"/>
			<point x="455" y="416" type="curve" smooth="yes"/>
			<point x="414" y="416"/>
			<point x="382" y="395"/>
			<point x="360" y="362" type="curve"/>
			<point x="386" y="362" type="line"/>
			<point x="395" y="480" type="line"/>
			<point x="540" y="480" type="line"/>
			<point x="540" y="520" type="line"/>
			<point x="357" y="520" type="line"/>
			<point x="342" y="334" type="line"/>
			<point x="384" y="334" type="line"/>
			<point x="390" y="346"/>
			<point x="406" y="378"/>
			<point x="455" y="378" type="curve" smooth="yes"/>
			<point x="501" y="378"/>
			<point x="522" y="343"/>
			<point x="522" y="300" type="curve" smooth="yes"/>
			<point x="522" y="257"/>
			<point x="501" y="221"/>
			<point x="451" y="221" type="curve" smooth="yes"/>
			<point x="396" y="221"/>
			<point x="381" y="261"/>
			<point x="381" y="291" type="curve"/>
			<point x="338" y="286" type="line"/>
			<point x="338" y="236"/>
			<point x="381" y="182"/>
		</contour>
		<component base="whiteCircle"/>
	</outline>
</glyph>
<glyph name="six.circled" format="2">
	<advance width="902"/>
	<unicode hex="2465"/>
	<outline>
		<contour>
			<point x="449" y="182" type="curve" smooth="yes"/>
			<point x="512" y="182"/>
			<point x="561" y="230"/>
			<point x="561" y="297" type="curve" smooth="yes"/>
			<point x="561" y="363"/>
			<point x="512" y="410"/>
			<point x="449" y="410" type="curve" smooth="yes"/>
			<point x="391" y="410"/>
			<point x="353" y="368"/>
			<point x="351" y="302" type="curve"/>
			<point x="369" y="302" type="line"/>
			<point x="354" y="421"/>
			<point x="389" y="488"/>
			<point x="454" y="488" type="curve" smooth="yes"/>
			<point x="492" y="488"/>
			<point x="511" y="462"/>
			<point x="522" y="428" type="curve"/>
			<point x="565" y="433" type="line"/>
			<point x="549" y="494"/>
			<point x="509" y="528"/>
			<point x="454" y="528" type="curve" smooth="yes"/>
			<point x="387" y="528"/>
			<point x="327" y="474"/>
			<point x="327" y="356" type="curve" smooth="yes"/>
			<point x="327" y="278"/>
			<point x="352" y="182"/>
		</contour>
		<contour>
			<point x="446" y="222" type="curve" smooth="yes"/>
			<point x="401" y="222"/>
			<point x="375" y="255"/>
			<point x="375" y="297" type="curve" smooth="yes"/>
			<point x="375" y="339"/>
			<point x="405" y="370"/>
			<point x="446" y="370" type="curve" smooth="yes"/>
			<point x="488" y="370"/>
			<point x="516" y="339"/>
			<point x="516" y="297" type="curve" smooth="yes"/>
			<point x="516" y="255"/>
			<point x="491" y="222"/>
		</contour>
		<component base="whiteCircle"/>
	</outline>
</glyph>
<glyph name="seven.circled" format="2">
	<advance width="902"/>
	<unicode hex="2466"/>
	<outline>
		<contour>
			<point x="402" y="190" type="curve"/>
			<point x="445" y="190" type="line"/>
			<point x="445" y="320"/>
			<point x="452" y="419"/>
			<point x="557" y="481" type="curve"/>
			<point x="557" y="521" type="line"/>
			<point x="335" y="521" type="line"/>
			<point x="335" y="481" type="line"/>
			<point x="536" y="481" type="line"/>
			<point x="549" y="514" type="line"/>
			<point x="419" y="449"/>
			<point x="402" y="320"/>
		</contour>
		<component base="whiteCircle"/>
	</outline>
</glyph>
<glyph name="eight.circled" format="2">
	<advance width="902"/>
	<unicode hex="2467"/>
	<outline>
		<contour>
			<point x="451" y="182" type="curve" smooth="yes"/>
			<point x="518" y="182"/>
			<point x="571" y="219"/>
			<point x="571" y="282" type="curve" smooth="yes"/>
			<point x="571" y="332"/>
			<point x="523" y="370"/>
			<point x="483" y="370" type="curve"/>
			<point x="483" y="354" type="line"/>
			<point x="523" y="354"/>
			<point x="559" y="392"/>
			<point x="559" y="435" type="curve" smooth="yes"/>
			<point x="559" y="479"/>
			<point x="523" y="528"/>
			<point x="451" y="528" type="curve" smooth="yes"/>
			<point x="379" y="528"/>
			<point x="343" y="479"/>
			<point x="343" y="435" type="curve" smooth="yes"/>
			<point x="343" y="395"/>
			<point x="379" y="353"/>
			<point x="419" y="353" type="curve"/>
			<point x="419" y="369" type="line"/>
			<point x="379" y="369"/>
			<point x="331" y="335"/>
			<point x="331" y="282" type="curve" smooth="yes"/>
			<point x="331" y="219"/>
			<point x="384" y="182"/>
		</contour>
		<contour>
			<point x="451" y="222" type="curve" smooth="yes"/>
			<point x="405" y="222"/>
			<point x="373" y="246"/>
			<point x="373" y="282" type="curve" smooth="yes"/>
			<point x="373" y="319"/>
			<point x="405" y="342"/>
			<point x="451" y="342" type="curve" smooth="yes"/>
			<point x="497" y="342"/>
			<point x="529" y="319"/>
			<point x="529" y="282" type="curve" smooth="yes"/>
			<point x="529" y="246"/>
			<point x="497" y="222"/>
		</contour>
		<component base="whiteCircle"/>
		<contour>
			<point x="451" y="381" type="curve" smooth="yes"/>
			<point x="406" y="381"/>
			<point x="385" y="406"/>
			<point x="385" y="435" type="curve" smooth="yes"/>
			<point x="385" y="463"/>
			<point x="406" y="488"/>
			<point x="451" y="488" type="curve" smooth="yes"/>
			<point x="496" y="488"/>
			<point x="517" y="463"/>
			<point x="517" y="435" type="curve" smooth="yes"/>
			<point x="517" y="406"/>
			<point x="496" y="381"/>
		</contour>
	</outline>
</glyph>
<glyph name="nine.circled" format="2">
	<advance width="902"/>
	<unicode hex="2468"/>
	<outline>
		<contour>
			<point x="448" y="182" type="curve" smooth="yes"/>
			<point x="515" y="182"/>
			<point x="575" y="236"/>
			<point x="575" y="354" type="curve" smooth="yes"/>
			<point x="575" y="432"/>
			<point x="550" y="528"/>
			<point x="453" y="528" type="curve" smooth="yes"/>
			<point x="390" y="528"/>
			<point x="341" y="480"/>
			<point x="341" y="413" type="curve" smooth="yes"/>
			<point x="341" y="347"/>
			<point x="390" y="300"/>
			<point x="453" y="300" type="curve" smooth="yes"/>
			<point x="511" y="300"/>
			<point x="549" y="342"/>
			<point x="551" y="408" type="curve"/>
			<point x="533" y="408" type="line"/>
			<point x="548" y="289"/>
			<point x="513" y="222"/>
			<point x="448" y="222" type="curve" smooth="yes"/>
			<point x="410" y="222"/>
			<point x="391" y="248"/>
			<point x="380" y="282" type="curve"/>
			<point x="337" y="277" type="line"/>
			<point x="353" y="216"/>
			<point x="393" y="182"/>
		</contour>
		<component base="whiteCircle"/>
		<contour>
			<point x="456" y="340" type="curve" smooth="yes"/>
			<point x="414" y="340"/>
			<point x="386" y="371"/>
			<point x="386" y="413" type="curve" smooth="yes"/>
			<point x="386" y="455"/>
			<point x="411" y="488"/>
			<point x="456" y="488" type="curve" smooth="yes"/>
			<point x="501" y="488"/>
			<point x="527" y="455"/>
			<point x="527" y="413" type="curve" smooth="yes"/>
			<point x="527" y="371"/>
			<point x="497" y="340"/>
		</contour>
	</outline>
</glyph>
<glyph name="zero.circled" format="2">
	<advance width="902"/>
	<unicode hex="24EA"/>
	<outline>
		<contour>
			<point x="451" y="182" type="curve" smooth="yes"/>
			<point x="532" y="182"/>
			<point x="577" y="253"/>
			<point x="577" y="355" type="curve" smooth="yes"/>
			<point x="577" y="457"/>
			<point x="532" y="528"/>
			<point x="451" y="528" type="curve" smooth="yes"/>
			<point x="370" y="528"/>
			<point x="325" y="457"/>
			<point x="325" y="355" type="curve" smooth="yes"/>
			<point x="325" y="253"/>
			<point x="370" y="182"/>
		</contour>
		<component base="whiteCircle"/>
		<contour>
			<point x="451" y="222" type="curve" smooth="yes"/>
			<point x="389" y="222"/>
			<point x="367" y="280"/>
			<point x="367" y="355" type="curve" smooth="yes"/>
			<point x="367" y="430"/>
			<point x="389" y="488"/>
			<point x="451" y="488" type="curve" smooth="yes"/>
			<point x="513" y="488"/>
			<point x="535" y="430"/>
			<point x="535" y="355" type="curve" smooth="yes"/>
			<point x="535" y="280"/>
			<point x="513" y="222"/>
		</contour>
	</outline>
</glyph>
<glyph name="zero.blackCircled" format="2">
	<advance width="902"/>
	<unicode hex="24FF"/>
	<outline>
		<contour>
			<point x="452" y="-16" type="curve" smooth="yes"/>
			<point x="654" y="-16"/>
			<point x="817" y="147"/>
			<point x="817" y="350" type="curve" smooth="yes"/>
			<point x="817" y="553"/>
			<point x="654" y="716"/>
			<point x="452" y="716" type="curve" smooth="yes"/>
			<point x="248" y="716"/>
			<point x="85" y="553"/>
			<point x="85" y="350" type="curve" smooth="yes"/>
			<point x="85" y="147"/>
			<point x="248" y="-16"/>
		</contour>
		<contour>
			<point x="451" y="182" type="curve" smooth="yes"/>
			<point x="370" y="182"/>
			<point x="325" y="253"/>
			<point x="325" y="355" type="curve" smooth="yes"/>
			<point x="325" y="457"/>
			<point x="370" y="528"/>
			<point x="451" y="528" type="curve" smooth="yes"/>
			<point x="532" y="528"/>
			<point x="577" y="457"/>
			<point x="577" y="355" type="curve" smooth="yes"/>
			<point x="577" y="253"/>
			<point x="532" y="182"/>
		</contour>
		<contour>
			<point x="451" y="222" type="curve" smooth="yes"/>
			<point x="513" y="222"/>
			<point x="535" y="280"/>
			<point x="535" y="355" type="curve" smooth="yes"/>
			<point x="535" y="430"/>
			<point x="513" y="488"/>
			<point x="451" y="488" type="curve" smooth="yes"/>
			<point x="389" y="488"/>
			<point x="367" y="430"/>
			<point x="367" y="355" type="curve" smooth="yes"/>
			<point x="367" y="280"/>
			<point x="389" y="222"/>
		</contour>
	</outline>
</glyph>
<glyph name="lozenge" format="2">
	<advance width="568"/>
	<unicode hex="25CA"/>
	<outline>
		<contour>
			<point x="243" y="0" type="line"/>
			<point x="315" y="0" type="line"/>
			<point x="483" y="350" type="line"/>
			<point x="315" y="700" type="line"/>
			<point x="243" y="700" type="line"/>
			<point x="85" y="350" type="line"/>
		</contour>
		<contour>
			<point x="283" y="24" type="line"/>
			<point x="138" y="346" type="line"/>
			<point x="138" y="354" type="line"/>
			<point x="283" y="676" type="line"/>
			<point x="276" y="675" type="line"/>
			<point x="431" y="353" type="line"/>
			<point x="431" y="347" type="line"/>
			<point x="276" y="25" type="line"/>
		</contour>
	</outline>
</glyph>
<glyph name="whiteCircle" format="2">
	<advance width="902"/>
	<unicode hex="25CB"/>
	<outline>
		<contour>
			<point x="452" y="-16" type="curve" smooth="yes"/>
			<point x="653" y="-16"/>
			<point x="817" y="148"/>
			<point x="817" y="350" type="curve" smooth="yes"/>
			<point x="817" y="552"/>
			<point x="653" y="716"/>
			<point x="452" y="716" type="curve" smooth="yes"/>
			<point x="249" y="716"/>
			<point x="85" y="552"/>
			<point x="85" y="350" type="curve" smooth="yes"/>
			<point x="85" y="148"/>
			<point x="249" y="-16"/>
		</contour>
		<contour>
			<point x="452" y="23" type="curve" smooth="yes"/>
			<point x="273" y="23"/>
			<point x="124" y="172"/>
			<point x="124" y="350" type="curve" smooth="yes"/>
			<point x="124" y="528"/>
			<point x="273" y="677"/>
			<point x="452" y="677" type="curve" smooth="yes"/>
			<point x="629" y="677"/>
			<point x="778" y="528"/>
			<point x="778" y="350" type="curve" smooth="yes"/>
			<point x="778" y="172"/>
			<point x="629" y="23"/>
		</contour>
	</outline>
</glyph>
<glyph name="blackCircle" format="2">
	<advance width="902"/>
	<unicode hex="25CF"/>
	<outline>
		<contour>
			<point x="452" y="-16" type="curve" smooth="yes"/>
			<point x="653" y="-16"/>
			<point x="817" y="148"/>
			<point x="817" y="350" type="curve" smooth="yes"/>
			<point x="817" y="552"/>
			<point x="653" y="716"/>
			<point x="452" y="716" type="curve" smooth="yes"/>
			<point x="249" y="716"/>
			<point x="85" y="552"/>
			<point x="85" y="350" type="curve" smooth="yes"/>
			<point x="85" y="148"/>
			<point x="249" y="-16"/>
		</contour>
	</outline>
</glyph>
<glyph name="two.blackCircled" format="2">
	<advance width="902"/>
	<unicode hex="2777"/>
	<outline>
		<contour>
			<point x="452" y="-16" type="curve" smooth="yes"/>
			<point x="654" y="-16"/>
			<point x="817" y="147"/>
			<point x="817" y="350" type="curve" smooth="yes"/>
			<point x="817" y="553"/>
			<point x="654" y="716"/>
			<point x="452" y="716" type="curve" smooth="yes"/>
			<point x="248" y="716"/>
			<point x="85" y="553"/>
			<point x="85" y="350" type="curve" smooth="yes"/>
			<point x="85" y="147"/>
			<point x="248" y="-16"/>
		</contour>
		<contour>
			<point x="343" y="190" type="line"/>
			<point x="343" y="230" type="line"/>
			<point x="433" y="274"/>
			<point x="516" y="343"/>
			<point x="516" y="423" type="curve" smooth="yes"/>
			<point x="516" y="463"/>
			<point x="492" y="488"/>
			<point x="452" y="488" type="curve" smooth="yes"/>
			<point x="402" y="488"/>
			<point x="385" y="455"/>
			<point x="385" y="415" type="curve"/>
			<point x="343" y="420" type="line"/>
			<point x="343" y="470"/>
			<point x="372" y="528"/>
			<point x="452" y="528" type="curve" smooth="yes"/>
			<point x="522" y="528"/>
			<point x="558" y="483"/>
			<point x="558" y="423" type="curve" smooth="yes"/>
			<point x="558" y="323"/>
			<point x="462" y="253"/>
			<point x="381" y="217" type="curve"/>
			<point x="377" y="230" type="line"/>
			<point x="566" y="230" type="line"/>
			<point x="566" y="190" type="line"/>
		</contour>
	</outline>
</glyph>
<glyph name="three.blackCircled" format="2">
	<advance width="902"/>
	<unicode hex="2778"/>
	<outline>
		<contour>
			<point x="452" y="-16" type="curve" smooth="yes"/>
			<point x="653" y="-16"/>
			<point x="817" y="148"/>
			<point x="817" y="350" type="curve" smooth="yes"/>
			<point x="817" y="552"/>
			<point x="653" y="716"/>
			<point x="452" y="716" type="curve" smooth="yes"/>
			<point x="249" y="716"/>
			<point x="85" y="552"/>
			<point x="85" y="350" type="curve" smooth="yes"/>
			<point x="85" y="148"/>
			<point x="249" y="-16"/>
		</contour>
		<contour>
			<point x="451" y="182" type="curve" smooth="yes"/>
			<point x="376" y="182"/>
			<point x="334" y="237"/>
			<point x="334" y="287" type="curve"/>
			<point x="376" y="292" type="line"/>
			<point x="376" y="242"/>
			<point x="411" y="223"/>
			<point x="451" y="223" type="curve" smooth="yes"/>
			<point x="491" y="223"/>
			<point x="526" y="243"/>
			<point x="526" y="283" type="curve" smooth="yes"/>
			<point x="526" y="323"/>
			<point x="491" y="342"/>
			<point x="451" y="342" type="curve" smooth="yes"/>
			<point x="412" y="342" type="line"/>
			<point x="412" y="381" type="line"/>
			<point x="451" y="381" type="line" smooth="yes"/>
			<point x="491" y="381"/>
			<point x="515" y="405"/>
			<point x="515" y="435" type="curve" smooth="yes"/>
			<point x="515" y="465"/>
			<point x="491" y="488"/>
			<point x="451" y="488" type="curve" smooth="yes"/>
			<point x="411" y="488"/>
			<point x="388" y="463"/>
			<point x="388" y="433" type="curve"/>
			<point x="346" y="438" type="line"/>
			<point x="346" y="468"/>
			<point x="373" y="528"/>
			<point x="451" y="528" type="curve" smooth="yes"/>
			<point x="524" y="528"/>
			<point x="558" y="482"/>
			<point x="558" y="435" type="curve" smooth="yes"/>
			<point x="558" y="386"/>
			<point x="512" y="356"/>
			<point x="482" y="356" type="curve"/>
			<point x="482" y="367" type="line"/>
			<point x="522" y="367"/>
			<point x="568" y="337"/>
			<point x="568" y="283" type="curve" smooth="yes"/>
			<point x="568" y="227"/>
			<point x="523" y="182"/>
		</contour>
	</outline>
</glyph>
<glyph name="four.blackCircled" format="2">
	<advance width="902"/>
	<unicode hex="2779"/>
	<outline>
		<contour>
			<point x="452" y="-16" type="curve" smooth="yes"/>
			<point x="654" y="-16"/>
			<point x="817" y="147"/>
			<point x="817" y="350" type="curve" smooth="yes"/>
			<point x="817" y="553"/>
			<point x="654" y="716"/>
			<point x="452" y="716" type="curve" smooth="yes"/>
			<point x="248" y="716"/>
			<point x="85" y="553"/>
			<point x="85" y="350" type="curve" smooth="yes"/>
			<point x="85" y="147"/>
			<point x="248" y="-16"/>
		</contour>
		<contour>
			<point x="489" y="190" type="line"/>
			<point x="489" y="281" type="line"/>
			<point x="297" y="281" type="line"/>
			<point x="297" y="317" type="line"/>
			<point x="382" y="374"/>
			<point x="386" y="440"/>
			<point x="386" y="521" type="curve"/>
			<point x="428" y="521" type="line"/>
			<point x="428" y="453"/>
			<point x="427" y="382"/>
			<point x="351" y="321" type="curve"/>
			<point x="489" y="321" type="line"/>
			<point x="489" y="521" type="line"/>
			<point x="531" y="521" type="line"/>
			<point x="531" y="321" type="line"/>
			<point x="585" y="321" type="line"/>
			<point x="585" y="281" type="line"/>
			<point x="531" y="281" type="line"/>
			<point x="531" y="190" type="line"/>
		</contour>
	</outline>
</glyph>
<glyph name="five.blackCircled" format="2">
	<advance width="902"/>
	<unicode hex="277A"/>
	<outline>
		<contour>
			<point x="452" y="-16" type="curve" smooth="yes"/>
			<point x="654" y="-16"/>
			<point x="817" y="147"/>
			<point x="817" y="350" type="curve" smooth="yes"/>
			<point x="817" y="553"/>
			<point x="654" y="716"/>
			<point x="452" y="716" type="curve" smooth="yes"/>
			<point x="248" y="716"/>
			<point x="85" y="553"/>
			<point x="85" y="350" type="curve" smooth="yes"/>
			<point x="85" y="147"/>
			<point x="248" y="-16"/>
		</contour>
		<contour>
			<point x="451" y="182" type="curve" smooth="yes"/>
			<point x="381" y="182"/>
			<point x="338" y="236"/>
			<point x="338" y="286" type="curve"/>
			<point x="381" y="291" type="line"/>
			<point x="381" y="261"/>
			<point x="396" y="221"/>
			<point x="451" y="221" type="curve" smooth="yes"/>
			<point x="501" y="221"/>
			<point x="522" y="257"/>
			<point x="522" y="300" type="curve" smooth="yes"/>
			<point x="522" y="343"/>
			<point x="501" y="378"/>
			<point x="455" y="378" type="curve" smooth="yes"/>
			<point x="406" y="378"/>
			<point x="390" y="346"/>
			<point x="384" y="334" type="curve"/>
			<point x="342" y="334" type="line"/>
			<point x="357" y="520" type="line"/>
			<point x="540" y="520" type="line"/>
			<point x="540" y="480" type="line"/>
			<point x="395" y="480" type="line"/>
			<point x="388" y="391" type="line"/>
			<point x="404" y="407"/>
			<point x="428" y="416"/>
			<point x="455" y="416" type="curve" smooth="yes"/>
			<point x="518" y="416"/>
			<point x="564" y="371"/>
			<point x="564" y="300" type="curve" smooth="yes"/>
			<point x="564" y="228"/>
			<point x="518" y="182"/>
		</contour>
	</outline>
</glyph>
<glyph name="six.blackCircled" format="2">
	<advance width="902"/>
	<unicode hex="277B"/>
	<outline>
		<contour>
			<point x="452" y="-16" type="curve" smooth="yes"/>
			<point x="653" y="-16"/>
			<point x="817" y="148"/>
			<point x="817" y="350" type="curve" smooth="yes"/>
			<point x="817" y="552"/>
			<point x="653" y="716"/>
			<point x="452" y="716" type="curve" smooth="yes"/>
			<point x="249" y="716"/>
			<point x="85" y="552"/>
			<point x="85" y="350" type="curve" smooth="yes"/>
			<point x="85" y="148"/>
			<point x="249" y="-16"/>
		</contour>
		<contour>
			<point x="446" y="222" type="curve" smooth="yes"/>
			<point x="491" y="222"/>
			<point x="516" y="255"/>
			<point x="516" y="297" type="curve" smooth="yes"/>
			<point x="516" y="339"/>
			<point x="488" y="370"/>
			<point x="446" y="370" type="curve" smooth="yes"/>
			<point x="405" y="370"/>
			<point x="375" y="339"/>
			<point x="375" y="297" type="curve" smooth="yes"/>
			<point x="375" y="255"/>
			<point x="401" y="222"/>
		</contour>
		<contour>
			<point x="449" y="182" type="curve" smooth="yes"/>
			<point x="352" y="182"/>
			<point x="327" y="278"/>
			<point x="327" y="356" type="curve" smooth="yes"/>
			<point x="327" y="474"/>
			<point x="387" y="528"/>
			<point x="454" y="528" type="curve" smooth="yes"/>
			<point x="509" y="528"/>
			<point x="549" y="494"/>
			<point x="565" y="433" type="curve"/>
			<point x="522" y="428" type="line"/>
			<point x="511" y="462"/>
			<point x="492" y="488"/>
			<point x="454" y="488" type="curve" smooth="yes"/>
			<point x="389" y="488"/>
			<point x="354" y="421"/>
			<point x="369" y="302" type="curve"/>
			<point x="351" y="302" type="line"/>
			<point x="353" y="368"/>
			<point x="391" y="410"/>
			<point x="449" y="410" type="curve" smooth="yes"/>
			<point x="512" y="410"/>
			<point x="561" y="363"/>
			<point x="561" y="297" type="curve" smooth="yes"/>
			<point x="561" y="230"/>
			<point x="512" y="182"/>
		</contour>
	</outline>
</glyph>
<glyph name="seven.blackCircled" format="2">
	<advance width="902"/>
	<unicode hex="277C"/>
	<outline>
		<contour>
			<point x="452" y="-16" type="curve" smooth="yes"/>
			<point x="654" y="-16"/>
			<point x="817" y="147"/>
			<point x="817" y="350" type="curve" smooth="yes"/>
			<point x="817" y="553"/>
			<point x="654" y="716"/>
			<point x="452" y="716" type="curve" smooth="yes"/>
			<point x="248" y="716"/>
			<point x="85" y="553"/>
			<point x="85" y="350" type="curve" smooth="yes"/>
			<point x="85" y="147"/>
			<point x="248" y="-16"/>
		</contour>
		<contour>
			<point x="402" y="190" type="line"/>
			<point x="402" y="301"/>
			<point x="414" y="411"/>
			<point x="498" y="481" type="curve"/>
			<point x="335" y="481" type="line"/>
			<point x="335" y="521" type="line"/>
			<point x="557" y="521" type="line"/>
			<point x="557" y="481" type="line"/>
			<point x="452" y="419"/>
			<point x="445" y="320"/>
			<point x="445" y="190" type="curve"/>
		</contour>
	</outline>
</glyph>
<glyph name="eight.blackCircled" format="2">
	<advance width="902"/>
	<unicode hex="277D"/>
	<outline>
		<contour>
			<point x="452" y="-16" type="curve" smooth="yes"/>
			<point x="653" y="-16"/>
			<point x="817" y="148"/>
			<point x="817" y="350" type="curve" smooth="yes"/>
			<point x="817" y="552"/>
			<point x="653" y="716"/>
			<point x="452" y="716" type="curve" smooth="yes"/>
			<point x="249" y="716"/>
			<point x="85" y="552"/>
			<point x="85" y="350" type="curve" smooth="yes"/>
			<point x="85" y="148"/>
			<point x="249" y="-16"/>
		</contour>
		<contour>
			<point x="451" y="221" type="curve" smooth="yes"/>
			<point x="497" y="221"/>
			<point x="530" y="246"/>
			<point x="530" y="282" type="curve" smooth="yes"/>
			<point x="530" y="319"/>
			<point x="497" y="343"/>
			<point x="451" y="343" type="curve" smooth="yes"/>
			<point x="405" y="343"/>
			<point x="372" y="319"/>
			<point x="372" y="282" type="curve" smooth="yes"/>
			<point x="372" y="246"/>
			<point x="405" y="221"/>
		</contour>
		<contour>
			<point x="451" y="182" type="curve" smooth="yes"/>
			<point x="384" y="182"/>
			<point x="331" y="219"/>
			<point x="331" y="282" type="curve" smooth="yes"/>
			<point x="331" y="335"/>
			<point x="379" y="369"/>
			<point x="419" y="369" type="curve"/>
			<point x="419" y="353" type="line"/>
			<point x="379" y="353"/>
			<point x="343" y="395"/>
			<point x="343" y="435" type="curve" smooth="yes"/>
			<point x="343" y="479"/>
			<point x="379" y="528"/>
			<point x="451" y="528" type="curve" smooth="yes"/>
			<point x="523" y="528"/>
			<point x="559" y="479"/>
			<point x="559" y="435" type="curve" smooth="yes"/>
			<point x="559" y="392"/>
			<point x="523" y="354"/>
			<point x="483" y="354" type="curve"/>
			<point x="483" y="370" type="line"/>
			<point x="523" y="370"/>
			<point x="571" y="332"/>
			<point x="571" y="282" type="curve" smooth="yes"/>
			<point x="571" y="219"/>
			<point x="518" y="182"/>
		</contour>
		<contour>
			<point x="451" y="380" type="curve" smooth="yes"/>
			<point x="496" y="380"/>
			<point x="518" y="406"/>
			<point x="518" y="435" type="curve" smooth="yes"/>
			<point x="518" y="463"/>
			<point x="496" y="489"/>
			<point x="451" y="489" type="curve" smooth="yes"/>
			<point x="406" y="489"/>
			<point x="384" y="463"/>
			<point x="384" y="435" type="curve" smooth="yes"/>
			<point x="384" y="406"/>
			<point x="406" y="380"/>
		</contour>
	</outline>
</glyph>
<glyph name="nine.blackCircled" format="2">
	<advance width="902"/>
	<unicode hex="277E"/>
	<outline>
		<contour>
			<point x="452" y="-16" type="curve" smooth="yes"/>
			<point x="653" y="-16"/>
			<point x="817" y="148"/>
			<point x="817" y="350" type="curve" smooth="yes"/>
			<point x="817" y="552"/>
			<point x="653" y="716"/>
			<point x="452" y="716" type="curve" smooth="yes"/>
			<point x="249" y="716"/>
			<point x="85" y="552"/>
			<point x="85" y="350" type="curve" smooth="yes"/>
			<point x="85" y="148"/>
			<point x="249" y="-16"/>
		</contour>
		<contour>
			<point x="448" y="182" type="curve" smooth="yes"/>
			<point x="393" y="182"/>
			<point x="353" y="216"/>
			<point x="337" y="277" type="curve"/>
			<point x="380" y="282" type="line"/>
			<point x="391" y="248"/>
			<point x="410" y="222"/>
			<point x="448" y="222" type="curve" smooth="yes"/>
			<point x="513" y="222"/>
			<point x="548" y="289"/>
			<point x="533" y="408" type="curve"/>
			<point x="551" y="408" type="line"/>
			<point x="549" y="342"/>
			<point x="511" y="300"/>
			<point x="453" y="300" type="curve" smooth="yes"/>
			<point x="390" y="300"/>
			<point x="341" y="347"/>
			<point x="341" y="413" type="curve" smooth="yes"/>
			<point x="341" y="480"/>
			<point x="390" y="528"/>
			<point x="453" y="528" type="curve" smooth="yes"/>
			<point x="550" y="528"/>
			<point x="575" y="432"/>
			<point x="575" y="354" type="curve" smooth="yes"/>
			<point x="575" y="236"/>
			<point x="515" y="182"/>
		</contour>
		<contour>
			<point x="456" y="340" type="curve" smooth="yes"/>
			<point x="497" y="340"/>
			<point x="527" y="371"/>
			<point x="527" y="413" type="curve" smooth="yes"/>
			<point x="527" y="455"/>
			<point x="501" y="488"/>
			<point x="456" y="488" type="curve" smooth="yes"/>
			<point x="411" y="488"/>
			<point x="386" y="455"/>
			<point x="386" y="413" type="curve" smooth="yes"/>
			<point x="386" y="371"/>
			<point x="414" y="340"/>
		</contour>
	</outline>
</glyph>
<glyph name="Oslash.ss03" format="2">
	<advance width="727"/>
	<outline>
		<contour>
			<point x="15" y="0" type="line"/>
			<point x="76" y="0" type="line"/>
			<point x="712" y="700" type="line"/>
			<point x="651" y="700" type="line"/>
		</contour>
		<component base="O" xOffset="-13"/>
	</outline>
</glyph>
<glyph name="Q.ss03" format="2">
	<advance width="749"/>
	<outline>
		<contour>
			<point x="624" y="0" type="line"/>
			<point x="685" y="0" type="line"/>
			<point x="401" y="346" type="line"/>
			<point x="340" y="346" type="line"/>
		</contour>
		<component base="O"/>
	</outline>
</glyph>
<glyph name="Y.ss02" format="2">
	<advance width="562"/>
	<outline>
		<contour>
			<point x="297" y="260" type="line"/>
			<point x="557" y="700" type="line"/>
			<point x="493" y="700" type="line"/>
			<point x="268" y="319" type="line"/>
		</contour>
		<contour>
			<point x="252" y="0" type="line"/>
			<point x="310" y="0" type="line"/>
			<point x="310" y="324" type="line"/>
			<point x="252" y="324" type="line"/>
		</contour>
		<contour>
			<point x="265" y="260" type="line"/>
			<point x="294" y="319" type="line"/>
			<point x="69" y="700" type="line"/>
			<point x="5" y="700" type="line"/>
		</contour>
	</outline>
</glyph>
<glyph name="asterisk.ss06" format="2">
	<advance width="484"/>
	<outline>
		<contour>
			<point x="313" y="365" type="line"/>
			<point x="349" y="389" type="line"/>
			<point x="248" y="533" type="line"/>
			<point x="213" y="508" type="line"/>
		</contour>
		<contour>
			<point x="131" y="365" type="line"/>
			<point x="231" y="508" type="line"/>
			<point x="196" y="533" type="line"/>
			<point x="95" y="389" type="line"/>
		</contour>
		<contour>
			<point x="203" y="507" type="line"/>
			<point x="221" y="546" type="line"/>
			<point x="63" y="619" type="line"/>
			<point x="45" y="580" type="line"/>
		</contour>
		<contour>
			<point x="200" y="509" type="line"/>
			<point x="244" y="509" type="line"/>
			<point x="244" y="708" type="line"/>
			<point x="200" y="708" type="line"/>
		</contour>
		<contour>
			<point x="241" y="507" type="line"/>
			<point x="399" y="580" type="line"/>
			<point x="381" y="619" type="line"/>
			<point x="223" y="546" type="line"/>
		</contour>
	</outline>
</glyph>
<glyph name="comma.ss07" format="2">
	<advance width="221"/>
	<outline>
		<contour>
			<point x="55" y="-123" type="line"/>
			<point x="125" y="-123"/>
			<point x="156" y="-57"/>
			<point x="156" y="13" type="curve" smooth="yes"/>
			<point x="156" y="53"/>
			<point x="143" y="81"/>
			<point x="113" y="81" type="curve" smooth="yes"/>
			<point x="89" y="81"/>
			<point x="70" y="62"/>
			<point x="70" y="38" type="curve" smooth="yes"/>
			<point x="70" y="14"/>
			<point x="88" y="-5"/>
			<point x="113" y="-5" type="curve" smooth="yes"/>
			<point x="123" y="-5" type="line"/>
			<point x="123" y="-35"/>
			<point x="115" y="-100"/>
			<point x="55" y="-100" type="curve"/>
		</contour>
	</outline>
</glyph>
<glyph name="commaaccentcomb.ss07" format="2">
	<advance width="380"/>
	<outline>
		<contour>
			<point x="140" y="-228" type="line"/>
			<point x="200" y="-228"/>
			<point x="240" y="-181"/>
			<point x="240" y="-131" type="curve" smooth="yes"/>
			<point x="240" y="-85"/>
			<point x="222" y="-61"/>
			<point x="191" y="-61" type="curve" smooth="yes"/>
			<point x="168" y="-61"/>
			<point x="150" y="-79"/>
			<point x="150" y="-101" type="curve" smooth="yes"/>
			<point x="150" y="-123"/>
			<point x="168" y="-141"/>
			<point x="191" y="-141" type="curve" smooth="yes"/>
			<point x="208" y="-141" type="line"/>
			<point x="208" y="-181"/>
			<point x="170" y="-205"/>
			<point x="140" y="-205" type="curve"/>
		</contour>
	</outline>
</glyph>
<glyph name="dieresis.ss07" format="2">
	<advance width="494"/>
	<outline>
		<contour>
			<point x="181" y="579" type="curve" smooth="yes"/>
			<point x="204" y="579"/>
			<point x="222" y="597"/>
			<point x="222" y="620" type="curve" smooth="yes"/>
			<point x="222" y="643"/>
			<point x="204" y="661"/>
			<point x="181" y="661" type="curve" smooth="yes"/>
			<point x="158" y="661"/>
			<point x="140" y="643"/>
			<point x="140" y="620" type="curve" smooth="yes"/>
			<point x="140" y="597"/>
			<point x="158" y="579"/>
		</contour>
		<contour>
			<point x="313" y="579" type="curve" smooth="yes"/>
			<point x="336" y="579"/>
			<point x="354" y="597"/>
			<point x="354" y="620" type="curve" smooth="yes"/>
			<point x="354" y="643"/>
			<point x="336" y="661"/>
			<point x="313" y="661" type="curve" smooth="yes"/>
			<point x="290" y="661"/>
			<point x="272" y="643"/>
			<point x="272" y="620" type="curve" smooth="yes"/>
			<point x="272" y="597"/>
			<point x="290" y="579"/>
		</contour>
	</outline>
</glyph>
<glyph name="dotaccent.ss07" format="2">
	<advance width="366"/>
	<outline>
		<contour>
			<point x="183" y="584" type="curve" smooth="yes"/>
			<point x="207" y="584"/>
			<point x="226" y="603"/>
			<point x="226" y="627" type="curve" smooth="yes"/>
			<point x="226" y="651"/>
			<point x="207" y="670"/>
			<point x="183" y="670" type="curve" smooth="yes"/>
			<point x="159" y="670"/>
			<point x="140" y="651"/>
			<point x="140" y="627" type="curve" smooth="yes"/>
			<point x="140" y="603"/>
			<point x="159" y="584"/>
		</contour>
	</outline>
</glyph>
<glyph name="downArrow.ss08" format="2">
	<advance width="693"/>
	<outline>
		<contour>
			<point x="347" y="-63" type="line"/>
			<point x="608" y="199" type="line"/>
			<point x="577" y="230" type="line"/>
			<point x="340" y="-8" type="line"/>
			<point x="354" y="-8" type="line"/>
			<point x="116" y="230" type="line"/>
			<point x="85" y="199" type="line"/>
		</contour>
		<contour>
			<point x="323" y="-20" type="line"/>
			<point x="370" y="-20" type="line"/>
			<point x="370" y="629" type="line"/>
			<point x="323" y="629" type="line"/>
		</contour>
	</outline>
</glyph>
<glyph name="downTipLeftArrow.ss08" format="2">
	<advance width="803"/>
	<outline>
		<contour>
			<point x="347" y="41" type="line"/>
			<point x="378" y="72" type="line"/>
			<point x="139" y="311" type="line"/>
			<point x="139" y="295" type="line"/>
			<point x="378" y="533" type="line"/>
			<point x="347" y="565" type="line"/>
			<point x="85" y="303" type="line"/>
		</contour>
		<contour>
			<point x="127" y="280" type="line"/>
			<point x="718" y="280" type="line"/>
			<point x="718" y="326" type="line"/>
			<point x="127" y="326" type="line"/>
		</contour>
		<contour>
			<point x="672" y="306" type="line"/>
			<point x="718" y="306" type="line"/>
			<point x="718" y="700" type="line"/>
			<point x="672" y="700" type="line"/>
		</contour>
	</outline>
</glyph>
<glyph name="eight.dnom" format="2">
	<advance width="355"/>
	<outline>
		<contour>
			<point x="177" y="-8" type="curve" smooth="yes"/>
			<point x="250" y="-8"/>
			<point x="310" y="32"/>
			<point x="310" y="102" type="curve" smooth="yes"/>
			<point x="310" y="157"/>
			<point x="261" y="199"/>
			<point x="214" y="199" type="curve"/>
			<point x="214" y="183" type="line"/>
			<point x="250" y="175"/>
			<point x="297" y="225"/>
			<point x="297" y="272" type="curve" smooth="yes"/>
			<point x="297" y="321"/>
			<point x="257" y="374"/>
			<point x="177" y="374" type="curve" smooth="yes"/>
			<point x="97" y="374"/>
			<point x="58" y="321"/>
			<point x="58" y="272" type="curve" smooth="yes"/>
			<point x="58" y="228"/>
			<point x="97" y="182"/>
			<point x="140" y="182" type="curve"/>
			<point x="140" y="198" type="line"/>
			<point x="100" y="205"/>
			<point x="45" y="160"/>
			<point x="45" y="102" type="curve" smooth="yes"/>
			<point x="45" y="32"/>
			<point x="104" y="-8"/>
		</contour>
		<contour>
			<point x="177" y="35" type="curve" smooth="yes"/>
			<point x="125" y="35"/>
			<point x="90" y="61"/>
			<point x="90" y="102" type="curve" smooth="yes"/>
			<point x="90" y="143"/>
			<point x="125" y="169"/>
			<point x="177" y="169" type="curve" smooth="yes"/>
			<point x="229" y="169"/>
			<point x="265" y="143"/>
			<point x="265" y="102" type="curve" smooth="yes"/>
			<point x="265" y="61"/>
			<point x="229" y="35"/>
		</contour>
		<contour>
			<point x="177" y="212" type="curve" smooth="yes"/>
			<point x="127" y="212"/>
			<point x="103" y="240"/>
			<point x="103" y="272" type="curve" smooth="yes"/>
			<point x="103" y="304"/>
			<point x="126" y="332"/>
			<point x="177" y="332" type="curve" smooth="yes"/>
			<point x="228" y="332"/>
			<point x="252" y="304"/>
			<point x="252" y="272" type="curve" smooth="yes"/>
			<point x="252" y="240"/>
			<point x="228" y="212"/>
		</contour>
	</outline>
</glyph>
<glyph name="eight.tf" format="2">
	<advance width="630"/>
	<outline>
		<contour>
			<point x="315" y="-16" type="curve" smooth="yes"/>
			<point x="455" y="-16"/>
			<point x="564" y="58"/>
			<point x="564" y="188" type="curve" smooth="yes"/>
			<point x="564" y="288"/>
			<point x="475" y="366"/>
			<point x="405" y="366" type="curve"/>
			<point x="405" y="363" type="line"/>
			<point x="465" y="363"/>
			<point x="538" y="447"/>
			<point x="538" y="527" type="curve" smooth="yes"/>
			<point x="538" y="617"/>
			<point x="465" y="716"/>
			<point x="315" y="716" type="curve" smooth="yes"/>
			<point x="165" y="716"/>
			<point x="92" y="617"/>
			<point x="92" y="527" type="curve" smooth="yes"/>
			<point x="92" y="447"/>
			<point x="165" y="364"/>
			<point x="225" y="364" type="curve"/>
			<point x="225" y="366" type="line"/>
			<point x="155" y="366"/>
			<point x="66" y="288"/>
			<point x="66" y="188" type="curve" smooth="yes"/>
			<point x="66" y="58"/>
			<point x="175" y="-16"/>
		</contour>
		<contour>
			<point x="315" y="37" type="curve" smooth="yes"/>
			<point x="205" y="37"/>
			<point x="124" y="98"/>
			<point x="124" y="188" type="curve" smooth="yes"/>
			<point x="124" y="278"/>
			<point x="205" y="338"/>
			<point x="315" y="338" type="curve" smooth="yes"/>
			<point x="425" y="338"/>
			<point x="506" y="278"/>
			<point x="506" y="188" type="curve" smooth="yes"/>
			<point x="506" y="98"/>
			<point x="425" y="37"/>
		</contour>
		<contour>
			<point x="315" y="391" type="curve" smooth="yes"/>
			<point x="206" y="391"/>
			<point x="150" y="457"/>
			<point x="150" y="527" type="curve" smooth="yes"/>
			<point x="150" y="597"/>
			<point x="205" y="663"/>
			<point x="315" y="663" type="curve" smooth="yes"/>
			<point x="425" y="663"/>
			<point x="480" y="597"/>
			<point x="480" y="527" type="curve" smooth="yes"/>
			<point x="480" y="457"/>
			<point x="425" y="391"/>
		</contour>
	</outline>
</glyph>
<glyph name="exclam.ss06" format="2">
	<advance width="280"/>
	<outline>
		<contour>
			<point x="121" y="166" type="line"/>
			<point x="159" y="166" type="line"/>
			<point x="169" y="700" type="line"/>
			<point x="111" y="700" type="line"/>
		</contour>
		<contour>
			<point x="105" y="0" type="line"/>
			<point x="175" y="0" type="line"/>
			<point x="175" y="70" type="line"/>
			<point x="105" y="70" type="line"/>
		</contour>
	</outline>
</glyph>
<glyph name="exclam.ss06.ss07" format="2">
	<advance width="296"/>
	<outline>
		<contour>
			<point x="129" y="166" type="line"/>
			<point x="167" y="166" type="line"/>
			<point x="177" y="700" type="line"/>
			<point x="119" y="700" type="line"/>
		</contour>
		<contour>
			<point x="148" y="-8" type="curve" smooth="yes"/>
			<point x="172" y="-8"/>
			<point x="191" y="11"/>
			<point x="191" y="35" type="curve" smooth="yes"/>
			<point x="191" y="59"/>
			<point x="172" y="78"/>
			<point x="148" y="78" type="curve" smooth="yes"/>
			<point x="124" y="78"/>
			<point x="105" y="59"/>
			<point x="105" y="35" type="curve" smooth="yes"/>
			<point x="105" y="11"/>
			<point x="124" y="-8"/>
		</contour>
	</outline>
</glyph>
<glyph name="exclam.ss07" format="2">
	<advance width="316"/>
	<outline>
		<contour>
			<point x="125" y="166" type="line"/>
			<point x="163" y="166" type="line"/>
			<point x="231" y="700" type="line"/>
			<point x="173" y="700" type="line"/>
		</contour>
		<contour>
			<point x="138" y="-8" type="curve" smooth="yes"/>
			<point x="162" y="-8"/>
			<point x="181" y="11"/>
			<point x="181" y="35" type="curve" smooth="yes"/>
			<point x="181" y="59"/>
			<point x="162" y="78"/>
			<point x="138" y="78" type="curve" smooth="yes"/>
			<point x="114" y="78"/>
			<point x="95" y="59"/>
			<point x="95" y="35" type="curve" smooth="yes"/>
			<point x="95" y="11"/>
			<point x="114" y="-8"/>
		</contour>
	</outline>
</glyph>
<glyph name="exclamdown.ss06" format="2">
	<advance width="280"/>
	<outline>
		<contour>
			<point x="111" y="-174" type="line"/>
			<point x="169" y="-174" type="line"/>
			<point x="159" y="360" type="line"/>
			<point x="121" y="360" type="line"/>
		</contour>
		<contour>
			<point x="105" y="456" type="line"/>
			<point x="175" y="456" type="line"/>
			<point x="175" y="526" type="line"/>
			<point x="105" y="526" type="line"/>
		</contour>
	</outline>
</glyph>
<glyph name="five.dnom" format="2">
	<advance width="355"/>
	<outline>
		<contour>
			<point x="180" y="-8" type="curve" smooth="yes"/>
			<point x="254" y="-8"/>
			<point x="305" y="43"/>
			<point x="305" y="122" type="curve" smooth="yes"/>
			<point x="305" y="201"/>
			<point x="254" y="250"/>
			<point x="185" y="250" type="curve" smooth="yes"/>
			<point x="140" y="250"/>
			<point x="105" y="227"/>
			<point x="79" y="191" type="curve"/>
			<point x="105" y="168" type="line"/>
			<point x="116" y="324" type="line"/>
			<point x="279" y="324" type="line"/>
			<point x="279" y="366" type="line"/>
			<point x="76" y="366" type="line"/>
			<point x="60" y="161" type="line"/>
			<point x="105" y="161" type="line"/>
			<point x="111" y="175"/>
			<point x="130" y="210"/>
			<point x="185" y="210" type="curve" smooth="yes"/>
			<point x="236" y="210"/>
			<point x="260" y="170"/>
			<point x="260" y="122" type="curve" smooth="yes"/>
			<point x="260" y="74"/>
			<point x="236" y="34"/>
			<point x="180" y="34" type="curve" smooth="yes"/>
			<point x="119" y="34"/>
			<point x="95" y="80"/>
			<point x="101" y="115" type="curve"/>
			<point x="55" y="107" type="line"/>
			<point x="51" y="50"/>
			<point x="102" y="-8"/>
		</contour>
	</outline>
</glyph>
